SeanSans-WideBlack.ufo
<glyph name="exclam" format="1">
  <advance width="277"/>
  <unicode hex="0021"/>
  <outline>
    <contour>
      <point x="199" y="229" type="line"/>
      <point x="217" y="722" type="line"/>
      <point x="59" y="722" type="line"/>
      <point x="77" y="229" type="line"/>
    </contour>
    <contour>
      <point x="230" y="64" type="curve"/>
      <point x="230" y="114"/>
      <point x="190" y="138"/>
      <point x="137" y="138" type="curve"/>
      <point x="84" y="138"/>
      <point x="48" y="112"/>
      <point x="48" y="64" type="curve"/>
      <point x="229" y="64"/>
      <point x="48" y="64"/>
      <point x="230" y="64" type="curve"/>
      <point x="230" y="12"/>
      <point x="190" y="-10"/>
      <point x="136" y="-10" type="curve"/>
      <point x="83" y="-10"/>
      <point x="48" y="15"/>
      <point x="48" y="64" type="curve"/>
      <point x="229" y="64"/>
      <point x="48" y="64"/>
    </contour>
  </outline>
</glyph>
<glyph name="numbersign" format="1">
  <advance width="825"/>
  <unicode hex="0023"/>
  <outline>
    <contour>
      <point x="29" y="215" type="curve"/>
      <point x="669" y="215" type="curve"/>
      <point x="715" y="329" type="curve"/>
      <point x="77" y="329" type="curve"/>
    </contour>
    <contour>
      <point x="110" y="427" type="curve"/>
      <point x="756" y="427" type="curve"/>
      <point x="800" y="541" type="curve"/>
      <point x="155" y="541" type="curve"/>
    </contour>
    <contour>
      <point x="524" y="39" type="curve"/>
      <point x="794" y="722" type="curve"/>
      <point x="637" y="722" type="curve"/>
      <point x="367" y="39" type="curve"/>
    </contour>
    <contour>
      <point x="193" y="46" type="curve"/>
      <point x="461" y="722" type="curve"/>
      <point x="305" y="722" type="curve"/>
      <point x="43" y="46" type="curve"/>
    </contour>
  </outline>
</glyph>
<glyph name="dollar" format="1">
  <advance width="682"/>
  <unicode hex="0024"/>
  <outline>
    <contour>
      <point x="389" y="-38" type="curve"/>
      <point x="389" y="-9"/>
      <point x="389" y="69"/>
      <point x="389" y="99" type="curve"/>
      <point x="232" y="99"/>
      <point x="389" y="99"/>
      <point x="232" y="99" type="curve"/>
      <point x="232" y="69"/>
      <point x="232" y="-9"/>
      <point x="232" y="-38" type="curve"/>
      <point x="389" y="-38"/>
      <point x="232" y="-38"/>
    </contour>
    <contour>
      <point x="403" y="630" type="curve"/>
      <point x="403" y="659"/>
      <point x="403" y="744"/>
      <point x="403" y="773" type="curve"/>
      <point x="248" y="773"/>
      <point x="403" y="773"/>
      <point x="248" y="773" type="curve"/>
      <point x="248" y="744"/>
      <point x="248" y="659"/>
      <point x="248" y="630" type="curve"/>
      <point x="403" y="630"/>
      <point x="248" y="630"/>
    </contour>
    <contour>
      <point x="32" y="91" type="curve"/>
      <point x="110" y="64"/>
      <point x="201" y="41"/>
      <point x="303" y="41" type="curve"/>
      <point x="492" y="41"/>
      <point x="656" y="76"/>
      <point x="656" y="222" type="curve"/>
      <point x="656" y="349"/>
      <point x="517" y="382"/>
      <point x="375" y="425" type="curve"/>
      <point x="284" y="451"/>
      <point x="190" y="462"/>
      <point x="190" y="519" type="curve"/>
      <point x="190" y="569"/>
      <point x="256" y="574"/>
      <point x="328" y="574" type="curve"/>
      <point x="404" y="574"/>
      <point x="457" y="565"/>
      <point x="539" y="537" type="curve"/>
      <point x="604" y="636"/>
      <point x="539" y="537"/>
      <point x="604" y="636" type="curve"/>
      <point x="511" y="670"/>
      <point x="438" y="688"/>
      <point x="336" y="688" type="curve"/>
      <point x="171" y="688"/>
      <point x="34" y="649"/>
      <point x="34" y="519" type="curve"/>
      <point x="34" y="399"/>
      <point x="147" y="362"/>
      <point x="283" y="322" type="curve"/>
      <point x="382" y="293"/>
      <point x="500" y="284"/>
      <point x="500" y="217" type="curve"/>
      <point x="500" y="163"/>
      <point x="411" y="156"/>
      <point x="318" y="156" type="curve"/>
      <point x="242" y="156"/>
      <point x="174" y="174"/>
      <point x="101" y="196" type="curve"/>
      <point x="32" y="90"/>
      <point x="101" y="197"/>
    </contour>
  </outline>
</glyph>
<glyph name="percent" format="1">
  <advance width="1282"/>
  <unicode hex="0025"/>
  <outline>
    <contour>
      <point x="449" y="-33" type="line"/>
      <point x="980" y="704" type="line"/>
      <point x="838" y="704" type="line"/>
      <point x="307" y="-33" type="line"/>
    </contour>
    <contour>
      <point x="172" y="483" type="curve"/>
      <point x="172" y="551"/>
      <point x="213" y="594"/>
      <point x="281" y="594" type="curve"/>
      <point x="351" y="595"/>
      <point x="392" y="551"/>
      <point x="392" y="481" type="curve"/>
      <point x="392" y="412"/>
      <point x="356" y="366"/>
      <point x="290" y="366" type="curve"/>
      <point x="217" y="366"/>
      <point x="172" y="410"/>
      <point x="172" y="483" type="curve"/>
      <point x="118" y="483"/>
      <point x="80" y="483"/>
      <point x="25" y="483" type="curve"/>
      <point x="25" y="335"/>
      <point x="129" y="253"/>
      <point x="282" y="253" type="curve"/>
      <point x="439" y="253"/>
      <point x="546" y="335"/>
      <point x="546" y="487" type="curve"/>
      <point x="546" y="631"/>
      <point x="440" y="707"/>
      <point x="288" y="707" type="curve"/>
      <point x="133" y="707"/>
      <point x="25" y="630"/>
      <point x="25" y="483" type="curve"/>
      <point x="80" y="483"/>
      <point x="118" y="483"/>
    </contour>
    <contour>
      <point x="883" y="190" type="curve"/>
      <point x="883" y="258"/>
      <point x="923" y="301"/>
      <point x="991" y="301" type="curve"/>
      <point x="1061" y="302"/>
      <point x="1103" y="258"/>
      <point x="1103" y="188" type="curve"/>
      <point x="1103" y="119"/>
      <point x="1066" y="73"/>
      <point x="1000" y="73" type="curve"/>
      <point x="927" y="73"/>
      <point x="883" y="117"/>
      <point x="883" y="190" type="curve"/>
      <point x="828" y="190"/>
      <point x="790" y="190"/>
      <point x="736" y="190" type="curve"/>
      <point x="736" y="42"/>
      <point x="839" y="-40"/>
      <point x="992" y="-40" type="curve"/>
      <point x="1149" y="-40"/>
      <point x="1256" y="42"/>
      <point x="1256" y="194" type="curve"/>
      <point x="1256" y="338"/>
      <point x="1150" y="414"/>
      <point x="998" y="414" type="curve"/>
      <point x="843" y="414"/>
      <point x="736" y="337"/>
      <point x="736" y="190" type="curve"/>
      <point x="790" y="190"/>
      <point x="828" y="190"/>
    </contour>
  </outline>
</glyph>
<glyph name="ampersand" format="1">
  <advance width="867"/>
  <unicode hex="0026"/>
  <outline>
    <contour>
      <point x="834" y="81" type="line"/>
      <point x="714" y="170"/>
      <point x="565" y="284"/>
      <point x="441" y="379" type="curve"/>
      <point x="372" y="432"/>
      <point x="282" y="460"/>
      <point x="282" y="548" type="curve"/>
      <point x="282" y="590"/>
      <point x="316" y="613"/>
      <point x="361" y="613" type="curve"/>
      <point x="416" y="613"/>
      <point x="463" y="598"/>
      <point x="463" y="550" type="curve"/>
      <point x="462" y="469"/>
      <point x="382" y="453"/>
      <point x="303" y="421" type="curve"/>
      <point x="173" y="368"/>
      <point x="42" y="336"/>
      <point x="42" y="201" type="curve"/>
      <point x="42" y="51"/>
      <point x="186" y="-5"/>
      <point x="355" y="-5" type="curve"/>
      <point x="577" y="-5"/>
      <point x="734" y="107"/>
      <point x="825" y="311" type="curve"/>
      <point x="690" y="341"/>
      <point x="825" y="311"/>
      <point x="690" y="341" type="curve"/>
      <point x="624" y="195"/>
      <point x="519" y="109"/>
      <point x="362" y="109" type="curve"/>
      <point x="275" y="109"/>
      <point x="198" y="126"/>
      <point x="198" y="201" type="curve"/>
      <point x="198" y="286"/>
      <point x="285" y="297"/>
      <point x="367" y="330" type="curve"/>
      <point x="493" y="382"/>
      <point x="617" y="419"/>
      <point x="619" y="550" type="curve"/>
      <point x="619" y="675"/>
      <point x="505" y="727"/>
      <point x="369" y="727" type="curve"/>
      <point x="234" y="727"/>
      <point x="127" y="670"/>
      <point x="127" y="548" type="curve"/>
      <point x="127" y="430"/>
      <point x="238" y="380"/>
      <point x="334" y="311" type="curve"/>
      <point x="459" y="212"/>
      <point x="633" y="80"/>
      <point x="754" y="-13" type="curve"/>
    </contour>
  </outline>
</glyph>
<glyph name="quotesingle" format="1">
  <advance width="251"/>
  <unicode hex="0027"/>
  <outline>
    <contour>
      <point x="202" y="612" type="line"/>
      <point x="212" y="845" type="line"/>
      <point x="39" y="845" type="line"/>
      <point x="49" y="612" type="line"/>
    </contour>
  </outline>
</glyph>
<glyph name="parenleft" format="1">
  <advance width="459"/>
  <unicode hex="0028"/>
  <outline>
    <contour>
      <point x="458" y="-203" type="curve"/>
      <point x="278" y="-59"/>
      <point x="185" y="95"/>
      <point x="185" y="326" type="curve"/>
      <point x="185" y="558"/>
      <point x="277" y="711"/>
      <point x="457" y="859" type="curve"/>
      <point x="364" y="932"/>
      <point x="457" y="859"/>
      <point x="364" y="932" type="curve"/>
      <point x="153" y="765"/>
      <point x="31" y="597"/>
      <point x="31" y="326" type="curve"/>
      <point x="31" y="54"/>
      <point x="153" y="-113"/>
      <point x="365" y="-283" type="curve"/>
      <point x="458" y="-203"/>
      <point x="365" y="-283"/>
    </contour>
  </outline>
</glyph>
<glyph name="parenright" format="1">
  <advance width="474"/>
  <unicode hex="0029"/>
  <outline>
    <contour>
      <point x="91" y="-296" type="curve"/>
      <point x="308" y="-119"/>
      <point x="442" y="48"/>
      <point x="442" y="329" type="curve"/>
      <point x="442" y="603"/>
      <point x="315" y="769"/>
      <point x="96" y="935" type="curve"/>
      <point x="4" y="855"/>
      <point x="96" y="935"/>
      <point x="4" y="855" type="curve"/>
      <point x="188" y="709"/>
      <point x="288" y="558"/>
      <point x="288" y="324" type="curve"/>
      <point x="288" y="85"/>
      <point x="179" y="-66"/>
      <point x="-1" y="-223" type="curve"/>
      <point x="91" y="-296"/>
      <point x="-1" y="-223"/>
    </contour>
  </outline>
</glyph>
<glyph name="asterisk" format="1">
  <advance width="553"/>
  <unicode hex="002A"/>
  <outline>
    <contour>
      <point x="329" y="603" type="line"/>
      <point x="336" y="836" type="line"/>
      <point x="214" y="836" type="line"/>
      <point x="221" y="603" type="line"/>
    </contour>
    <contour>
      <point x="296" y="551" type="line"/>
      <point x="517" y="624" type="line"/>
      <point x="476" y="739" type="line"/>
      <point x="258" y="653" type="line"/>
    </contour>
    <contour>
      <point x="235" y="566" type="line"/>
      <point x="380" y="383" type="line"/>
      <point x="473" y="461" type="line"/>
      <point x="318" y="635" type="line"/>
    </contour>
    <contour>
      <point x="233" y="635" type="line"/>
      <point x="78" y="461" type="line"/>
      <point x="172" y="383" type="line"/>
      <point x="316" y="566" type="line"/>
    </contour>
    <contour>
      <point x="292" y="653" type="line"/>
      <point x="75" y="739" type="line"/>
      <point x="34" y="625" type="line"/>
      <point x="255" y="552" type="line"/>
    </contour>
  </outline>
</glyph>
<glyph name="plus" format="1">
  <advance width="662"/>
  <unicode hex="002B"/>
  <outline>
    <contour>
      <point x="32" y="251" type="curve"/>
      <point x="630" y="251" type="line"/>
      <point x="630" y="376"/>
      <point x="630" y="251"/>
      <point x="630" y="376" type="curve"/>
      <point x="32" y="376" type="line"/>
      <point x="32" y="251"/>
      <point x="32" y="376"/>
    </contour>
    <contour>
      <point x="408" y="22" type="curve"/>
      <point x="408" y="587" type="line"/>
      <point x="253" y="587"/>
      <point x="418" y="587"/>
      <point x="263" y="587" type="curve"/>
      <point x="263" y="22" type="line"/>
      <point x="418" y="22"/>
      <point x="253" y="22"/>
    </contour>
  </outline>
</glyph>
<glyph name="comma" format="1">
  <advance width="259"/>
  <unicode hex="002C"/>
  <outline>
    <contour>
      <point x="11" y="-123" type="line"/>
      <point x="130" y="-122"/>
      <point x="214" y="-48"/>
      <point x="214" y="60" type="curve"/>
      <point x="214" y="141"/>
      <point x="171" y="203"/>
      <point x="106" y="203" type="curve"/>
      <point x="54" y="203"/>
      <point x="16" y="178"/>
      <point x="16" y="129" type="curve"/>
      <point x="16" y="79"/>
      <point x="55" y="53"/>
      <point x="110" y="53" type="curve"/>
      <point x="109" y="7"/>
      <point x="90" y="-33"/>
      <point x="11" y="-42" type="curve"/>
    </contour>
  </outline>
</glyph>
<glyph name="hyphen" format="1">
  <advance width="465"/>
  <unicode hex="002D"/>
  <outline>
    <contour>
      <point x="51" y="221" type="curve"/>
      <point x="172" y="221"/>
      <point x="293" y="221"/>
      <point x="414" y="221" type="curve"/>
      <point x="414" y="347"/>
      <point x="414" y="221"/>
      <point x="414" y="347" type="curve"/>
      <point x="293" y="347"/>
      <point x="172" y="347"/>
      <point x="51" y="347" type="curve"/>
      <point x="51" y="221"/>
      <point x="51" y="347"/>
    </contour>
  </outline>
</glyph>
<glyph name="period" format="1">
  <advance width="271"/>
  <unicode hex="002E"/>
  <outline>
    <contour>
      <point x="226" y="64" type="curve"/>
      <point x="226" y="114"/>
      <point x="187" y="138"/>
      <point x="134" y="138" type="curve"/>
      <point x="81" y="138"/>
      <point x="44" y="112"/>
      <point x="44" y="64" type="curve"/>
      <point x="226" y="64"/>
      <point x="45" y="64"/>
      <point x="226" y="64" type="curve"/>
      <point x="226" y="12"/>
      <point x="187" y="-10"/>
      <point x="133" y="-10" type="curve"/>
      <point x="80" y="-10"/>
      <point x="44" y="15"/>
      <point x="44" y="64" type="curve"/>
      <point x="226" y="64"/>
      <point x="45" y="64"/>
    </contour>
  </outline>
</glyph>
<glyph name="slash" format="1">
  <advance width="724"/>
  <unicode hex="002F"/>
  <outline>
    <contour>
      <point x="175" y="-11" type="curve"/>
      <point x="351" y="253"/>
      <point x="528" y="516"/>
      <point x="706" y="779" type="curve"/>
      <point x="549" y="779"/>
      <point x="706" y="779"/>
      <point x="549" y="779" type="curve"/>
      <point x="372" y="516"/>
      <point x="195" y="253"/>
      <point x="18" y="-11" type="curve"/>
      <point x="175" y="-11"/>
      <point x="18" y="-11"/>
    </contour>
  </outline>
</glyph>
<glyph name="zero" format="1">
  <advance width="878"/>
  <unicode hex="0030"/>
  <outline>
    <contour>
      <point x="199" y="360" type="curve"/>
      <point x="199" y="516"/>
      <point x="287" y="607"/>
      <point x="434" y="607" type="curve"/>
      <point x="584" y="607"/>
      <point x="679" y="520"/>
      <point x="679" y="363" type="curve"/>
      <point x="679" y="207"/>
      <point x="591" y="115"/>
      <point x="447" y="115" type="curve"/>
      <point x="295" y="115"/>
      <point x="199" y="202"/>
      <point x="199" y="360" type="curve"/>
      <point x="40" y="360"/>
      <point x="199" y="360"/>
      <point x="40" y="360" type="curve"/>
      <point x="40" y="122"/>
      <point x="199" y="-5"/>
      <point x="440" y="-5" type="curve"/>
      <point x="682" y="-5"/>
      <point x="839" y="123"/>
      <point x="839" y="363" type="curve"/>
      <point x="839" y="599"/>
      <point x="686" y="727"/>
      <point x="449" y="727" type="curve"/>
      <point x="203" y="727"/>
      <point x="40" y="601"/>
      <point x="40" y="360" type="curve"/>
      <point x="199" y="360"/>
      <point x="40" y="360"/>
    </contour>
  </outline>
</glyph>
<glyph name="one" format="1">
  <advance width="450"/>
  <unicode hex="0031"/>
  <outline>
    <contour>
      <point x="75" y="457" type="curve"/>
      <point x="352" y="645"/>
      <point x="75" y="457"/>
      <point x="352" y="645" type="curve"/>
      <point x="238" y="722"/>
      <point x="352" y="645"/>
      <point x="238" y="722" type="curve"/>
      <point x="5" y="570"/>
      <point x="238" y="722"/>
      <point x="5" y="570" type="curve"/>
      <point x="75" y="457"/>
      <point x="5" y="570"/>
    </contour>
    <contour>
      <point x="393" y="0" type="curve"/>
      <point x="393" y="241"/>
      <point x="393" y="481"/>
      <point x="393" y="722" type="curve"/>
      <point x="238" y="722"/>
      <point x="393" y="722"/>
      <point x="238" y="722" type="curve"/>
      <point x="238" y="481"/>
      <point x="238" y="241"/>
      <point x="238" y="0" type="curve"/>
      <point x="393" y="0"/>
      <point x="238" y="0"/>
    </contour>
  </outline>
</glyph>
<glyph name="two" format="1">
  <advance width="714"/>
  <unicode hex="0032"/>
  <outline>
    <contour>
      <point x="34" y="0" type="curve"/>
      <point x="291" y="0"/>
      <point x="497" y="0"/>
      <point x="679" y="0" type="curve"/>
      <point x="679" y="114"/>
      <point x="679" y="0"/>
      <point x="679" y="114" type="curve"/>
      <point x="472" y="114"/>
      <point x="242" y="115"/>
      <point x="34" y="115" type="curve"/>
      <point x="34" y="0"/>
      <point x="34" y="114"/>
    </contour>
    <contour>
      <point x="143" y="505" type="curve"/>
      <point x="212" y="573"/>
      <point x="264" y="608"/>
      <point x="346" y="608" type="curve"/>
      <point x="431" y="608"/>
      <point x="496" y="582"/>
      <point x="496" y="502" type="curve"/>
      <point x="496" y="403"/>
      <point x="405" y="352"/>
      <point x="307" y="291" type="curve"/>
      <point x="216" y="232"/>
      <point x="126" y="174"/>
      <point x="34" y="115" type="curve"/>
      <point x="34" y="0"/>
      <point x="34" y="114"/>
      <point x="34" y="0" type="curve"/>
      <point x="212" y="66"/>
      <point x="306" y="134"/>
      <point x="407" y="200" type="curve"/>
      <point x="540" y="283"/>
      <point x="640" y="352"/>
      <point x="640" y="507" type="curve"/>
      <point x="640" y="665"/>
      <point x="522" y="727"/>
      <point x="353" y="727" type="curve"/>
      <point x="219" y="727"/>
      <point x="115" y="682"/>
      <point x="41" y="576" type="curve"/>
      <point x="143" y="505"/>
      <point x="41" y="576"/>
    </contour>
  </outline>
</glyph>
<glyph name="three" format="1">
  <advance width="654"/>
  <unicode hex="0033"/>
  <outline>
    <contour>
      <point x="30" y="54" type="curve"/>
      <point x="84" y="21"/>
      <point x="175" y="-5"/>
      <point x="275" y="-5" type="curve"/>
      <point x="468" y="-5"/>
      <point x="616" y="42"/>
      <point x="616" y="225" type="curve"/>
      <point x="616" y="377"/>
      <point x="428" y="420"/>
      <point x="181" y="420" type="curve"/>
      <point x="181" y="323"/>
      <point x="181" y="420"/>
      <point x="181" y="323" type="curve"/>
      <point x="321" y="323"/>
      <point x="468" y="306"/>
      <point x="468" y="220" type="curve"/>
      <point x="468" y="121"/>
      <point x="372" y="115"/>
      <point x="279" y="115" type="curve"/>
      <point x="231" y="115"/>
      <point x="161" y="127"/>
      <point x="97" y="153" type="curve"/>
      <point x="30" y="54"/>
      <point x="97" y="153"/>
    </contour>
    <contour>
      <point x="106" y="554" type="curve"/>
      <point x="144" y="581"/>
      <point x="211" y="608"/>
      <point x="272" y="608" type="curve"/>
      <point x="358" y="608"/>
      <point x="426" y="599"/>
      <point x="426" y="522" type="curve"/>
      <point x="426" y="444"/>
      <point x="304" y="430"/>
      <point x="181" y="430" type="curve"/>
      <point x="181" y="333"/>
      <point x="181" y="430"/>
      <point x="181" y="333" type="curve"/>
      <point x="395" y="333"/>
      <point x="575" y="376"/>
      <point x="575" y="528" type="curve"/>
      <point x="575" y="678"/>
      <point x="447" y="727"/>
      <point x="283" y="727" type="curve"/>
      <point x="176" y="727"/>
      <point x="77" y="688"/>
      <point x="29" y="642" type="curve"/>
      <point x="106" y="554"/>
      <point x="29" y="642"/>
    </contour>
  </outline>
</glyph>
<glyph name="four" format="1">
  <advance width="724"/>
  <unicode hex="0034"/>
  <outline>
    <contour>
      <point x="63" y="236" type="line"/>
      <point x="491" y="648" type="line"/>
      <point x="370" y="696" type="line"/>
      <point x="8" y="350" type="line"/>
    </contour>
    <contour>
      <point x="694" y="350" type="line"/>
      <point x="8" y="350" type="line"/>
      <point x="9" y="224" type="line"/>
      <point x="694" y="224" type="line"/>
    </contour>
    <contour>
      <point x="526" y="0" type="line"/>
      <point x="526" y="696" type="line"/>
      <point x="371" y="696" type="line"/>
      <point x="371" y="0" type="line"/>
    </contour>
  </outline>
</glyph>
<glyph name="five" format="1">
  <advance width="661"/>
  <unicode hex="0035"/>
  <outline>
    <contour>
      <point x="74" y="722" type="curve"/>
      <point x="74" y="628"/>
      <point x="74" y="516"/>
      <point x="74" y="371" type="curve"/>
      <point x="223" y="336"/>
      <point x="74" y="371"/>
      <point x="223" y="336" type="curve"/>
      <point x="223" y="420"/>
      <point x="223" y="524"/>
      <point x="223" y="608" type="curve"/>
      <point x="74" y="722"/>
      <point x="223" y="608"/>
    </contour>
    <contour>
      <point x="223" y="336" type="curve"/>
      <point x="245" y="354"/>
      <point x="292" y="363"/>
      <point x="318" y="363" type="curve"/>
      <point x="414" y="363"/>
      <point x="473" y="328"/>
      <point x="473" y="242" type="curve"/>
      <point x="473" y="156"/>
      <point x="390" y="114"/>
      <point x="293" y="114" type="curve"/>
      <point x="229" y="114"/>
      <point x="175" y="121"/>
      <point x="105" y="146" type="curve"/>
      <point x="37" y="43"/>
      <point x="105" y="146"/>
      <point x="37" y="43" type="curve"/>
      <point x="121" y="10"/>
      <point x="197" y="-5"/>
      <point x="288" y="-5" type="curve"/>
      <point x="472" y="-5"/>
      <point x="628" y="75"/>
      <point x="628" y="243" type="curve"/>
      <point x="628" y="402"/>
      <point x="501" y="485"/>
      <point x="326" y="485" type="curve"/>
      <point x="244" y="485"/>
      <point x="142" y="455"/>
      <point x="78" y="372" type="curve"/>
      <point x="223" y="337"/>
      <point x="77" y="371"/>
    </contour>
    <contour>
      <point x="587" y="722" type="curve"/>
      <point x="401" y="722"/>
      <point x="236" y="722"/>
      <point x="74" y="722" type="curve"/>
      <point x="223" y="608"/>
      <point x="74" y="722"/>
      <point x="223" y="608" type="curve"/>
      <point x="336" y="608"/>
      <point x="451" y="608"/>
      <point x="587" y="608" type="curve"/>
      <point x="587" y="722"/>
      <point x="587" y="608"/>
    </contour>
  </outline>
</glyph>
<glyph name="six" format="1">
  <advance width="726"/>
  <unicode hex="0036"/>
  <outline>
    <contour>
      <point x="161" y="222" type="curve"/>
      <point x="210" y="305"/>
      <point x="285" y="332"/>
      <point x="387" y="332" type="curve"/>
      <point x="474" y="332"/>
      <point x="540" y="307"/>
      <point x="540" y="226" type="curve"/>
      <point x="540" y="146"/>
      <point x="471" y="122"/>
      <point x="385" y="122" type="curve"/>
      <point x="270" y="122"/>
      <point x="184" y="162"/>
      <point x="184" y="261" type="curve"/>
      <point x="184" y="495"/>
      <point x="410" y="557"/>
      <point x="661" y="612" type="curve"/>
      <point x="627" y="727"/>
      <point x="661" y="612"/>
      <point x="627" y="727" type="curve"/>
      <point x="335" y="673"/>
      <point x="35" y="566"/>
      <point x="35" y="255" type="curve"/>
      <point x="35" y="71"/>
      <point x="179" y="-12"/>
      <point x="378" y="-12" type="curve"/>
      <point x="561" y="-12"/>
      <point x="696" y="60"/>
      <point x="696" y="226" type="curve"/>
      <point x="696" y="388"/>
      <point x="568" y="453"/>
      <point x="398" y="453" type="curve"/>
      <point x="248" y="453"/>
      <point x="133" y="374"/>
      <point x="57" y="277" type="curve"/>
      <point x="161" y="222"/>
      <point x="57" y="277"/>
    </contour>
  </outline>
</glyph>
<glyph name="seven" format="1">
  <advance width="647"/>
  <unicode hex="0037"/>
  <outline>
    <contour>
      <point x="26" y="608" type="curve"/>
      <point x="631" y="608" type="curve"/>
      <point x="631" y="722" type="curve"/>
      <point x="26" y="722" type="curve"/>
    </contour>
    <contour>
      <point x="536" y="722" type="curve"/>
      <point x="56" y="0" type="curve"/>
      <point x="236" y="0" type="curve"/>
      <point x="631" y="608" type="curve"/>
    </contour>
  </outline>
</glyph>
<glyph name="eight" format="1">
  <advance width="714"/>
  <unicode hex="0038"/>
  <outline>
    <contour>
      <point x="64" y="535" type="curve"/>
      <point x="64" y="403"/>
      <point x="181" y="383"/>
      <point x="312" y="339" type="curve"/>
      <point x="419" y="302"/>
      <point x="518" y="296"/>
      <point x="518" y="195" type="curve"/>
      <point x="518" y="126"/>
      <point x="447" y="111"/>
      <point x="358" y="111" type="curve"/>
      <point x="267" y="111"/>
      <point x="196" y="125"/>
      <point x="196" y="195" type="curve"/>
      <point x="196" y="298"/>
      <point x="300" y="303"/>
      <point x="407" y="340" type="curve"/>
      <point x="535" y="387"/>
      <point x="651" y="404"/>
      <point x="651" y="534" type="curve"/>
      <point x="651" y="684"/>
      <point x="529" y="727"/>
      <point x="358" y="727" type="curve"/>
      <point x="191" y="727"/>
      <point x="64" y="682"/>
      <point x="64" y="535" type="curve"/>
      <point x="220" y="535"/>
      <point x="64" y="535"/>
      <point x="220" y="535" type="curve"/>
      <point x="220" y="594"/>
      <point x="278" y="610"/>
      <point x="351" y="610" type="curve"/>
      <point x="432" y="610"/>
      <point x="495" y="598"/>
      <point x="495" y="534" type="curve"/>
      <point x="495" y="447"/>
      <point x="402" y="449"/>
      <point x="310" y="417" type="curve"/>
      <point x="166" y="366"/>
      <point x="40" y="341"/>
      <point x="40" y="195" type="curve"/>
      <point x="40" y="39"/>
      <point x="173" y="-5"/>
      <point x="350" y="-5" type="curve"/>
      <point x="533" y="-5"/>
      <point x="674" y="34"/>
      <point x="674" y="195" type="curve"/>
      <point x="674" y="339"/>
      <point x="549" y="366"/>
      <point x="408" y="416" type="curve"/>
      <point x="314" y="451"/>
      <point x="220" y="451"/>
      <point x="220" y="535" type="curve"/>
      <point x="64" y="535"/>
      <point x="220" y="535"/>
    </contour>
  </outline>
</glyph>
<glyph name="nine" format="1">
  <advance width="726"/>
  <unicode hex="0039"/>
  <outline>
    <contour>
      <point x="563" y="497" type="curve"/>
      <point x="515" y="416"/>
      <point x="448" y="390"/>
      <point x="353" y="390" type="curve"/>
      <point x="257" y="390"/>
      <point x="183" y="416"/>
      <point x="183" y="501" type="curve"/>
      <point x="183" y="577"/>
      <point x="253" y="598"/>
      <point x="339" y="598" type="curve"/>
      <point x="453" y="598"/>
      <point x="540" y="564"/>
      <point x="540" y="461" type="curve"/>
      <point x="540" y="228"/>
      <point x="323" y="171"/>
      <point x="65" y="114" type="curve"/>
      <point x="100" y="-6"/>
      <point x="64" y="114"/>
      <point x="99" y="-6" type="curve"/>
      <point x="417" y="45"/>
      <point x="690" y="156"/>
      <point x="690" y="467" type="curve"/>
      <point x="690" y="651"/>
      <point x="544" y="734"/>
      <point x="345" y="734" type="curve"/>
      <point x="162" y="734"/>
      <point x="28" y="662"/>
      <point x="28" y="496" type="curve"/>
      <point x="28" y="334"/>
      <point x="161" y="269"/>
      <point x="339" y="269" type="curve"/>
      <point x="488" y="269"/>
      <point x="578" y="330"/>
      <point x="638" y="458" type="curve"/>
      <point x="563" y="497"/>
      <point x="638" y="458"/>
    </contour>
  </outline>
</glyph>
<glyph name="colon" format="1">
  <advance width="284"/>
  <unicode hex="003A"/>
  <outline>
    <contour>
      <point x="233" y="376" type="curve"/>
      <point x="233" y="427"/>
      <point x="194" y="451"/>
      <point x="141" y="451" type="curve"/>
      <point x="88" y="451"/>
      <point x="51" y="424"/>
      <point x="51" y="376" type="curve"/>
      <point x="233" y="376"/>
      <point x="52" y="376"/>
      <point x="233" y="376" type="curve"/>
      <point x="233" y="325"/>
      <point x="194" y="303"/>
      <point x="140" y="303" type="curve"/>
      <point x="87" y="303"/>
      <point x="51" y="328"/>
      <point x="51" y="376" type="curve"/>
      <point x="233" y="376"/>
      <point x="52" y="376"/>
    </contour>
    <contour>
      <point x="232" y="64" type="curve"/>
      <point x="232" y="115"/>
      <point x="193" y="138"/>
      <point x="140" y="138" type="curve"/>
      <point x="87" y="138"/>
      <point x="50" y="112"/>
      <point x="50" y="64" type="curve"/>
      <point x="232" y="64"/>
      <point x="51" y="64"/>
      <point x="232" y="64" type="curve"/>
      <point x="232" y="12"/>
      <point x="193" y="-9"/>
      <point x="139" y="-9" type="curve"/>
      <point x="86" y="-9"/>
      <point x="50" y="15"/>
      <point x="50" y="64" type="curve"/>
      <point x="232" y="64"/>
      <point x="51" y="64"/>
    </contour>
  </outline>
</glyph>
<glyph name="semicolon" format="1">
  <advance width="288"/>
  <unicode hex="003B"/>
  <outline>
    <contour>
      <point x="34" y="-174" type="line"/>
      <point x="153" y="-174"/>
      <point x="237" y="-100"/>
      <point x="237" y="8" type="curve"/>
      <point x="237" y="89"/>
      <point x="195" y="151"/>
      <point x="128" y="151" type="curve"/>
      <point x="77" y="151"/>
      <point x="38" y="126"/>
      <point x="38" y="77" type="curve"/>
      <point x="38" y="27"/>
      <point x="78" y="1"/>
      <point x="133" y="1" type="curve"/>
      <point x="131" y="-45"/>
      <point x="113" y="-84"/>
      <point x="33" y="-94" type="curve"/>
    </contour>
    <contour>
      <point x="215" y="376" type="curve"/>
      <point x="215" y="427"/>
      <point x="175" y="451"/>
      <point x="122" y="451" type="curve"/>
      <point x="69" y="451"/>
      <point x="33" y="424"/>
      <point x="33" y="376" type="curve"/>
      <point x="214" y="376"/>
      <point x="33" y="376"/>
      <point x="215" y="376" type="curve"/>
      <point x="215" y="324"/>
      <point x="175" y="303"/>
      <point x="121" y="303" type="curve"/>
      <point x="68" y="303"/>
      <point x="33" y="327"/>
      <point x="33" y="376" type="curve"/>
      <point x="214" y="376"/>
      <point x="33" y="376"/>
    </contour>
  </outline>
</glyph>
<glyph name="less" format="1">
  <advance width="840"/>
  <unicode hex="003C"/>
  <outline>
    <contour>
      <point x="784" y="633" type="curve"/>
      <point x="531" y="543"/>
      <point x="278" y="453"/>
      <point x="25" y="363" type="curve"/>
      <point x="25" y="237"/>
      <point x="25" y="363"/>
      <point x="25" y="237" type="curve"/>
      <point x="278" y="327"/>
      <point x="531" y="417"/>
      <point x="784" y="507" type="curve"/>
      <point x="784" y="633"/>
      <point x="784" y="507"/>
    </contour>
    <contour>
      <point x="796" y="99" type="curve"/>
      <point x="539" y="187"/>
      <point x="282" y="275"/>
      <point x="25" y="363" type="curve"/>
      <point x="25" y="237"/>
      <point x="25" y="363"/>
      <point x="25" y="237" type="curve"/>
      <point x="282" y="149"/>
      <point x="539" y="61"/>
      <point x="796" y="-27" type="curve"/>
      <point x="796" y="99"/>
      <point x="796" y="-27"/>
    </contour>
  </outline>
</glyph>
<glyph name="equal" format="1">
  <advance width="887"/>
  <unicode hex="003D"/>
  <outline>
    <contour>
      <point x="52" y="157" type="curve"/>
      <point x="313" y="157"/>
      <point x="575" y="157"/>
      <point x="836" y="157" type="curve"/>
      <point x="836" y="278"/>
      <point x="836" y="157"/>
      <point x="836" y="278" type="curve"/>
      <point x="575" y="278"/>
      <point x="313" y="278"/>
      <point x="52" y="278" type="curve"/>
      <point x="52" y="157"/>
      <point x="52" y="278"/>
    </contour>
    <contour>
      <point x="52" y="379" type="curve"/>
      <point x="313" y="379"/>
      <point x="575" y="379"/>
      <point x="836" y="379" type="curve"/>
      <point x="836" y="500"/>
      <point x="836" y="379"/>
      <point x="836" y="500" type="curve"/>
      <point x="575" y="500"/>
      <point x="313" y="500"/>
      <point x="52" y="500" type="curve"/>
      <point x="52" y="379"/>
      <point x="52" y="500"/>
    </contour>
  </outline>
</glyph>
<glyph name="greater" format="1">
  <advance width="842"/>
  <unicode hex="003E"/>
  <outline>
    <contour>
      <point x="56" y="-27" type="curve"/>
      <point x="309" y="63"/>
      <point x="562" y="153"/>
      <point x="815" y="243" type="curve"/>
      <point x="815" y="369"/>
      <point x="815" y="243"/>
      <point x="815" y="369" type="curve"/>
      <point x="562" y="279"/>
      <point x="309" y="189"/>
      <point x="56" y="99" type="curve"/>
      <point x="56" y="-27"/>
      <point x="56" y="99"/>
    </contour>
    <contour>
      <point x="44" y="507" type="curve"/>
      <point x="301" y="419"/>
      <point x="559" y="331"/>
      <point x="815" y="243" type="curve"/>
      <point x="815" y="369"/>
      <point x="815" y="243"/>
      <point x="815" y="369" type="curve"/>
      <point x="559" y="457"/>
      <point x="301" y="545"/>
      <point x="44" y="633" type="curve"/>
      <point x="44" y="507"/>
      <point x="44" y="633"/>
    </contour>
  </outline>
</glyph>
<glyph name="question" format="1">
  <advance width="629"/>
  <unicode hex="003F"/>
  <outline>
    <contour>
      <point x="212" y="383" type="curve"/>
      <point x="212" y="346"/>
      <point x="212" y="258"/>
      <point x="212" y="221" type="curve"/>
      <point x="366" y="221"/>
      <point x="212" y="221"/>
      <point x="366" y="221" type="curve"/>
      <point x="366" y="258"/>
      <point x="366" y="346"/>
      <point x="366" y="383" type="curve"/>
      <point x="212" y="383"/>
      <point x="366" y="383"/>
    </contour>
    <contour>
      <point x="116" y="563" type="line"/>
      <point x="156" y="602"/>
      <point x="221" y="637"/>
      <point x="295" y="637" type="curve"/>
      <point x="383" y="637"/>
      <point x="454" y="602"/>
      <point x="454" y="519" type="curve"/>
      <point x="454" y="425"/>
      <point x="355" y="383"/>
      <point x="229" y="383" type="curve"/>
      <point x="229" y="341"/>
      <point x="229" y="311"/>
      <point x="229" y="269" type="curve"/>
      <point x="440" y="269"/>
      <point x="602" y="350"/>
      <point x="602" y="519" type="curve"/>
      <point x="602" y="677"/>
      <point x="472" y="756"/>
      <point x="303" y="756" type="curve"/>
      <point x="195" y="756"/>
      <point x="111" y="722"/>
      <point x="36" y="650" type="curve"/>
    </contour>
    <contour>
      <point x="382" y="22" type="curve"/>
      <point x="382" y="73"/>
      <point x="343" y="97"/>
      <point x="290" y="97" type="curve"/>
      <point x="237" y="97"/>
      <point x="200" y="70"/>
      <point x="200" y="22" type="curve"/>
      <point x="382" y="22"/>
      <point x="200" y="22"/>
      <point x="382" y="22" type="curve"/>
      <point x="382" y="-30"/>
      <point x="343" y="-51"/>
      <point x="289" y="-51" type="curve"/>
      <point x="236" y="-51"/>
      <point x="200" y="-27"/>
      <point x="200" y="22" type="curve"/>
      <point x="382" y="22"/>
      <point x="200" y="22"/>
    </contour>
  </outline>
</glyph>
<glyph name="at" format="1">
  <advance width="1036"/>
  <unicode hex="0040"/>
  <outline>
    <contour>
      <point x="712" y="4" type="curve"/>
      <point x="647" y="-17"/>
      <point x="600" y="-26"/>
      <point x="536" y="-26" type="curve"/>
      <point x="334" y="-26"/>
      <point x="182" y="35"/>
      <point x="182" y="215" type="curve"/>
      <point x="182" y="390"/>
      <point x="332" y="444"/>
      <point x="528" y="444" type="curve"/>
      <point x="713" y="444"/>
      <point x="851" y="382"/>
      <point x="851" y="215" type="curve"/>
      <point x="851" y="169"/>
      <point x="847" y="131"/>
      <point x="810" y="131" type="curve"/>
      <point x="769" y="131"/>
      <point x="755" y="169"/>
      <point x="755" y="220" type="curve"/>
      <point x="755" y="350"/>
      <point x="658" y="414"/>
      <point x="519" y="414" type="curve"/>
      <point x="364" y="414"/>
      <point x="257" y="355"/>
      <point x="257" y="215" type="curve"/>
      <point x="257" y="77"/>
      <point x="355" y="10"/>
      <point x="501" y="10" type="curve"/>
      <point x="627" y="10"/>
      <point x="704" y="75"/>
      <point x="732" y="198" type="curve"/>
      <point x="633" y="222"/>
      <point x="732" y="198"/>
      <point x="633" y="222" type="curve"/>
      <point x="613" y="161"/>
      <point x="583" y="124"/>
      <point x="522" y="124" type="curve"/>
      <point x="452" y="124"/>
      <point x="405" y="155"/>
      <point x="405" y="221" type="curve"/>
      <point x="405" y="277"/>
      <point x="446" y="300"/>
      <point x="505" y="300" type="curve"/>
      <point x="569" y="300"/>
      <point x="613" y="274"/>
      <point x="613" y="214" type="curve"/>
      <point x="613" y="96"/>
      <point x="680" y="23"/>
      <point x="798" y="23" type="curve"/>
      <point x="924" y="23"/>
      <point x="998" y="96"/>
      <point x="998" y="220" type="curve"/>
      <point x="998" y="464"/>
      <point x="802" y="564"/>
      <point x="535" y="564" type="curve"/>
      <point x="248" y="564"/>
      <point x="35" y="469"/>
      <point x="35" y="209" type="curve"/>
      <point x="35" y="-46"/>
      <point x="245" y="-141"/>
      <point x="529" y="-141" type="curve"/>
      <point x="623" y="-141"/>
      <point x="701" y="-120"/>
      <point x="764" y="-92" type="curve"/>
      <point x="712" y="4"/>
      <point x="764" y="-92"/>
    </contour>
  </outline>
</glyph>
<glyph name="B" format="1">
  <advance width="753"/>
  <unicode hex="0042"/>
  <outline>
    <contour>
      <point x="133" y="608" type="curve"/>
      <point x="221" y="608"/>
      <point x="309" y="608"/>
      <point x="399" y="608" type="curve"/>
      <point x="459" y="608"/>
      <point x="506" y="586"/>
      <point x="506" y="529" type="curve"/>
      <point x="506" y="473"/>
      <point x="442" y="461"/>
      <point x="379" y="461" type="curve"/>
      <point x="297" y="461"/>
      <point x="215" y="461"/>
      <point x="133" y="461" type="curve"/>
      <point x="133" y="353"/>
      <point x="133" y="454"/>
      <point x="133" y="346" type="curve"/>
      <point x="189" y="346"/>
      <point x="246" y="346"/>
      <point x="304" y="346" type="curve"/>
      <point x="437" y="346"/>
      <point x="663" y="371"/>
      <point x="663" y="529" type="curve"/>
      <point x="663" y="666"/>
      <point x="550" y="722"/>
      <point x="400" y="722" type="curve"/>
      <point x="310" y="722"/>
      <point x="222" y="722"/>
      <point x="133" y="722" type="curve"/>
      <point x="133" y="614"/>
      <point x="133" y="715"/>
    </contour>
    <contour>
      <point x="229" y="0" type="curve"/>
      <point x="229" y="241"/>
      <point x="229" y="481"/>
      <point x="229" y="722" type="curve"/>
      <point x="65" y="722"/>
      <point x="229" y="722"/>
      <point x="65" y="722" type="curve"/>
      <point x="65" y="481"/>
      <point x="65" y="241"/>
      <point x="65" y="0" type="curve"/>
      <point x="229" y="0"/>
      <point x="65" y="0"/>
    </contour>
    <contour>
      <point x="133" y="346" type="curve"/>
      <point x="215" y="346"/>
      <point x="297" y="346"/>
      <point x="379" y="346" type="curve"/>
      <point x="480" y="346"/>
      <point x="565" y="318"/>
      <point x="565" y="226" type="curve"/>
      <point x="565" y="141"/>
      <point x="493" y="114"/>
      <point x="397" y="114" type="curve"/>
      <point x="308" y="114"/>
      <point x="221" y="114"/>
      <point x="133" y="114" type="curve"/>
      <point x="133" y="7"/>
      <point x="133" y="108"/>
      <point x="133" y="0" type="curve"/>
      <point x="221" y="0"/>
      <point x="308" y="0"/>
      <point x="398" y="0" type="curve"/>
      <point x="584" y="0"/>
      <point x="721" y="60"/>
      <point x="721" y="225" type="curve"/>
      <point x="721" y="423"/>
      <point x="472" y="461"/>
      <point x="304" y="461" type="curve"/>
      <point x="246" y="461"/>
      <point x="189" y="461"/>
      <point x="133" y="461" type="curve"/>
      <point x="133" y="353"/>
      <point x="133" y="454"/>
    </contour>
  </outline>
</glyph>
<glyph name="C" format="1">
  <advance width="825"/>
  <unicode hex="0043"/>
  <outline>
    <contour>
      <point x="817" y="654" type="curve"/>
      <point x="720" y="696"/>
      <point x="618" y="727"/>
      <point x="504" y="727" type="curve"/>
      <point x="229" y="727"/>
      <point x="37" y="604"/>
      <point x="37" y="344" type="curve"/>
      <point x="37" y="104"/>
      <point x="216" y="-5"/>
      <point x="472" y="-5" type="curve"/>
      <point x="621" y="-5"/>
      <point x="713" y="23"/>
      <point x="818" y="88" type="curve"/>
      <point x="758" y="188"/>
      <point x="817" y="88"/>
      <point x="757" y="188" type="curve"/>
      <point x="656" y="133"/>
      <point x="583" y="116"/>
      <point x="478" y="116" type="curve"/>
      <point x="309" y="116"/>
      <point x="193" y="191"/>
      <point x="193" y="350" type="curve"/>
      <point x="193" y="522"/>
      <point x="316" y="608"/>
      <point x="496" y="608" type="curve"/>
      <point x="582" y="608"/>
      <point x="660" y="595"/>
      <point x="755" y="555" type="curve"/>
      <point x="817" y="654"/>
      <point x="755" y="555"/>
    </contour>
    <contour>
      <point x="490" y="781" type="move" name="top"/>
    </contour>
    <contour>
      <point x="510" y="6" type="move" name="bottom"/>
    </contour>
  </outline>
</glyph>
<glyph name="D" format="1">
  <advance width="887"/>
  <unicode hex="0044"/>
  <outline>
    <contour>
      <point x="65" y="722" type="curve"/>
      <point x="65" y="481"/>
      <point x="65" y="241"/>
      <point x="65" y="0" type="curve"/>
      <point x="221" y="0"/>
      <point x="65" y="0"/>
      <point x="221" y="0" type="curve"/>
      <point x="221" y="241"/>
      <point x="221" y="481"/>
      <point x="221" y="722" type="curve"/>
      <point x="65" y="722"/>
      <point x="221" y="722"/>
    </contour>
    <contour>
      <point x="146" y="0" type="curve"/>
      <point x="226" y="0"/>
      <point x="308" y="0"/>
      <point x="389" y="0" type="curve"/>
      <point x="669" y="0"/>
      <point x="850" y="96"/>
      <point x="850" y="354" type="curve"/>
      <point x="850" y="619"/>
      <point x="667" y="722"/>
      <point x="382" y="722" type="curve"/>
      <point x="303" y="722"/>
      <point x="225" y="722"/>
      <point x="146" y="722" type="curve"/>
      <point x="146" y="608"/>
      <point x="146" y="722"/>
      <point x="146" y="608" type="curve"/>
      <point x="222" y="608"/>
      <point x="298" y="608"/>
      <point x="374" y="608" type="curve"/>
      <point x="571" y="608"/>
      <point x="696" y="533"/>
      <point x="696" y="349" type="curve"/>
      <point x="696" y="182"/>
      <point x="581" y="114"/>
      <point x="401" y="114" type="curve"/>
      <point x="316" y="114"/>
      <point x="231" y="114"/>
      <point x="146" y="114" type="curve"/>
      <point x="146" y="0"/>
      <point x="146" y="114"/>
    </contour>
    <contour>
      <point x="374" y="781" type="move" name="top"/>
    </contour>
  </outline>
</glyph>
<glyph name="F" format="1">
  <advance width="662"/>
  <unicode hex="0046"/>
  <outline>
    <contour>
      <point x="149" y="315" type="curve"/>
      <point x="282" y="315"/>
      <point x="416" y="315"/>
      <point x="549" y="315" type="curve"/>
      <point x="549" y="430"/>
      <point x="549" y="315"/>
      <point x="549" y="430" type="curve"/>
      <point x="416" y="430"/>
      <point x="282" y="430"/>
      <point x="149" y="430" type="curve"/>
      <point x="149" y="315"/>
      <point x="149" y="430"/>
    </contour>
    <contour>
      <point x="222" y="0" type="curve"/>
      <point x="222" y="722" type="line"/>
      <point x="65" y="722"/>
      <point x="222" y="722"/>
      <point x="65" y="722" type="curve"/>
      <point x="65" y="481"/>
      <point x="65" y="241"/>
      <point x="65" y="0" type="curve"/>
      <point x="222" y="0"/>
      <point x="65" y="0"/>
    </contour>
    <contour>
      <point x="130" y="608" type="curve"/>
      <point x="300" y="608"/>
      <point x="470" y="608"/>
      <point x="641" y="608" type="curve"/>
      <point x="641" y="722"/>
      <point x="641" y="608"/>
      <point x="641" y="722" type="curve"/>
      <point x="470" y="722"/>
      <point x="300" y="722"/>
      <point x="130" y="722" type="curve"/>
      <point x="130" y="608"/>
      <point x="130" y="722"/>
    </contour>
  </outline>
</glyph>
<glyph name="G" format="1">
  <advance width="949"/>
  <unicode hex="0047"/>
  <outline>
    <contour>
      <point x="864" y="373" type="curve"/>
      <point x="773" y="373"/>
      <point x="681" y="373"/>
      <point x="590" y="373" type="curve"/>
      <point x="590" y="258"/>
      <point x="590" y="373"/>
      <point x="590" y="258" type="curve"/>
      <point x="681" y="258"/>
      <point x="773" y="258"/>
      <point x="864" y="258" type="curve"/>
      <point x="864" y="373"/>
      <point x="864" y="258"/>
    </contour>
    <contour>
      <point x="906" y="79" type="curve"/>
      <point x="906" y="177"/>
      <point x="906" y="274"/>
      <point x="906" y="373" type="curve"/>
      <point x="764" y="373"/>
      <point x="906" y="373"/>
      <point x="764" y="373" type="curve"/>
      <point x="764" y="274"/>
      <point x="764" y="177"/>
      <point x="764" y="79" type="curve"/>
      <point x="906" y="79"/>
      <point x="764" y="79"/>
    </contour>
    <contour>
      <point x="884" y="646" type="curve"/>
      <point x="757" y="704"/>
      <point x="648" y="727"/>
      <point x="509" y="727" type="curve"/>
      <point x="232" y="727"/>
      <point x="35" y="617"/>
      <point x="35" y="359" type="curve"/>
      <point x="35" y="99"/>
      <point x="240" y="-5"/>
      <point x="522" y="-5" type="curve"/>
      <point x="672" y="-5"/>
      <point x="768" y="23"/>
      <point x="906" y="79" type="curve"/>
      <point x="828" y="164"/>
      <point x="906" y="79"/>
      <point x="828" y="164" type="curve"/>
      <point x="720" y="121"/>
      <point x="638" y="114"/>
      <point x="522" y="114" type="curve"/>
      <point x="328" y="114"/>
      <point x="192" y="190"/>
      <point x="192" y="371" type="curve"/>
      <point x="192" y="540"/>
      <point x="325" y="608"/>
      <point x="509" y="608" type="curve"/>
      <point x="618" y="608"/>
      <point x="706" y="594"/>
      <point x="822" y="543" type="curve"/>
      <point x="884" y="646"/>
      <point x="822" y="543"/>
    </contour>
    <contour>
      <point x="509" y="781" type="move" name="top"/>
    </contour>
    <contour>
      <point x="572" y="14" type="move" name="bottom"/>
    </contour>
  </outline>
</glyph>
<glyph name="H" format="1">
  <advance width="915"/>
  <unicode hex="0048"/>
  <outline>
    <contour>
      <point x="222" y="0" type="curve"/>
      <point x="222" y="722" type="line"/>
      <point x="65" y="722"/>
      <point x="222" y="722"/>
      <point x="65" y="722" type="curve"/>
      <point x="65" y="481"/>
      <point x="65" y="241"/>
      <point x="65" y="0" type="curve"/>
      <point x="222" y="0"/>
      <point x="65" y="0"/>
    </contour>
    <contour>
      <point x="769" y="420" type="curve"/>
      <point x="560" y="420"/>
      <point x="352" y="420"/>
      <point x="143" y="420" type="curve"/>
      <point x="143" y="305"/>
      <point x="143" y="420"/>
      <point x="143" y="305" type="curve"/>
      <point x="352" y="305"/>
      <point x="560" y="305"/>
      <point x="769" y="305" type="curve"/>
      <point x="769" y="420"/>
      <point x="769" y="305"/>
    </contour>
    <contour>
      <point x="850" y="0" type="curve"/>
      <point x="850" y="208"/>
      <point x="850" y="514"/>
      <point x="850" y="722" type="curve"/>
      <point x="694" y="722"/>
      <point x="850" y="722"/>
      <point x="694" y="722" type="curve"/>
      <point x="694" y="0" type="line"/>
      <point x="850" y="0"/>
      <point x="694" y="0"/>
    </contour>
  </outline>
</glyph>
<glyph name="J" format="1">
  <advance width="528"/>
  <unicode hex="004A"/>
  <outline>
    <contour>
      <point x="-2" y="45" type="curve"/>
      <point x="40" y="22"/>
      <point x="101" y="-5"/>
      <point x="173" y="-5" type="curve"/>
      <point x="351" y="-5"/>
      <point x="467" y="73"/>
      <point x="467" y="246" type="curve"/>
      <point x="467" y="404"/>
      <point x="467" y="565"/>
      <point x="467" y="722" type="curve"/>
      <point x="311" y="722"/>
      <point x="467" y="722"/>
      <point x="311" y="722" type="curve"/>
      <point x="311" y="565"/>
      <point x="311" y="404"/>
      <point x="311" y="246" type="curve"/>
      <point x="311" y="160"/>
      <point x="260" y="109"/>
      <point x="173" y="109" type="curve"/>
      <point x="132" y="109"/>
      <point x="105" y="120"/>
      <point x="69" y="136" type="curve"/>
      <point x="-2" y="45"/>
      <point x="69" y="136"/>
    </contour>
  </outline>
</glyph>
<glyph name="K" format="1">
  <advance width="830"/>
  <unicode hex="004B"/>
  <outline>
    <contour>
      <point x="581" y="722" type="curve"/>
      <point x="169" y="380" type="line"/>
      <point x="366" y="380"/>
      <point x="166" y="380"/>
      <point x="363" y="380" type="curve"/>
      <point x="787" y="722" type="line"/>
      <point x="565" y="722"/>
      <point x="803" y="722"/>
    </contour>
    <contour>
      <point x="221" y="0" type="curve"/>
      <point x="221" y="722" type="line"/>
      <point x="65" y="722"/>
      <point x="221" y="722"/>
      <point x="65" y="722" type="curve"/>
      <point x="65" y="481"/>
      <point x="65" y="241"/>
      <point x="65" y="0" type="curve"/>
      <point x="221" y="0"/>
      <point x="65" y="0"/>
    </contour>
    <contour>
      <point x="820" y="0" type="curve"/>
      <point x="363" y="380" type="line"/>
      <point x="166" y="380"/>
      <point x="366" y="380"/>
      <point x="169" y="380" type="curve"/>
      <point x="607" y="0" type="line"/>
      <point x="838" y="0"/>
      <point x="589" y="0"/>
    </contour>
    <contour>
      <point x="434" y="5" type="move" name="bottom"/>
    </contour>
  </outline>
</glyph>
<glyph name="L" format="1">
  <advance width="679"/>
  <unicode hex="004C"/>
  <outline>
    <contour>
      <point x="221" y="0" type="curve"/>
      <point x="221" y="241"/>
      <point x="221" y="481"/>
      <point x="221" y="722" type="curve"/>
      <point x="65" y="722"/>
      <point x="221" y="722"/>
      <point x="65" y="722" type="curve"/>
      <point x="65" y="481"/>
      <point x="65" y="241"/>
      <point x="65" y="0" type="curve"/>
      <point x="221" y="0"/>
      <point x="65" y="0"/>
    </contour>
    <contour>
      <point x="142" y="0" type="curve"/>
      <point x="317" y="0"/>
      <point x="492" y="0"/>
      <point x="667" y="0" type="curve"/>
      <point x="667" y="114"/>
      <point x="667" y="0"/>
      <point x="667" y="114" type="curve"/>
      <point x="492" y="114"/>
      <point x="317" y="114"/>
      <point x="142" y="114" type="curve"/>
      <point x="142" y="0"/>
      <point x="142" y="114"/>
    </contour>
    <contour>
      <point x="142" y="781" type="move" name="top"/>
    </contour>
    <contour>
      <point x="368" y="7" type="move" name="bottom"/>
    </contour>
  </outline>
</glyph>
<glyph name="M" format="1">
  <advance width="1102"/>
  <unicode hex="004D"/>
  <outline>
    <contour>
      <point x="1060" y="0" type="curve"/>
      <point x="1034" y="241"/>
      <point x="1002" y="481"/>
      <point x="976" y="722" type="curve"/>
      <point x="835" y="722"/>
      <point x="976" y="722"/>
      <point x="835" y="722" type="curve"/>
      <point x="859" y="482"/>
      <point x="878" y="240"/>
      <point x="903" y="0" type="curve"/>
      <point x="1060" y="0"/>
      <point x="903" y="0"/>
    </contour>
    <contour>
      <point x="199" y="0" type="curve"/>
      <point x="223" y="241"/>
      <point x="246" y="481"/>
      <point x="270" y="722" type="curve"/>
      <point x="119" y="722"/>
      <point x="270" y="722"/>
      <point x="119" y="722" type="curve"/>
      <point x="94" y="481"/>
      <point x="70" y="241"/>
      <point x="45" y="0" type="curve"/>
      <point x="199" y="0"/>
      <point x="45" y="0"/>
    </contour>
    <contour>
      <point x="624" y="0" type="curve"/>
      <point x="507" y="241"/>
      <point x="390" y="481"/>
      <point x="273" y="722" type="curve"/>
      <point x="121" y="722"/>
      <point x="273" y="722"/>
      <point x="121" y="722" type="curve"/>
      <point x="238" y="481"/>
      <point x="354" y="241"/>
      <point x="470" y="0" type="curve"/>
      <point x="624" y="0"/>
      <point x="470" y="0"/>
    </contour>
    <contour>
      <point x="635" y="0" type="curve"/>
      <point x="749" y="241"/>
      <point x="864" y="481"/>
      <point x="978" y="722" type="curve"/>
      <point x="826" y="722"/>
      <point x="978" y="722"/>
      <point x="826" y="722" type="curve"/>
      <point x="711" y="481"/>
      <point x="595" y="241"/>
      <point x="480" y="0" type="curve"/>
      <point x="635" y="0"/>
      <point x="480" y="0"/>
    </contour>
  </outline>
</glyph>
<glyph name="N" format="1">
  <advance width="980"/>
  <unicode hex="004E"/>
  <outline>
    <contour>
      <point x="911" y="0" type="curve"/>
      <point x="691" y="239"/>
      <point x="475" y="483"/>
      <point x="254" y="722" type="curve"/>
      <point x="65" y="722"/>
      <point x="254" y="722"/>
      <point x="65" y="722" type="curve"/>
      <point x="285" y="483"/>
      <point x="502" y="239"/>
      <point x="723" y="0" type="curve"/>
      <point x="911" y="0"/>
      <point x="723" y="0"/>
    </contour>
    <contour>
      <point x="760" y="722" type="curve"/>
      <point x="760" y="481"/>
      <point x="760" y="241"/>
      <point x="760" y="0" type="curve"/>
      <point x="916" y="0"/>
      <point x="760" y="0"/>
      <point x="916" y="0" type="curve"/>
      <point x="916" y="241"/>
      <point x="916" y="481"/>
      <point x="916" y="722" type="curve"/>
      <point x="760" y="722"/>
      <point x="916" y="722"/>
    </contour>
    <contour>
      <point x="221" y="0" type="curve"/>
      <point x="221" y="241"/>
      <point x="221" y="481"/>
      <point x="221" y="722" type="curve"/>
      <point x="65" y="722"/>
      <point x="221" y="722"/>
      <point x="65" y="722" type="curve"/>
      <point x="65" y="481"/>
      <point x="65" y="241"/>
      <point x="65" y="0" type="curve"/>
      <point x="221" y="0"/>
      <point x="65" y="0"/>
    </contour>
    <contour>
      <point x="487" y="781" type="move" name="top"/>
    </contour>
    <contour>
      <point x="488" y="3" type="move" name="bottom"/>
    </contour>
  </outline>
</glyph>
<glyph name="O" format="1">
  <advance width="932"/>
  <unicode hex="004F"/>
  <outline>
    <contour>
      <point x="193" y="360" type="curve" name="FullCurve"/>
      <point x="193" y="517"/>
      <point x="295" y="606"/>
      <point x="459" y="606" type="curve" name="FullCurve"/>
      <point x="627" y="606"/>
      <point x="739" y="522"/>
      <point x="739" y="363" type="curve" name="FullCurve"/>
      <point x="739" y="206"/>
      <point x="635" y="117"/>
      <point x="470" y="117" type="curve" name="FullCurve"/>
      <point x="301" y="117"/>
      <point x="193" y="201"/>
      <point x="193" y="360" type="curve" name="FullCurve"/>
      <point x="36" y="360"/>
      <point x="193" y="360"/>
      <point x="36" y="360" type="curve" name="FullCurve"/>
      <point x="36" y="121"/>
      <point x="210" y="-5"/>
      <point x="463" y="-5" type="curve" name="FullCurve"/>
      <point x="719" y="-5"/>
      <point x="895" y="122"/>
      <point x="895" y="363" type="curve" name="FullCurve"/>
      <point x="895" y="600"/>
      <point x="723" y="727"/>
      <point x="471" y="727" type="curve" name="FullCurve"/>
      <point x="214" y="727"/>
      <point x="36" y="601"/>
      <point x="36" y="360" type="curve" name="FullCurve"/>
      <point x="193" y="360"/>
      <point x="36" y="360"/>
    </contour>
    <contour>
      <point x="471" y="781" type="move" name="top"/>
    </contour>
  </outline>
</glyph>
<glyph name="P" format="1">
  <advance width="696"/>
  <unicode hex="0050"/>
  <outline>
    <contour>
      <point x="122" y="289" type="curve"/>
      <point x="193" y="262"/>
      <point x="283" y="244"/>
      <point x="361" y="244" type="curve"/>
      <point x="547" y="247"/>
      <point x="673" y="311"/>
      <point x="673" y="482" type="curve"/>
      <point x="673" y="654"/>
      <point x="512" y="722"/>
      <point x="317" y="722" type="curve"/>
      <point x="260" y="722"/>
      <point x="204" y="722"/>
      <point x="148" y="722" type="curve"/>
      <point x="148" y="608"/>
      <point x="148" y="722"/>
      <point x="148" y="608" type="curve"/>
      <point x="197" y="608"/>
      <point x="246" y="608"/>
      <point x="295" y="608" type="curve"/>
      <point x="415" y="608"/>
      <point x="518" y="581"/>
      <point x="518" y="485" type="curve"/>
      <point x="518" y="392"/>
      <point x="439" y="358"/>
      <point x="345" y="358" type="curve"/>
      <point x="280" y="358"/>
      <point x="232" y="369"/>
      <point x="171" y="391" type="curve"/>
      <point x="122" y="289"/>
      <point x="171" y="391"/>
    </contour>
    <contour>
      <point x="221" y="0" type="curve"/>
      <point x="221" y="241"/>
      <point x="221" y="481"/>
      <point x="221" y="722" type="curve"/>
      <point x="65" y="722"/>
      <point x="221" y="722"/>
      <point x="65" y="722" type="curve"/>
      <point x="65" y="481"/>
      <point x="65" y="241"/>
      <point x="65" y="0" type="curve"/>
      <point x="221" y="0"/>
      <point x="65" y="0"/>
    </contour>
  </outline>
</glyph>
<glyph name="Q" format="1">
  <advance width="983"/>
  <unicode hex="0051"/>
  <outline>
    <contour>
      <point x="410" y="27" type="curve"/>
      <point x="566" y="-170"/>
      <point x="725" y="-210"/>
      <point x="962" y="-210" type="curve"/>
      <point x="962" y="-90"/>
      <point x="962" y="-210"/>
      <point x="962" y="-90" type="curve"/>
      <point x="785" y="-90"/>
      <point x="664" y="-65"/>
      <point x="545" y="85" type="curve"/>
      <point x="410" y="27"/>
      <point x="545" y="85"/>
    </contour>
    <contour>
      <point x="192" y="360" type="curve"/>
      <point x="192" y="517"/>
      <point x="307" y="603"/>
      <point x="466" y="603" type="curve"/>
      <point x="630" y="603"/>
      <point x="742" y="520"/>
      <point x="742" y="360" type="curve"/>
      <point x="742" y="202"/>
      <point x="631" y="114"/>
      <point x="473" y="114" type="curve"/>
      <point x="308" y="114"/>
      <point x="192" y="200"/>
      <point x="192" y="360" type="curve"/>
      <point x="37" y="360"/>
      <point x="192" y="360"/>
      <point x="37" y="360" type="curve"/>
      <point x="37" y="121"/>
      <point x="218" y="-5"/>
      <point x="465" y="-5" type="curve"/>
      <point x="716" y="-5"/>
      <point x="897" y="124"/>
      <point x="897" y="366" type="curve"/>
      <point x="897" y="605"/>
      <point x="721" y="732"/>
      <point x="474" y="732" type="curve"/>
      <point x="221" y="732"/>
      <point x="37" y="603"/>
      <point x="37" y="360" type="curve"/>
      <point x="192" y="360"/>
      <point x="37" y="360"/>
    </contour>
  </outline>
</glyph>
<glyph name="R" format="1">
  <advance width="812"/>
  <unicode hex="0052"/>
  <outline>
    <contour>
      <point x="306" y="354" type="curve"/>
      <point x="410" y="238"/>
      <point x="520" y="116"/>
      <point x="624" y="0" type="curve"/>
      <point x="782" y="0"/>
      <point x="652" y="0"/>
      <point x="810" y="0" type="curve"/>
      <point x="716" y="105"/>
      <point x="589" y="249"/>
      <point x="495" y="354" type="curve"/>
      <point x="306" y="354"/>
      <point x="494" y="354"/>
    </contour>
    <contour>
      <point x="221" y="0" type="curve"/>
      <point x="221" y="241"/>
      <point x="221" y="481"/>
      <point x="221" y="722" type="curve"/>
      <point x="65" y="722"/>
      <point x="221" y="722"/>
      <point x="65" y="722" type="curve"/>
      <point x="65" y="481"/>
      <point x="65" y="241"/>
      <point x="65" y="0" type="curve"/>
      <point x="221" y="0"/>
      <point x="65" y="0"/>
    </contour>
    <contour>
      <point x="146" y="295" type="curve"/>
      <point x="214" y="295"/>
      <point x="282" y="295"/>
      <point x="351" y="295" type="curve"/>
      <point x="545" y="295"/>
      <point x="693" y="346"/>
      <point x="693" y="518" type="curve"/>
      <point x="693" y="677"/>
      <point x="557" y="722"/>
      <point x="379" y="722" type="curve"/>
      <point x="301" y="722"/>
      <point x="224" y="722"/>
      <point x="146" y="722" type="curve"/>
      <point x="146" y="608"/>
      <point x="146" y="722"/>
      <point x="146" y="608" type="curve"/>
      <point x="214" y="608"/>
      <point x="282" y="608"/>
      <point x="351" y="608" type="curve"/>
      <point x="454" y="608"/>
      <point x="537" y="596"/>
      <point x="537" y="507" type="curve"/>
      <point x="537" y="425"/>
      <point x="463" y="410"/>
      <point x="369" y="410" type="curve"/>
      <point x="294" y="410"/>
      <point x="220" y="410"/>
      <point x="146" y="410" type="curve"/>
      <point x="146" y="295"/>
      <point x="146" y="410"/>
    </contour>
    <contour>
      <point x="326" y="781" type="move" name="top"/>
    </contour>
    <contour>
      <point x="413" y="2" type="move" name="bottom"/>
    </contour>
  </outline>
</glyph>
<glyph name="T" format="1">
  <advance width="796"/>
  <unicode hex="0054"/>
  <outline>
    <contour>
      <point x="476" y="0" type="curve"/>
      <point x="476" y="237"/>
      <point x="476" y="473"/>
      <point x="476" y="710" type="curve"/>
      <point x="320" y="710"/>
      <point x="476" y="710"/>
      <point x="320" y="710" type="curve"/>
      <point x="320" y="473"/>
      <point x="320" y="237"/>
      <point x="320" y="0" type="curve"/>
      <point x="476" y="0"/>
      <point x="320" y="0"/>
    </contour>
    <contour>
      <point x="12" y="601" type="curve"/>
      <point x="269" y="601"/>
      <point x="527" y="601"/>
      <point x="784" y="601" type="curve"/>
      <point x="784" y="727"/>
      <point x="784" y="596"/>
      <point x="784" y="722" type="curve"/>
      <point x="527" y="722"/>
      <point x="269" y="722"/>
      <point x="12" y="722" type="curve"/>
      <point x="12" y="596"/>
      <point x="12" y="727"/>
    </contour>
    <contour>
      <point x="394" y="781" type="move" name="top"/>
    </contour>
    <contour>
      <point x="440" y="5" type="move" name="bottom"/>
    </contour>
  </outline>
</glyph>
<glyph name="V" format="1">
  <advance width="872"/>
  <unicode hex="0056"/>
  <outline>
    <contour>
      <point x="709" y="722" type="curve"/>
      <point x="593" y="481"/>
      <point x="479" y="241"/>
      <point x="364" y="0" type="curve"/>
      <point x="523" y="0"/>
      <point x="363" y="0"/>
      <point x="521" y="0" type="curve"/>
      <point x="636" y="241"/>
      <point x="751" y="481"/>
      <point x="867" y="722" type="curve"/>
      <point x="709" y="722"/>
      <point x="867" y="722"/>
    </contour>
    <contour>
      <point x="3" y="722" type="curve"/>
      <point x="120" y="481"/>
      <point x="238" y="241"/>
      <point x="355" y="0" type="curve"/>
      <point x="513" y="0"/>
      <point x="354" y="0"/>
      <point x="512" y="0" type="curve"/>
      <point x="396" y="241"/>
      <point x="279" y="481"/>
      <point x="163" y="722" type="curve"/>
      <point x="3" y="722"/>
      <point x="163" y="722"/>
    </contour>
  </outline>
</glyph>
<glyph name="W" format="1">
  <advance width="1142"/>
  <unicode hex="0057"/>
  <outline>
    <contour>
      <point x="403" y="0" type="curve"/>
      <point x="485" y="241"/>
      <point x="564" y="481"/>
      <point x="648" y="722" type="curve"/>
      <point x="494" y="722"/>
      <point x="652" y="722"/>
      <point x="499" y="722" type="curve"/>
      <point x="422" y="480"/>
      <point x="346" y="241"/>
      <point x="268" y="0" type="curve"/>
      <point x="417" y="0"/>
      <point x="254" y="0"/>
    </contour>
    <contour>
      <point x="516" y="722" type="curve"/>
      <point x="591" y="481"/>
      <point x="658" y="241"/>
      <point x="733" y="0" type="curve"/>
      <point x="881" y="0"/>
      <point x="718" y="0"/>
      <point x="866" y="0" type="curve"/>
      <point x="799" y="241"/>
      <point x="733" y="480"/>
      <point x="661" y="722" type="curve"/>
      <point x="508" y="722"/>
      <point x="669" y="722"/>
    </contour>
    <contour>
      <point x="21" y="722" type="curve"/>
      <point x="96" y="481"/>
      <point x="172" y="241"/>
      <point x="247" y="0" type="curve"/>
      <point x="395" y="0"/>
      <point x="239" y="0"/>
      <point x="387" y="0" type="curve"/>
      <point x="314" y="241"/>
      <point x="249" y="481"/>
      <point x="176" y="722" type="curve"/>
      <point x="21" y="722"/>
      <point x="176" y="722"/>
    </contour>
    <contour>
      <point x="969" y="722" type="curve"/>
      <point x="895" y="481"/>
      <point x="826" y="241"/>
      <point x="753" y="0" type="curve"/>
      <point x="902" y="0"/>
      <point x="740" y="0"/>
      <point x="889" y="0" type="curve"/>
      <point x="967" y="241"/>
      <point x="1045" y="481"/>
      <point x="1124" y="722" type="curve"/>
      <point x="969" y="722"/>
      <point x="1124" y="722"/>
    </contour>
  </outline>
</glyph>
<glyph name="X" format="1">
  <advance width="843"/>
  <unicode hex="0058"/>
  <outline>
    <contour>
      <point x="637" y="722" type="curve"/>
      <point x="442" y="495"/>
      <point x="199" y="227"/>
      <point x="4" y="0" type="curve"/>
      <point x="156" y="0"/>
      <point x="47" y="0"/>
      <point x="199" y="0" type="curve"/>
      <point x="394" y="227"/>
      <point x="625" y="494"/>
      <point x="819" y="721" type="curve"/>
      <point x="677" y="721"/>
      <point x="779" y="722"/>
    </contour>
    <contour>
      <point x="48" y="722" type="curve"/>
      <point x="240" y="495"/>
      <point x="462" y="227"/>
      <point x="654" y="0" type="curve"/>
      <point x="809" y="0"/>
      <point x="682" y="0"/>
      <point x="837" y="0" type="curve"/>
      <point x="640" y="231"/>
      <point x="415" y="491"/>
      <point x="219" y="722" type="curve"/>
      <point x="81" y="722"/>
      <point x="185" y="722"/>
    </contour>
  </outline>
</glyph>
<glyph name="Z" format="1">
  <advance width="820"/>
  <unicode hex="005A"/>
  <outline>
    <contour>
      <point x="67" y="608" type="curve"/>
      <point x="266" y="608"/>
      <point x="520" y="608"/>
      <point x="718" y="608" type="curve"/>
      <point x="707" y="621"/>
      <point x="684" y="615"/>
      <point x="673" y="627" type="curve"/>
      <point x="665" y="640"/>
      <point x="660" y="654"/>
      <point x="652" y="665" type="curve"/>
      <point x="644" y="656"/>
      <point x="627" y="665"/>
      <point x="618" y="656" type="curve"/>
      <point x="24" y="114" type="line"/>
      <point x="24" y="57"/>
      <point x="24" y="114"/>
      <point x="24" y="57" type="curve"/>
      <point x="24" y="0"/>
      <point x="24" y="57"/>
      <point x="24" y="0" type="curve"/>
      <point x="79" y="0"/>
      <point x="24" y="0"/>
      <point x="79" y="0" type="curve"/>
      <point x="792" y="0"/>
      <point x="557" y="0"/>
      <point x="795" y="0" type="curve"/>
      <point x="795" y="114"/>
      <point x="795" y="0"/>
      <point x="795" y="114" type="curve"/>
      <point x="557" y="114"/>
      <point x="317" y="114"/>
      <point x="79" y="114" type="curve"/>
      <point x="91" y="106"/>
      <point x="108" y="106"/>
      <point x="119" y="98" type="curve"/>
      <point x="129" y="85"/>
      <point x="135" y="69"/>
      <point x="144" y="57" type="curve"/>
      <point x="158" y="68"/>
      <point x="183" y="54"/>
      <point x="196" y="66" type="curve"/>
      <point x="789" y="608" type="line"/>
      <point x="789" y="665"/>
      <point x="789" y="608"/>
      <point x="789" y="665" type="curve"/>
      <point x="789" y="722"/>
      <point x="789" y="665"/>
      <point x="789" y="722" type="curve"/>
      <point x="701" y="722"/>
      <point x="789" y="722"/>
      <point x="701" y="722" type="curve"/>
      <point x="507" y="722"/>
      <point x="260" y="722"/>
      <point x="67" y="722" type="curve"/>
      <point x="67" y="608"/>
      <point x="67" y="722"/>
    </contour>
    <contour>
      <point x="414" y="781" type="move" name="top"/>
    </contour>
  </outline>
</glyph>
<glyph name="bracketleft" format="1">
  <advance width="355"/>
  <unicode hex="005B"/>
  <outline>
    <contour>
      <point x="316" y="769" type="curve"/>
      <point x="252" y="769"/>
      <point x="188" y="769"/>
      <point x="125" y="769" type="curve"/>
      <point x="105" y="769"/>
      <point x="74" y="769"/>
      <point x="56" y="769" type="curve"/>
      <point x="56" y="753"/>
      <point x="56" y="728"/>
      <point x="56" y="711" type="curve"/>
      <point x="56" y="455"/>
      <point x="56" y="199"/>
      <point x="56" y="-57" type="curve"/>
      <point x="56" y="-73"/>
      <point x="56" y="-96"/>
      <point x="56" y="-112" type="curve"/>
      <point x="73" y="-112"/>
      <point x="103" y="-112"/>
      <point x="124" y="-112" type="curve"/>
      <point x="187" y="-112"/>
      <point x="252" y="-112"/>
      <point x="316" y="-112" type="curve"/>
      <point x="316" y="14"/>
      <point x="316" y="-112"/>
      <point x="316" y="14" type="curve"/>
      <point x="252" y="14"/>
      <point x="187" y="14"/>
      <point x="124" y="14" type="curve"/>
      <point x="211" y="14"/>
      <point x="124" y="14"/>
      <point x="211" y="14" type="curve"/>
      <point x="211" y="-57"/>
      <point x="211" y="14"/>
      <point x="211" y="-57" type="curve"/>
      <point x="211" y="199"/>
      <point x="211" y="455"/>
      <point x="211" y="711" type="curve"/>
      <point x="211" y="644"/>
      <point x="211" y="711"/>
      <point x="211" y="644" type="curve"/>
      <point x="125" y="644"/>
      <point x="211" y="644"/>
      <point x="125" y="644" type="curve"/>
      <point x="188" y="644"/>
      <point x="252" y="644"/>
      <point x="316" y="644" type="curve"/>
      <point x="316" y="769"/>
      <point x="316" y="644"/>
    </contour>
  </outline>
</glyph>
<glyph name="backslash" format="1">
  <advance width="691"/>
  <unicode hex="005C"/>
  <outline>
    <contour>
      <point x="671" y="-68" type="curve"/>
      <point x="508" y="236"/>
      <point x="345" y="540"/>
      <point x="183" y="844" type="curve"/>
      <point x="19" y="844"/>
      <point x="183" y="844"/>
      <point x="19" y="844" type="curve"/>
      <point x="182" y="540"/>
      <point x="345" y="236"/>
      <point x="508" y="-68" type="curve"/>
      <point x="671" y="-68"/>
      <point x="508" y="-68"/>
    </contour>
  </outline>
</glyph>
<glyph name="bracketright" format="1">
  <advance width="355"/>
  <unicode hex="005D"/>
  <outline>
    <contour>
      <point x="40" y="644" type="curve"/>
      <point x="103" y="644"/>
      <point x="166" y="644"/>
      <point x="230" y="644" type="curve"/>
      <point x="214" y="653"/>
      <point x="196" y="660"/>
      <point x="181" y="670" type="curve"/>
      <point x="166" y="681"/>
      <point x="158" y="700"/>
      <point x="143" y="711" type="curve"/>
      <point x="143" y="455"/>
      <point x="143" y="199"/>
      <point x="143" y="-57" type="curve"/>
      <point x="158" y="-45"/>
      <point x="170" y="-28"/>
      <point x="185" y="-16" type="curve"/>
      <point x="200" y="-5"/>
      <point x="216" y="3"/>
      <point x="231" y="14" type="curve"/>
      <point x="167" y="14"/>
      <point x="103" y="14"/>
      <point x="40" y="14" type="curve"/>
      <point x="40" y="-112"/>
      <point x="40" y="14"/>
      <point x="40" y="-112" type="curve"/>
      <point x="103" y="-112"/>
      <point x="167" y="-112"/>
      <point x="231" y="-112" type="curve"/>
      <point x="300" y="-112"/>
      <point x="231" y="-112"/>
      <point x="300" y="-112" type="curve"/>
      <point x="300" y="-57"/>
      <point x="300" y="-112"/>
      <point x="300" y="-57" type="curve"/>
      <point x="300" y="199"/>
      <point x="300" y="455"/>
      <point x="300" y="711" type="curve"/>
      <point x="300" y="769"/>
      <point x="300" y="711"/>
      <point x="300" y="769" type="curve"/>
      <point x="230" y="769"/>
      <point x="300" y="769"/>
      <point x="230" y="769" type="curve"/>
      <point x="166" y="769"/>
      <point x="103" y="769"/>
      <point x="40" y="769" type="curve"/>
      <point x="40" y="644"/>
      <point x="40" y="769"/>
    </contour>
  </outline>
</glyph>
<glyph name="asciicircum" format="1">
  <advance width="649"/>
  <unicode hex="005E"/>
  <outline>
    <contour>
      <point x="184" y="452" type="curve"/>
      <point x="256" y="552"/>
      <point x="329" y="651"/>
      <point x="401" y="751" type="curve"/>
      <point x="245" y="751"/>
      <point x="401" y="751"/>
      <point x="245" y="751" type="curve"/>
      <point x="172" y="651"/>
      <point x="101" y="552"/>
      <point x="29" y="452" type="curve"/>
      <point x="184" y="452"/>
      <point x="29" y="452"/>
    </contour>
    <contour>
      <point x="620" y="452" type="curve"/>
      <point x="548" y="552"/>
      <point x="474" y="651"/>
      <point x="401" y="751" type="curve"/>
      <point x="245" y="751"/>
      <point x="401" y="751"/>
      <point x="245" y="751" type="curve"/>
      <point x="317" y="651"/>
      <point x="392" y="552"/>
      <point x="465" y="452" type="curve"/>
      <point x="620" y="452"/>
      <point x="465" y="452"/>
    </contour>
  </outline>
</glyph>
<glyph name="underscore" format="1">
  <advance width="849"/>
  <unicode hex="005F"/>
  <outline>
    <contour>
      <point x="0" y="-182" type="curve"/>
      <point x="282" y="-182"/>
      <point x="566" y="-182"/>
      <point x="849" y="-182" type="curve"/>
      <point x="849" y="-67"/>
      <point x="849" y="-182"/>
      <point x="849" y="-67" type="curve"/>
      <point x="566" y="-67"/>
      <point x="282" y="-67"/>
      <point x="0" y="-67" type="curve"/>
      <point x="0" y="-182"/>
      <point x="0" y="-67"/>
    </contour>
  </outline>
</glyph>
<glyph name="b" format="1">
  <advance width="759"/>
  <unicode hex="0062"/>
  <outline>
    <contour>
      <point x="164" y="310" type="curve"/>
      <point x="223" y="376"/>
      <point x="287" y="419"/>
      <point x="390" y="419" type="curve"/>
      <point x="496" y="419"/>
      <point x="569" y="366"/>
      <point x="569" y="263" type="curve"/>
      <point x="571" y="162"/>
      <point x="495" y="113"/>
      <point x="390" y="114" type="curve"/>
      <point x="296" y="114"/>
      <point x="224" y="154"/>
      <point x="177" y="205" type="curve"/>
      <point x="137" y="178"/>
      <point x="125" y="169"/>
      <point x="85" y="142" type="curve"/>
      <point x="178" y="54"/>
      <point x="272" y="-5"/>
      <point x="420" y="-5" type="curve"/>
      <point x="602" y="-5"/>
      <point x="728" y="84"/>
      <point x="727" y="264" type="curve"/>
      <point x="727" y="448"/>
      <point x="601" y="539"/>
      <point x="415" y="539" type="curve"/>
      <point x="274" y="539"/>
      <point x="188" y="486"/>
      <point x="95" y="393" type="curve"/>
      <point x="128" y="360"/>
      <point x="131" y="343"/>
    </contour>
    <contour>
      <point x="211" y="0" type="curve"/>
      <point x="211" y="304"/>
      <point x="211" y="496"/>
      <point x="211" y="800" type="curve"/>
      <point x="141" y="800"/>
      <point x="123" y="800"/>
      <point x="54" y="800" type="curve"/>
      <point x="54" y="496"/>
      <point x="54" y="304"/>
      <point x="54" y="0" type="curve"/>
      <point x="123" y="0"/>
      <point x="141" y="0"/>
    </contour>
  </outline>
</glyph>
<glyph name="c" format="1">
  <advance width="642"/>
  <unicode hex="0063"/>
  <outline>
    <contour>
      <point x="628" y="469" type="curve"/>
      <point x="559" y="511"/>
      <point x="472" y="538"/>
      <point x="388" y="538" type="curve"/>
      <point x="181" y="538"/>
      <point x="32" y="463"/>
      <point x="32" y="267" type="curve"/>
      <point x="32" y="73"/>
      <point x="177" y="-5"/>
      <point x="384" y="-5" type="curve"/>
      <point x="477" y="-5"/>
      <point x="569" y="20"/>
      <point x="626" y="71" type="curve"/>
      <point x="541" y="165"/>
      <point x="626" y="71"/>
      <point x="541" y="165" type="curve"/>
      <point x="497" y="131"/>
      <point x="445" y="114"/>
      <point x="390" y="114" type="curve"/>
      <point x="273" y="114"/>
      <point x="188" y="156"/>
      <point x="188" y="267" type="curve"/>
      <point x="188" y="376"/>
      <point x="269" y="419"/>
      <point x="384" y="419" type="curve"/>
      <point x="437" y="419"/>
      <point x="491" y="413"/>
      <point x="553" y="384" type="curve"/>
      <point x="628" y="469"/>
      <point x="553" y="384"/>
    </contour>
    <contour>
      <point x="367" y="611" type="move" name="top"/>
    </contour>
    <contour>
      <point x="382" y="12" type="move" name="bottom"/>
    </contour>
  </outline>
</glyph>
<glyph name="d" format="1">
  <advance width="749"/>
  <unicode hex="0064"/>
  <outline>
    <contour>
      <point x="642" y="401" type="curve"/>
      <point x="563" y="487"/>
      <point x="448" y="538"/>
      <point x="334" y="538" type="curve"/>
      <point x="158" y="538"/>
      <point x="32" y="450"/>
      <point x="32" y="262" type="curve"/>
      <point x="32" y="75"/>
      <point x="158" y="-5"/>
      <point x="335" y="-5" type="curve"/>
      <point x="474" y="-5"/>
      <point x="573" y="57"/>
      <point x="644" y="156" type="curve"/>
      <point x="573" y="218"/>
      <point x="636" y="156"/>
      <point x="564" y="218" type="curve"/>
      <point x="506" y="142"/>
      <point x="441" y="110"/>
      <point x="355" y="110" type="curve"/>
      <point x="261" y="110"/>
      <point x="187" y="159"/>
      <point x="187" y="268" type="curve"/>
      <point x="187" y="377"/>
      <point x="264" y="423"/>
      <point x="360" y="423" type="curve"/>
      <point x="439" y="423"/>
      <point x="526" y="381"/>
      <point x="575" y="322" type="curve"/>
      <point x="648" y="391"/>
      <point x="569" y="332"/>
    </contour>
    <contour>
      <point x="695" y="0" type="curve"/>
      <point x="695" y="267"/>
      <point x="695" y="533"/>
      <point x="695" y="800" type="curve"/>
      <point x="531" y="800"/>
      <point x="695" y="800"/>
      <point x="531" y="800" type="curve"/>
      <point x="531" y="533"/>
      <point x="531" y="267"/>
      <point x="531" y="0" type="curve"/>
      <point x="695" y="0"/>
      <point x="531" y="0"/>
    </contour>
  </outline>
</glyph>
<glyph name="e" format="1">
  <advance width="692"/>
  <unicode hex="0065"/>
  <outline>
    <contour>
      <point x="111" y="223" type="curve"/>
      <point x="273" y="223"/>
      <point x="436" y="223"/>
      <point x="598" y="223" type="curve"/>
      <point x="663" y="223"/>
      <point x="598" y="223"/>
      <point x="663" y="223" type="curve"/>
      <point x="663" y="260"/>
      <point x="663" y="223"/>
      <point x="663" y="260" type="curve"/>
      <point x="663" y="266"/>
      <point x="663" y="271"/>
      <point x="663" y="277" type="curve"/>
      <point x="663" y="460"/>
      <point x="539" y="537"/>
      <point x="359" y="537" type="curve"/>
      <point x="164" y="537"/>
      <point x="32" y="462"/>
      <point x="32" y="278" type="curve"/>
      <point x="32" y="78"/>
      <point x="177" y="-5"/>
      <point x="386" y="-5" type="curve"/>
      <point x="487" y="-5"/>
      <point x="553" y="16"/>
      <point x="627" y="64" type="curve"/>
      <point x="556" y="157"/>
      <point x="627" y="64"/>
      <point x="556" y="157" type="curve"/>
      <point x="501" y="125"/>
      <point x="444" y="110"/>
      <point x="381" y="110" type="curve"/>
      <point x="261" y="110"/>
      <point x="181" y="162"/>
      <point x="181" y="278" type="curve"/>
      <point x="181" y="376"/>
      <point x="247" y="422"/>
      <point x="351" y="422" type="curve"/>
      <point x="446" y="422"/>
      <point x="514" y="392"/>
      <point x="514" y="303" type="curve"/>
      <point x="514" y="293"/>
      <point x="514" y="284"/>
      <point x="514" y="274" type="curve"/>
      <point x="528" y="284"/>
      <point x="540" y="299"/>
      <point x="555" y="308" type="curve"/>
      <point x="570" y="318"/>
      <point x="584" y="319"/>
      <point x="598" y="328" type="curve"/>
      <point x="436" y="328"/>
      <point x="273" y="328"/>
      <point x="111" y="328" type="curve"/>
      <point x="111" y="214"/>
      <point x="111" y="338"/>
    </contour>
    <contour>
      <point x="355" y="611" type="move" name="top"/>
    </contour>
    <contour>
      <point x="471" y="22" type="move" name="bottom"/>
    </contour>
  </outline>
</glyph>
<glyph name="f" format="1">
  <advance width="551"/>
  <unicode hex="0066"/>
  <outline>
    <contour>
      <point x="23" y="419" type="curve"/>
      <point x="520" y="419" type="line"/>
      <point x="520" y="533"/>
      <point x="520" y="419"/>
      <point x="520" y="533" type="curve"/>
      <point x="23" y="533" type="line"/>
      <point x="23" y="419"/>
      <point x="23" y="533"/>
    </contour>
    <contour>
      <point x="314" y="0" type="curve"/>
      <point x="314" y="603" type="line"/>
      <point x="313" y="658"/>
      <point x="349" y="691"/>
      <point x="407" y="691" type="curve"/>
      <point x="439" y="691"/>
      <point x="472" y="685"/>
      <point x="503" y="673" type="curve"/>
      <point x="566" y="765"/>
      <point x="503" y="673"/>
      <point x="566" y="765" type="curve"/>
      <point x="516" y="785"/>
      <point x="462" y="801"/>
      <point x="407" y="801" type="curve"/>
      <point x="262" y="801"/>
      <point x="155" y="736"/>
      <point x="157" y="603" type="curve"/>
      <point x="157" y="0" type="line"/>
      <point x="314" y="0"/>
      <point x="157" y="0"/>
    </contour>
  </outline>
</glyph>
<glyph name="g" format="1">
  <advance width="695"/>
  <unicode hex="0067"/>
  <outline>
    <contour>
      <point x="464" y="437" type="curve"/>
      <point x="677" y="513" type="line"/>
      <point x="620" y="628" type="line"/>
      <point x="388" y="518" type="line"/>
      <point x="464" y="436"/>
      <point x="389" y="518"/>
    </contour>
    <contour>
      <point x="199" y="336" type="curve"/>
      <point x="199" y="401"/>
      <point x="265" y="424"/>
      <point x="340" y="424" type="curve"/>
      <point x="415" y="424"/>
      <point x="475" y="400"/>
      <point x="475" y="335" type="curve"/>
      <point x="475" y="274"/>
      <point x="415" y="254"/>
      <point x="343" y="254" type="curve"/>
      <point x="268" y="254"/>
      <point x="199" y="270"/>
      <point x="199" y="336" type="curve"/>
      <point x="43" y="331"/>
      <point x="199" y="336"/>
      <point x="43" y="331" type="curve"/>
      <point x="43" y="193"/>
      <point x="175" y="139"/>
      <point x="330" y="139" type="curve"/>
      <point x="493" y="139"/>
      <point x="632" y="195"/>
      <point x="632" y="339" type="curve"/>
      <point x="632" y="481"/>
      <point x="499" y="539"/>
      <point x="340" y="539" type="curve"/>
      <point x="177" y="539"/>
      <point x="43" y="476"/>
      <point x="43" y="331" type="curve"/>
      <point x="199" y="336"/>
      <point x="43" y="331"/>
    </contour>
    <contour>
      <point x="179" y="248" type="curve"/>
      <point x="107" y="222"/>
      <point x="48" y="187"/>
      <point x="48" y="114" type="curve"/>
      <point x="48" y="-10"/>
      <point x="181" y="-25"/>
      <point x="320" y="-34" type="curve"/>
      <point x="426" y="-40"/>
      <point x="543" y="-33"/>
      <point x="543" y="-116" type="curve"/>
      <point x="543" y="-184"/>
      <point x="443" y="-190"/>
      <point x="346" y="-190" type="curve"/>
      <point x="252" y="-190"/>
      <point x="162" y="-180"/>
      <point x="162" y="-100" type="curve"/>
      <point x="162" y="-38"/>
      <point x="203" y="-10"/>
      <point x="252" y="4" type="curve"/>
      <point x="174" y="72"/>
      <point x="252" y="4"/>
      <point x="174" y="72" type="curve"/>
      <point x="82" y="47"/>
      <point x="6" y="-1"/>
      <point x="6" y="-106" type="curve"/>
      <point x="6" y="-266"/>
      <point x="163" y="-304"/>
      <point x="338" y="-304" type="curve"/>
      <point x="521" y="-304"/>
      <point x="689" y="-274"/>
      <point x="685" y="-105" type="curve"/>
      <point x="685" y="58"/>
      <point x="519" y="66"/>
      <point x="348" y="75" type="curve"/>
      <point x="279" y="79"/>
      <point x="204" y="80"/>
      <point x="204" y="125" type="curve"/>
      <point x="204" y="153"/>
      <point x="224" y="168"/>
      <point x="251" y="179" type="curve"/>
      <point x="179" y="248"/>
      <point x="251" y="179"/>
    </contour>
    <contour>
      <point x="328" y="611" type="move" name="top"/>
    </contour>
  </outline>
</glyph>
<glyph name="h" format="1">
  <advance width="724"/>
  <unicode hex="0068"/>
  <outline>
    <contour>
      <point x="176" y="271" type="curve"/>
      <point x="212" y="367"/>
      <point x="295" y="423"/>
      <point x="383" y="423" type="curve"/>
      <point x="464" y="423"/>
      <point x="518" y="373"/>
      <point x="518" y="294" type="curve"/>
      <point x="518" y="192"/>
      <point x="518" y="102"/>
      <point x="518" y="0" type="curve"/>
      <point x="674" y="0"/>
      <point x="518" y="0"/>
      <point x="674" y="0" type="curve"/>
      <point x="674" y="106"/>
      <point x="674" y="212"/>
      <point x="674" y="318" type="curve"/>
      <point x="674" y="472"/>
      <point x="571" y="538"/>
      <point x="409" y="538" type="curve"/>
      <point x="277" y="538"/>
      <point x="162" y="462"/>
      <point x="100" y="324" type="curve"/>
      <point x="178" y="267"/>
      <point x="98" y="329"/>
    </contour>
    <contour>
      <point x="211" y="0" type="curve"/>
      <point x="211" y="267"/>
      <point x="211" y="533"/>
      <point x="211" y="800" type="curve"/>
      <point x="54" y="800"/>
      <point x="211" y="800"/>
      <point x="54" y="800" type="curve"/>
      <point x="54" y="533"/>
      <point x="54" y="267"/>
      <point x="54" y="0" type="curve"/>
      <point x="211" y="0"/>
      <point x="54" y="0"/>
    </contour>
  </outline>
</glyph>
<glyph name="i" format="1">
  <advance width="272"/>
  <unicode hex="0069"/>
  <outline>
    <contour>
      <point x="219" y="0" type="curve"/>
      <point x="219" y="178"/>
      <point x="219" y="355"/>
      <point x="219" y="533" type="curve"/>
      <point x="55" y="533"/>
      <point x="219" y="533"/>
      <point x="55" y="533" type="curve"/>
      <point x="55" y="355"/>
      <point x="55" y="178"/>
      <point x="55" y="0" type="curve"/>
      <point x="219" y="0"/>
      <point x="55" y="0"/>
    </contour>
    <contour>
      <point x="226" y="685" type="curve"/>
      <point x="226" y="736"/>
      <point x="187" y="760"/>
      <point x="134" y="760" type="curve"/>
      <point x="81" y="760"/>
      <point x="44" y="733"/>
      <point x="44" y="685" type="curve"/>
      <point x="226" y="685"/>
      <point x="45" y="685"/>
      <point x="226" y="685" type="curve"/>
      <point x="226" y="633"/>
      <point x="187" y="612"/>
      <point x="133" y="612" type="curve"/>
      <point x="80" y="612"/>
      <point x="44" y="636"/>
      <point x="44" y="685" type="curve"/>
      <point x="226" y="685"/>
      <point x="45" y="685"/>
    </contour>
    <contour>
      <point x="134" y="611" type="move" name="top"/>
    </contour>
    <contour>
      <point x="206" y="13" type="move" name="bottom"/>
    </contour>
  </outline>
</glyph>
<glyph name="j" format="1">
  <advance width="344"/>
  <unicode hex="006A"/>
  <outline>
    <contour>
      <point x="-19" y="-302" type="curve"/>
      <point x="-7" y="-303"/>
      <point x="7" y="-305"/>
      <point x="24" y="-305" type="curve"/>
      <point x="168" y="-305"/>
      <point x="287" y="-250"/>
      <point x="287" y="-119" type="curve"/>
      <point x="287" y="99"/>
      <point x="287" y="316"/>
      <point x="287" y="534" type="curve"/>
      <point x="132" y="534"/>
      <point x="287" y="534"/>
      <point x="132" y="534" type="curve"/>
      <point x="132" y="316"/>
      <point x="132" y="99"/>
      <point x="132" y="-119" type="curve"/>
      <point x="132" y="-171"/>
      <point x="87" y="-195"/>
      <point x="30" y="-195" type="curve"/>
      <point x="21" y="-195"/>
      <point x="9" y="-195"/>
      <point x="3" y="-194" type="curve"/>
      <point x="-19" y="-302"/>
      <point x="3" y="-194"/>
    </contour>
    <contour>
      <point x="303" y="684" type="curve"/>
      <point x="303" y="735"/>
      <point x="263" y="759"/>
      <point x="210" y="759" type="curve"/>
      <point x="157" y="759"/>
      <point x="121" y="732"/>
      <point x="121" y="684" type="curve"/>
      <point x="302" y="684"/>
      <point x="121" y="684"/>
      <point x="303" y="684" type="curve"/>
      <point x="303" y="633"/>
      <point x="263" y="611"/>
      <point x="209" y="611" type="curve"/>
      <point x="156" y="611"/>
      <point x="121" y="635"/>
      <point x="121" y="684" type="curve"/>
      <point x="302" y="684"/>
      <point x="121" y="684"/>
    </contour>
  </outline>
</glyph>
<glyph name="k" format="1">
  <advance width="719"/>
  <unicode hex="006B"/>
  <outline>
    <contour>
      <point x="211" y="0" type="curve"/>
      <point x="211" y="800" type="line"/>
      <point x="54" y="800"/>
      <point x="211" y="800"/>
      <point x="54" y="800" type="curve"/>
      <point x="54" y="533"/>
      <point x="54" y="267"/>
      <point x="54" y="0" type="curve"/>
      <point x="211" y="0"/>
      <point x="54" y="0"/>
    </contour>
    <contour>
      <point x="471" y="533" type="curve"/>
      <point x="168" y="275" type="line"/>
      <point x="356" y="275"/>
      <point x="170" y="275"/>
      <point x="358" y="275" type="curve"/>
      <point x="673" y="533" type="line"/>
      <point x="460" y="533"/>
      <point x="684" y="533"/>
    </contour>
    <contour>
      <point x="707" y="0" type="curve"/>
      <point x="357" y="275" type="line"/>
      <point x="170" y="275"/>
      <point x="355" y="275"/>
      <point x="168" y="275" type="curve"/>
      <point x="503" y="0" type="line"/>
      <point x="715" y="0"/>
      <point x="494" y="0"/>
    </contour>
    <contour>
      <point x="382" y="-3" type="move" name="bottom"/>
    </contour>
  </outline>
</glyph>
<glyph name="l" format="1">
  <advance width="264"/>
  <unicode hex="006C"/>
  <outline>
    <contour>
      <point x="210" y="0" type="curve"/>
      <point x="210" y="267"/>
      <point x="210" y="533"/>
      <point x="210" y="800" type="curve"/>
      <point x="54" y="800"/>
      <point x="210" y="800"/>
      <point x="54" y="800" type="curve"/>
      <point x="54" y="533"/>
      <point x="54" y="267"/>
      <point x="54" y="0" type="curve"/>
      <point x="210" y="0"/>
      <point x="54" y="0"/>
    </contour>
    <contour>
      <point x="131" y="877" type="move" name="top"/>
    </contour>
    <contour>
      <point x="189" y="11" type="move" name="bottom"/>
    </contour>
  </outline>
</glyph>
<glyph name="m" format="1">
  <advance width="1089"/>
  <unicode hex="006D"/>
  <outline>
    <contour>
      <point x="589" y="259" type="curve"/>
      <point x="636" y="353"/>
      <point x="686" y="419"/>
      <point x="769" y="419" type="curve"/>
      <point x="847" y="419"/>
      <point x="882" y="384"/>
      <point x="882" y="306" type="curve"/>
      <point x="882" y="205"/>
      <point x="882" y="102"/>
      <point x="882" y="0" type="curve"/>
      <point x="1038" y="0"/>
      <point x="882" y="0"/>
      <point x="1038" y="0" type="curve"/>
      <point x="1038" y="106"/>
      <point x="1038" y="212"/>
      <point x="1038" y="318" type="curve"/>
      <point x="1038" y="473"/>
      <point x="961" y="538"/>
      <point x="803" y="538" type="curve"/>
      <point x="671" y="538"/>
      <point x="588" y="454"/>
      <point x="512" y="318" type="curve"/>
      <point x="589" y="260"/>
      <point x="511" y="318"/>
    </contour>
    <contour>
      <point x="176" y="265" type="curve"/>
      <point x="221" y="358"/>
      <point x="272" y="419"/>
      <point x="355" y="419" type="curve"/>
      <point x="433" y="419"/>
      <point x="468" y="384"/>
      <point x="468" y="306" type="curve"/>
      <point x="468" y="205"/>
      <point x="468" y="102"/>
      <point x="468" y="0" type="curve"/>
      <point x="625" y="0"/>
      <point x="468" y="0"/>
      <point x="625" y="0" type="curve"/>
      <point x="625" y="106"/>
      <point x="625" y="212"/>
      <point x="625" y="318" type="curve"/>
      <point x="625" y="473"/>
      <point x="549" y="538"/>
      <point x="392" y="538" type="curve"/>
      <point x="257" y="538"/>
      <point x="190" y="463"/>
      <point x="98" y="323" type="curve"/>
      <point x="176" y="265"/>
      <point x="97" y="323"/>
    </contour>
    <contour>
      <point x="211" y="0" type="curve"/>
      <point x="211" y="178"/>
      <point x="211" y="355"/>
      <point x="211" y="533" type="curve"/>
      <point x="54" y="533"/>
      <point x="211" y="533"/>
      <point x="54" y="533" type="curve"/>
      <point x="54" y="355"/>
      <point x="54" y="178"/>
      <point x="54" y="0" type="curve"/>
      <point x="211" y="0"/>
      <point x="54" y="0"/>
    </contour>
  </outline>
</glyph>
<glyph name="p" format="1">
  <advance width="757"/>
  <unicode hex="0070"/>
  <outline>
    <contour>
      <point x="157" y="284" type="curve"/>
      <point x="224" y="376"/>
      <point x="294" y="428"/>
      <point x="403" y="428" type="curve"/>
      <point x="501" y="428"/>
      <point x="569" y="367"/>
      <point x="569" y="263" type="curve"/>
      <point x="571" y="162"/>
      <point x="499" y="108"/>
      <point x="396" y="109" type="curve"/>
      <point x="306" y="109"/>
      <point x="230" y="140"/>
      <point x="159" y="193" type="curve"/>
      <point x="123" y="167"/>
      <point x="123" y="140"/>
      <point x="87" y="115" type="curve"/>
      <point x="173" y="38"/>
      <point x="283" y="-5"/>
      <point x="414" y="-5" type="curve"/>
      <point x="598" y="-5"/>
      <point x="725" y="91"/>
      <point x="724" y="269" type="curve"/>
      <point x="724" y="441"/>
      <point x="605" y="540"/>
      <point x="429" y="540" type="curve"/>
      <point x="282" y="540"/>
      <point x="183" y="481"/>
      <point x="98" y="367" type="curve"/>
      <point x="128" y="330"/>
      <point x="127" y="321"/>
    </contour>
    <contour>
      <point x="210" y="-300" type="curve"/>
      <point x="210" y="-22"/>
      <point x="210" y="255"/>
      <point x="210" y="533" type="curve"/>
      <point x="54" y="533"/>
      <point x="210" y="533"/>
      <point x="54" y="533" type="curve"/>
      <point x="54" y="255"/>
      <point x="54" y="-22"/>
      <point x="54" y="-300" type="curve"/>
      <point x="210" y="-300"/>
      <point x="54" y="-300"/>
    </contour>
  </outline>
</glyph>
<glyph name="q" format="1">
  <advance width="766"/>
  <unicode hex="0071"/>
  <outline>
    <contour>
      <point x="665" y="378" type="curve"/>
      <point x="570" y="478"/>
      <point x="478" y="538"/>
      <point x="338" y="538" type="curve"/>
      <point x="156" y="538"/>
      <point x="32" y="440"/>
      <point x="32" y="262" type="curve"/>
      <point x="32" y="86"/>
      <point x="162" y="-5"/>
      <point x="344" y="-5" type="curve"/>
      <point x="488" y="-5"/>
      <point x="584" y="57"/>
      <point x="691" y="157" type="curve"/>
      <point x="655" y="186"/>
      <point x="637" y="194"/>
      <point x="601" y="222" type="curve"/>
      <point x="539" y="143"/>
      <point x="464" y="109"/>
      <point x="366" y="109" type="curve"/>
      <point x="261" y="109"/>
      <point x="188" y="165"/>
      <point x="188" y="268" type="curve"/>
      <point x="188" y="370"/>
      <point x="261" y="423"/>
      <point x="364" y="423" type="curve"/>
      <point x="468" y="423"/>
      <point x="545" y="372"/>
      <point x="606" y="298" type="curve"/>
      <point x="636" y="330"/>
      <point x="635" y="346"/>
    </contour>
    <contour>
      <point x="711" y="-300" type="curve"/>
      <point x="711" y="4"/>
      <point x="711" y="229"/>
      <point x="711" y="533" type="curve"/>
      <point x="642" y="533"/>
      <point x="618" y="533"/>
      <point x="548" y="533" type="curve"/>
      <point x="548" y="229"/>
      <point x="548" y="4"/>
      <point x="548" y="-300" type="curve"/>
      <point x="618" y="-300"/>
      <point x="642" y="-300"/>
    </contour>
  </outline>
</glyph>
<glyph name="r" format="1">
  <advance width="462"/>
  <unicode hex="0072"/>
  <outline>
    <contour>
      <point x="211" y="0" type="curve"/>
      <point x="211" y="202"/>
      <point x="211" y="331"/>
      <point x="211" y="533" type="curve"/>
      <point x="141" y="533"/>
      <point x="123" y="533"/>
      <point x="54" y="533" type="curve"/>
      <point x="54" y="331"/>
      <point x="54" y="202"/>
      <point x="54" y="0" type="curve"/>
      <point x="123" y="0"/>
      <point x="141" y="0"/>
    </contour>
    <contour>
      <point x="170" y="252" type="curve"/>
      <point x="238" y="372"/>
      <point x="320" y="402"/>
      <point x="452" y="402" type="curve"/>
      <point x="452" y="461"/>
      <point x="452" y="479"/>
      <point x="452" y="538" type="curve"/>
      <point x="296" y="538"/>
      <point x="206" y="470"/>
      <point x="120" y="335" type="curve"/>
      <point x="144" y="297"/>
      <point x="146" y="290"/>
    </contour>
    <contour>
      <point x="205" y="611" type="move" name="top"/>
    </contour>
    <contour>
      <point x="143" y="31" type="move" name="bottom"/>
    </contour>
  </outline>
</glyph>
<glyph name="s" format="1">
  <advance width="605"/>
  <unicode hex="0073"/>
  <outline>
    <contour>
      <point x="27" y="46" type="curve"/>
      <point x="124" y="14"/>
      <point x="196" y="-5"/>
      <point x="295" y="-5" type="curve"/>
      <point x="458" y="-5"/>
      <point x="585" y="29"/>
      <point x="585" y="163" type="curve"/>
      <point x="585" y="290"/>
      <point x="459" y="298"/>
      <point x="316" y="329" type="curve" smooth="yes"/>
      <point x="246" y="344"/>
      <point x="173" y="351"/>
      <point x="173" y="388" type="curve"/>
      <point x="173" y="411"/>
      <point x="222" y="423"/>
      <point x="279" y="423" type="curve"/>
      <point x="339" y="423"/>
      <point x="413" y="408"/>
      <point x="465" y="389" type="curve"/>
      <point x="525" y="493"/>
      <point x="465" y="389"/>
      <point x="525" y="493" type="curve"/>
      <point x="469" y="518"/>
      <point x="367" y="538"/>
      <point x="286" y="538" type="curve"/>
      <point x="141" y="538"/>
      <point x="31" y="504"/>
      <point x="31" y="387" type="curve"/>
      <point x="31" y="273"/>
      <point x="134" y="245"/>
      <point x="266" y="218" type="curve" smooth="yes"/>
      <point x="345" y="200"/>
      <point x="435" y="198"/>
      <point x="435" y="160" type="curve"/>
      <point x="435" y="128"/>
      <point x="380" y="110"/>
      <point x="315" y="110" type="curve"/>
      <point x="236" y="110"/>
      <point x="183" y="123"/>
      <point x="92" y="152" type="curve"/>
      <point x="27" y="46"/>
      <point x="92" y="152"/>
    </contour>
    <contour>
      <point x="289" y="611" type="move" name="top"/>
    </contour>
    <contour>
      <point x="322" y="11" type="move" name="bottom"/>
    </contour>
  </outline>
</glyph>
<glyph name="t" format="1">
  <advance width="507"/>
  <unicode hex="0074"/>
  <outline>
    <contour>
      <point x="30" y="419" type="curve"/>
      <point x="471" y="419" type="line"/>
      <point x="471" y="534"/>
      <point x="471" y="419"/>
      <point x="471" y="534" type="curve"/>
      <point x="30" y="534" type="line"/>
      <point x="30" y="419"/>
      <point x="30" y="534"/>
    </contour>
    <contour>
      <point x="461" y="129" type="curve"/>
      <point x="430" y="116"/>
      <point x="405" y="113"/>
      <point x="372" y="113" type="curve"/>
      <point x="326" y="113"/>
      <point x="299" y="132"/>
      <point x="299" y="177" type="curve"/>
      <point x="299" y="692" type="line"/>
      <point x="285" y="683"/>
      <point x="158" y="617"/>
      <point x="144" y="608" type="curve"/>
      <point x="144" y="171" type="line"/>
      <point x="144" y="46"/>
      <point x="228" y="-6"/>
      <point x="357" y="-6" type="curve"/>
      <point x="420" y="-6"/>
      <point x="464" y="10"/>
      <point x="501" y="27" type="curve"/>
      <point x="461" y="129"/>
      <point x="501" y="27"/>
    </contour>
    <contour>
      <point x="376" y="10" type="move" name="bottom"/>
    </contour>
  </outline>
</glyph>
<glyph name="v" format="1">
  <advance width="714"/>
  <unicode hex="0076"/>
  <outline>
    <contour>
      <point x="11" y="533" type="curve"/>
      <point x="98" y="355"/>
      <point x="184" y="178"/>
      <point x="270" y="0" type="curve"/>
      <point x="426" y="0"/>
      <point x="270" y="0"/>
      <point x="426" y="0" type="curve"/>
      <point x="340" y="178"/>
      <point x="255" y="355"/>
      <point x="170" y="533" type="curve"/>
      <point x="11" y="533"/>
      <point x="170" y="533"/>
    </contour>
    <contour>
      <point x="549" y="533" type="curve"/>
      <point x="279" y="0" type="line"/>
      <point x="434" y="0"/>
      <point x="279" y="0"/>
      <point x="434" y="0" type="curve"/>
      <point x="526" y="178"/>
      <point x="616" y="355"/>
      <point x="707" y="533" type="curve"/>
      <point x="549" y="533"/>
      <point x="707" y="533"/>
    </contour>
  </outline>
</glyph>
<glyph name="w" format="1">
  <advance width="1126"/>
  <unicode hex="0077"/>
  <outline>
    <contour>
      <point x="393" y="0" type="curve"/>
      <point x="477" y="178"/>
      <point x="562" y="355"/>
      <point x="646" y="533" type="curve"/>
      <point x="490" y="533"/>
      <point x="646" y="533"/>
      <point x="490" y="533" type="curve"/>
      <point x="406" y="355"/>
      <point x="324" y="178"/>
      <point x="241" y="0" type="curve"/>
      <point x="393" y="0"/>
      <point x="241" y="0"/>
    </contour>
    <contour>
      <point x="959" y="533" type="curve"/>
      <point x="882" y="355"/>
      <point x="804" y="178"/>
      <point x="726" y="0" type="curve"/>
      <point x="879" y="0"/>
      <point x="726" y="0"/>
      <point x="879" y="0" type="curve"/>
      <point x="958" y="178"/>
      <point x="1037" y="355"/>
      <point x="1116" y="533" type="curve"/>
      <point x="959" y="533"/>
      <point x="1116" y="533"/>
    </contour>
    <contour>
      <point x="497" y="533" type="curve"/>
      <point x="573" y="355"/>
      <point x="649" y="178"/>
      <point x="725" y="0" type="curve"/>
      <point x="878" y="0"/>
      <point x="725" y="0"/>
      <point x="878" y="0" type="curve"/>
      <point x="803" y="178"/>
      <point x="728" y="355"/>
      <point x="652" y="533" type="curve"/>
      <point x="497" y="533"/>
      <point x="652" y="533"/>
    </contour>
    <contour>
      <point x="12" y="533" type="curve"/>
      <point x="88" y="355"/>
      <point x="164" y="178"/>
      <point x="239" y="0" type="curve"/>
      <point x="392" y="0"/>
      <point x="239" y="0"/>
      <point x="392" y="0" type="curve"/>
      <point x="317" y="178"/>
      <point x="243" y="355"/>
      <point x="168" y="533" type="curve"/>
      <point x="12" y="533"/>
      <point x="168" y="533"/>
    </contour>
  </outline>
</glyph>
<glyph name="x" format="1">
  <advance width="765"/>
  <unicode hex="0078"/>
  <outline>
    <contour>
      <point x="754" y="0" type="curve"/>
      <point x="750" y="4"/>
      <point x="184" y="529"/>
      <point x="181" y="533" type="curve"/>
      <point x="-66" y="533"/>
      <point x="263" y="533"/>
      <point x="16" y="533" type="curve"/>
      <point x="20" y="529"/>
      <point x="569" y="4"/>
      <point x="573" y="0" type="curve"/>
      <point x="754" y="0"/>
      <point x="573" y="0"/>
    </contour>
    <contour>
      <point x="587" y="533" type="curve"/>
      <point x="584" y="529"/>
      <point x="9" y="4"/>
      <point x="6" y="0" type="curve"/>
      <point x="192" y="0"/>
      <point x="6" y="0"/>
      <point x="192" y="0" type="curve"/>
      <point x="195" y="4"/>
      <point x="756" y="529"/>
      <point x="760" y="533" type="curve"/>
      <point x="474" y="533"/>
      <point x="874" y="533"/>
    </contour>
  </outline>
</glyph>
<glyph name="y" format="1">
  <advance width="717"/>
  <unicode hex="0079"/>
  <outline>
    <contour>
      <point x="407" y="-9" type="curve"/>
      <point x="399" y="12"/>
      <point x="174" y="512"/>
      <point x="166" y="533" type="curve"/>
      <point x="6" y="533"/>
      <point x="166" y="533"/>
      <point x="6" y="533" type="curve"/>
      <point x="15" y="512"/>
      <point x="262" y="-1"/>
      <point x="270" y="-23" type="curve"/>
      <point x="407" y="-23"/>
      <point x="270" y="-9"/>
    </contour>
    <contour>
      <point x="273" y="-300" type="curve"/>
      <point x="286" y="-268"/>
      <point x="704" y="501"/>
      <point x="717" y="533" type="curve"/>
      <point x="559" y="533"/>
      <point x="717" y="533"/>
      <point x="559" y="533" type="curve"/>
      <point x="545" y="501"/>
      <point x="127" y="-268"/>
      <point x="113" y="-300" type="curve"/>
      <point x="273" y="-300"/>
      <point x="113" y="-300"/>
    </contour>
    <contour>
      <point x="360" y="611" type="move" name="top"/>
    </contour>
  </outline>
</glyph>
<glyph name="braceleft" format="1">
  <advance width="365"/>
  <unicode hex="007B"/>
  <outline>
    <contour>
      <point x="323" y="7" type="curve"/>
      <point x="278" y="7"/>
      <point x="249" y="27"/>
      <point x="249" y="68" type="curve"/>
      <point x="249" y="118"/>
      <point x="249" y="168"/>
      <point x="249" y="220" type="curve"/>
      <point x="249" y="337"/>
      <point x="159" y="402"/>
      <point x="35" y="402" type="curve"/>
      <point x="35" y="281"/>
      <point x="35" y="402"/>
      <point x="35" y="281" type="curve"/>
      <point x="76" y="281"/>
      <point x="107" y="268"/>
      <point x="107" y="230" type="curve"/>
      <point x="107" y="178"/>
      <point x="107" y="126"/>
      <point x="107" y="74" type="curve"/>
      <point x="107" y="-46"/>
      <point x="196" y="-107"/>
      <point x="323" y="-107" type="curve"/>
      <point x="323" y="7"/>
      <point x="323" y="-107"/>
    </contour>
    <contour>
      <point x="323" y="789" type="curve"/>
      <point x="196" y="789"/>
      <point x="107" y="731"/>
      <point x="107" y="612" type="curve"/>
      <point x="107" y="558"/>
      <point x="107" y="503"/>
      <point x="107" y="449" type="curve"/>
      <point x="107" y="412"/>
      <point x="75" y="402"/>
      <point x="35" y="402" type="curve"/>
      <point x="35" y="281"/>
      <point x="35" y="402"/>
      <point x="35" y="281" type="curve"/>
      <point x="160" y="281"/>
      <point x="249" y="344"/>
      <point x="249" y="465" type="curve"/>
      <point x="249" y="514"/>
      <point x="249" y="563"/>
      <point x="249" y="612" type="curve"/>
      <point x="249" y="654"/>
      <point x="278" y="675"/>
      <point x="323" y="675" type="curve"/>
      <point x="323" y="789"/>
      <point x="323" y="675"/>
    </contour>
  </outline>
</glyph>
<glyph name="braceright" format="1">
  <advance width="365"/>
  <unicode hex="007D"/>
  <outline>
    <contour>
      <point x="41" y="-107" type="curve"/>
      <point x="167" y="-107"/>
      <point x="256" y="-46"/>
      <point x="256" y="74" type="curve"/>
      <point x="256" y="126"/>
      <point x="256" y="178"/>
      <point x="256" y="230" type="curve"/>
      <point x="256" y="268"/>
      <point x="288" y="281"/>
      <point x="329" y="281" type="curve"/>
      <point x="329" y="402"/>
      <point x="329" y="281"/>
      <point x="329" y="402" type="curve"/>
      <point x="203" y="402"/>
      <point x="114" y="337"/>
      <point x="114" y="220" type="curve"/>
      <point x="114" y="168"/>
      <point x="114" y="118"/>
      <point x="114" y="68" type="curve"/>
      <point x="114" y="27"/>
      <point x="84" y="7"/>
      <point x="41" y="7" type="curve"/>
      <point x="41" y="-107"/>
      <point x="41" y="7"/>
    </contour>
    <contour>
      <point x="41" y="675" type="curve"/>
      <point x="85" y="675"/>
      <point x="114" y="654"/>
      <point x="114" y="612" type="curve"/>
      <point x="114" y="563"/>
      <point x="114" y="514"/>
      <point x="114" y="465" type="curve"/>
      <point x="114" y="344"/>
      <point x="202" y="281"/>
      <point x="329" y="281" type="curve"/>
      <point x="329" y="402"/>
      <point x="329" y="281"/>
      <point x="329" y="402" type="curve"/>
      <point x="288" y="402"/>
      <point x="256" y="412"/>
      <point x="256" y="449" type="curve"/>
      <point x="256" y="503"/>
      <point x="256" y="558"/>
      <point x="256" y="612" type="curve"/>
      <point x="256" y="731"/>
      <point x="167" y="789"/>
      <point x="41" y="789" type="curve"/>
      <point x="41" y="675"/>
      <point x="41" y="789"/>
    </contour>
  </outline>
</glyph>
<glyph name="asciitilde" format="1">
  <advance width="790"/>
  <unicode hex="007E"/>
  <outline>
    <contour>
      <point x="630" y="380" type="curve"/>
      <point x="610" y="337"/>
      <point x="595" y="305"/>
      <point x="550" y="305" type="curve"/>
      <point x="502" y="305"/>
      <point x="474" y="313"/>
      <point x="432" y="337" type="curve"/>
      <point x="367" y="376"/>
      <point x="325" y="395"/>
      <point x="249" y="395" type="curve"/>
      <point x="141" y="395"/>
      <point x="79" y="350"/>
      <point x="40" y="250" type="curve"/>
      <point x="82" y="229"/>
      <point x="107" y="218"/>
      <point x="150" y="199" type="curve"/>
      <point x="169" y="248"/>
      <point x="191" y="280"/>
      <point x="241" y="280" type="curve"/>
      <point x="282" y="280"/>
      <point x="305" y="272"/>
      <point x="340" y="252" type="curve"/>
      <point x="411" y="211"/>
      <point x="455" y="192"/>
      <point x="537" y="191" type="curve"/>
      <point x="644" y="191"/>
      <point x="703" y="232"/>
      <point x="749" y="328" type="curve"/>
      <point x="703" y="349"/>
      <point x="677" y="360"/>
    </contour>
  </outline>
</glyph>
<glyph name="exclamdown" format="1">
  <advance width="274"/>
  <unicode hex="00A1"/>
  <outline>
    <contour>
      <point x="78" y="303" type="line"/>
      <point x="59" y="-190" type="line"/>
      <point x="218" y="-190" type="line"/>
      <point x="199" y="303" type="line"/>
    </contour>
    <contour>
      <point x="47" y="468" type="curve"/>
      <point x="47" y="418"/>
      <point x="86" y="394"/>
      <point x="139" y="394" type="curve"/>
      <point x="192" y="394"/>
      <point x="229" y="420"/>
      <point x="229" y="468" type="curve"/>
      <point x="47" y="468"/>
      <point x="228" y="468"/>
      <point x="47" y="468" type="curve"/>
      <point x="47" y="520"/>
      <point x="86" y="542"/>
      <point x="140" y="542" type="curve"/>
      <point x="193" y="542"/>
      <point x="229" y="517"/>
      <point x="229" y="468" type="curve"/>
      <point x="47" y="468"/>
      <point x="228" y="468"/>
    </contour>
  </outline>
</glyph>
<glyph name="cent" format="1">
  <advance width="785"/>
  <unicode hex="00A2"/>
  <outline>
    <contour>
      <point x="501" y="-53" type="curve"/>
      <point x="501" y="-13"/>
      <point x="501" y="27"/>
      <point x="501" y="67" type="curve"/>
      <point x="344" y="67"/>
      <point x="501" y="67"/>
      <point x="344" y="67" type="curve"/>
      <point x="344" y="27"/>
      <point x="344" y="-13"/>
      <point x="344" y="-53" type="curve"/>
      <point x="501" y="-53"/>
      <point x="344" y="-53"/>
    </contour>
    <contour>
      <point x="371" y="778" type="curve"/>
      <point x="371" y="742"/>
      <point x="371" y="706"/>
      <point x="371" y="670" type="curve"/>
      <point x="526" y="670"/>
      <point x="371" y="670"/>
      <point x="526" y="670" type="curve"/>
      <point x="526" y="706"/>
      <point x="526" y="742"/>
      <point x="526" y="778" type="curve"/>
      <point x="371" y="778"/>
      <point x="526" y="778"/>
    </contour>
    <contour>
      <point x="754" y="619" type="curve"/>
      <point x="653" y="669"/>
      <point x="573" y="687"/>
      <point x="459" y="687" type="curve"/>
      <point x="216" y="687"/>
      <point x="32" y="587"/>
      <point x="32" y="363" type="curve"/>
      <point x="32" y="153"/>
      <point x="191" y="44"/>
      <point x="414" y="44" type="curve"/>
      <point x="547" y="44"/>
      <point x="642" y="69"/>
      <point x="757" y="135" type="curve"/>
      <point x="675" y="236"/>
      <point x="757" y="135"/>
      <point x="675" y="236" type="curve"/>
      <point x="581" y="185"/>
      <point x="518" y="165"/>
      <point x="429" y="165" type="curve"/>
      <point x="287" y="165"/>
      <point x="188" y="235"/>
      <point x="188" y="369" type="curve"/>
      <point x="188" y="505"/>
      <point x="298" y="567"/>
      <point x="445" y="567" type="curve"/>
      <point x="531" y="567"/>
      <point x="592" y="553"/>
      <point x="686" y="513" type="curve"/>
      <point x="754" y="619"/>
      <point x="686" y="513"/>
    </contour>
  </outline>
</glyph>
<glyph name="sterling" format="1">
  <advance width="609"/>
  <unicode hex="00A3"/>
  <outline>
    <contour>
      <point x="543" y="115" type="curve"/>
      <point x="376" y="115"/>
      <point x="208" y="115"/>
      <point x="41" y="115" type="curve"/>
      <point x="41" y="0"/>
      <point x="41" y="115"/>
      <point x="41" y="0" type="curve"/>
      <point x="208" y="0"/>
      <point x="376" y="0"/>
      <point x="543" y="0" type="curve"/>
      <point x="543" y="115"/>
      <point x="543" y="0"/>
    </contour>
    <contour>
      <point x="484" y="432" type="curve"/>
      <point x="351" y="432"/>
      <point x="217" y="432"/>
      <point x="83" y="432" type="curve"/>
      <point x="83" y="317"/>
      <point x="83" y="432"/>
      <point x="83" y="317" type="curve"/>
      <point x="217" y="317"/>
      <point x="351" y="317"/>
      <point x="484" y="317" type="curve"/>
      <point x="484" y="432"/>
      <point x="484" y="317"/>
    </contour>
    <contour>
      <point x="583" y="661" type="curve"/>
      <point x="520" y="707"/>
      <point x="467" y="720"/>
      <point x="391" y="720" type="curve"/>
      <point x="197" y="720"/>
      <point x="83" y="561"/>
      <point x="140" y="363" type="curve"/>
      <point x="178" y="230"/>
      <point x="144" y="115"/>
      <point x="41" y="115" type="curve"/>
      <point x="41" y="0"/>
      <point x="41" y="115"/>
      <point x="41" y="0" type="curve"/>
      <point x="248" y="0"/>
      <point x="355" y="175"/>
      <point x="295" y="386" type="curve"/>
      <point x="260" y="507"/>
      <point x="295" y="611"/>
      <point x="384" y="611" type="curve"/>
      <point x="432" y="611"/>
      <point x="466" y="600"/>
      <point x="509" y="576" type="curve"/>
      <point x="583" y="661"/>
      <point x="509" y="576"/>
    </contour>
  </outline>
</glyph>
<glyph name="currency" format="1">
  <advance width="753"/>
  <unicode hex="00A4"/>
  <outline>
    <contour>
      <point x="272" y="317" type="curve"/>
      <point x="272" y="371"/>
      <point x="316" y="398"/>
      <point x="374" y="398" type="curve"/>
      <point x="437" y="398"/>
      <point x="483" y="372"/>
      <point x="483" y="315" type="curve"/>
      <point x="483" y="260"/>
      <point x="443" y="231"/>
      <point x="386" y="231" type="curve"/>
      <point x="320" y="231"/>
      <point x="272" y="257"/>
      <point x="272" y="317" type="curve"/>
      <point x="116" y="317"/>
      <point x="273" y="317"/>
      <point x="116" y="317" type="curve"/>
      <point x="116" y="179"/>
      <point x="230" y="117"/>
      <point x="380" y="117" type="curve"/>
      <point x="528" y="117"/>
      <point x="639" y="183"/>
      <point x="639" y="320" type="curve"/>
      <point x="639" y="451"/>
      <point x="530" y="512"/>
      <point x="389" y="512" type="curve"/>
      <point x="235" y="512"/>
      <point x="116" y="455"/>
      <point x="116" y="317" type="curve"/>
      <point x="273" y="317"/>
      <point x="116" y="317"/>
    </contour>
    <contour>
      <point x="544" y="295" type="line"/>
      <point x="716" y="453" type="line"/>
      <point x="594" y="576" type="line"/>
      <point x="436" y="404" type="line"/>
    </contour>
    <contour>
      <point x="437" y="230" type="line"/>
      <point x="595" y="58" type="line"/>
      <point x="718" y="181" type="line"/>
      <point x="546" y="339" type="line"/>
    </contour>
    <contour>
      <point x="209" y="341" type="line"/>
      <point x="37" y="183" type="line"/>
      <point x="159" y="61" type="line"/>
      <point x="317" y="233" type="line"/>
    </contour>
    <contour>
      <point x="318" y="406" type="line"/>
      <point x="160" y="578" type="line"/>
      <point x="38" y="455" type="line"/>
      <point x="209" y="297" type="line"/>
    </contour>
  </outline>
</glyph>
<glyph name="yen" format="1">
  <advance width="821"/>
  <unicode hex="00A5"/>
  <outline>
    <contour>
      <point x="696" y="449" type="curve"/>
      <point x="608" y="449"/>
      <point x="521" y="449"/>
      <point x="433" y="449" type="curve"/>
      <point x="433" y="323"/>
      <point x="433" y="449"/>
      <point x="433" y="323" type="curve"/>
      <point x="521" y="323"/>
      <point x="608" y="323"/>
      <point x="696" y="323" type="curve"/>
      <point x="696" y="449"/>
      <point x="696" y="323"/>
    </contour>
    <contour>
      <point x="397" y="449" type="curve"/>
      <point x="311" y="449"/>
      <point x="225" y="449"/>
      <point x="139" y="449" type="curve"/>
      <point x="139" y="323"/>
      <point x="139" y="449"/>
      <point x="139" y="323" type="curve"/>
      <point x="225" y="323"/>
      <point x="311" y="323"/>
      <point x="397" y="323" type="curve"/>
      <point x="397" y="449"/>
      <point x="397" y="323"/>
    </contour>
    <contour>
      <point x="696" y="282" type="curve"/>
      <point x="511" y="282"/>
      <point x="325" y="282"/>
      <point x="139" y="282" type="curve"/>
      <point x="139" y="156"/>
      <point x="139" y="282"/>
      <point x="139" y="156" type="curve"/>
      <point x="325" y="156"/>
      <point x="511" y="156"/>
      <point x="696" y="156" type="curve"/>
      <point x="696" y="282"/>
      <point x="696" y="156"/>
    </contour>
    <contour>
      <point x="23" y="722" type="curve"/>
      <point x="111" y="606"/>
      <point x="243" y="453"/>
      <point x="331" y="337" type="curve"/>
      <point x="489" y="337"/>
      <point x="329" y="337"/>
      <point x="487" y="337" type="curve"/>
      <point x="390" y="466"/>
      <point x="294" y="594"/>
      <point x="197" y="722" type="curve"/>
      <point x="68" y="722"/>
      <point x="151" y="722"/>
    </contour>
    <contour>
      <point x="640" y="722" type="curve"/>
      <point x="538" y="594"/>
      <point x="436" y="465"/>
      <point x="333" y="337" type="curve"/>
      <point x="491" y="337"/>
      <point x="332" y="337"/>
      <point x="490" y="337" type="curve"/>
      <point x="584" y="454"/>
      <point x="708" y="605"/>
      <point x="802" y="722" type="curve"/>
      <point x="672" y="722"/>
      <point x="770" y="722"/>
    </contour>
    <contour>
      <point x="496" y="0" type="curve"/>
      <point x="496" y="115"/>
      <point x="496" y="230"/>
      <point x="496" y="345" type="curve"/>
      <point x="325" y="345"/>
      <point x="496" y="345"/>
      <point x="325" y="345" type="curve"/>
      <point x="325" y="230"/>
      <point x="325" y="115"/>
      <point x="325" y="0" type="curve"/>
      <point x="496" y="0"/>
      <point x="325" y="0"/>
    </contour>
  </outline>
</glyph>
<glyph name="section" format="1">
  <advance width="624"/>
  <unicode hex="00A7"/>
  <outline>
    <contour>
      <point x="522" y="703" type="curve"/>
      <point x="449" y="732"/>
      <point x="396" y="748"/>
      <point x="318" y="748" type="curve"/>
      <point x="180" y="748"/>
      <point x="74" y="707"/>
      <point x="74" y="592" type="curve"/>
      <point x="74" y="491"/>
      <point x="155" y="449"/>
      <point x="259" y="423" type="curve"/>
      <point x="339" y="404"/>
      <point x="439" y="406"/>
      <point x="439" y="353" type="curve"/>
      <point x="439" y="299"/>
      <point x="378" y="293"/>
      <point x="311" y="284" type="curve"/>
      <point x="403" y="192"/>
      <point x="311" y="284"/>
      <point x="403" y="192" type="curve"/>
      <point x="513" y="212"/>
      <point x="595" y="257"/>
      <point x="595" y="361" type="curve"/>
      <point x="594" y="486"/>
      <point x="470" y="503"/>
      <point x="337" y="531" type="curve"/>
      <point x="285" y="544"/>
      <point x="229" y="548"/>
      <point x="229" y="592" type="curve"/>
      <point x="229" y="627"/>
      <point x="263" y="634"/>
      <point x="304" y="634" type="curve"/>
      <point x="361" y="634"/>
      <point x="399" y="627"/>
      <point x="463" y="604" type="curve"/>
      <point x="522" y="703"/>
      <point x="463" y="604"/>
    </contour>
    <contour>
      <point x="219" y="529" type="curve"/>
      <point x="114" y="506"/>
      <point x="32" y="467"/>
      <point x="32" y="366" type="curve"/>
      <point x="32" y="249"/>
      <point x="138" y="220"/>
      <point x="261" y="193" type="curve"/>
      <point x="327" y="177"/>
      <point x="403" y="172"/>
      <point x="403" y="129" type="curve"/>
      <point x="403" y="93"/>
      <point x="362" y="88"/>
      <point x="316" y="88" type="curve"/>
      <point x="255" y="88"/>
      <point x="212" y="98"/>
      <point x="141" y="127" type="curve"/>
      <point x="72" y="34"/>
      <point x="141" y="127"/>
      <point x="72" y="34" type="curve"/>
      <point x="153" y="-9"/>
      <point x="218" y="-26"/>
      <point x="310" y="-26" type="curve"/>
      <point x="446" y="-26"/>
      <point x="559" y="12"/>
      <point x="559" y="134" type="curve"/>
      <point x="557" y="239"/>
      <point x="470" y="278"/>
      <point x="361" y="301" type="curve"/>
      <point x="282" y="320"/>
      <point x="187" y="317"/>
      <point x="187" y="377" type="curve"/>
      <point x="187" y="423"/>
      <point x="240" y="430"/>
      <point x="297" y="443" type="curve"/>
      <point x="219" y="529"/>
      <point x="297" y="443"/>
    </contour>
  </outline>
</glyph>
<glyph name="dieresis" format="1">
  <advance width="450"/>
  <unicode hex="00A8"/>
  <outline>
    <contour>
      <point x="202" y="580" type="curve"/>
      <point x="202" y="631"/>
      <point x="162" y="654"/>
      <point x="109" y="654" type="curve"/>
      <point x="56" y="654"/>
      <point x="20" y="628"/>
      <point x="20" y="580" type="curve"/>
      <point x="201" y="580"/>
      <point x="20" y="580"/>
      <point x="202" y="580" type="curve"/>
      <point x="202" y="528"/>
      <point x="162" y="507"/>
      <point x="108" y="507" type="curve"/>
      <point x="55" y="507"/>
      <point x="20" y="531"/>
      <point x="20" y="580" type="curve"/>
      <point x="201" y="580"/>
      <point x="20" y="580"/>
    </contour>
    <contour>
      <point x="437" y="580" type="curve"/>
      <point x="437" y="631"/>
      <point x="397" y="654"/>
      <point x="344" y="654" type="curve"/>
      <point x="291" y="654"/>
      <point x="255" y="628"/>
      <point x="255" y="580" type="curve"/>
      <point x="436" y="580"/>
      <point x="255" y="580"/>
      <point x="437" y="580" type="curve"/>
      <point x="437" y="528"/>
      <point x="397" y="507"/>
      <point x="343" y="507" type="curve"/>
      <point x="290" y="507"/>
      <point x="255" y="531"/>
      <point x="255" y="580" type="curve"/>
      <point x="436" y="580"/>
      <point x="255" y="580"/>
    </contour>
    <contour>
      <point x="228" y="510" type="move" name="_top"/>
    </contour>
  </outline>
</glyph>
<glyph name="copyright" format="1">
  <advance width="952"/>
  <unicode hex="00A9"/>
  <outline>
    <contour>
      <point x="160" y="325" type="curve"/>
      <point x="160" y="482"/>
      <point x="305" y="553"/>
      <point x="478" y="553" type="curve"/>
      <point x="648" y="553"/>
      <point x="789" y="479"/>
      <point x="789" y="322" type="curve"/>
      <point x="789" y="171"/>
      <point x="653" y="98"/>
      <point x="488" y="98" type="curve"/>
      <point x="313" y="98"/>
      <point x="160" y="165"/>
      <point x="160" y="325" type="curve"/>
      <point x="35" y="325"/>
      <point x="160" y="325"/>
      <point x="35" y="325" type="curve"/>
      <point x="35" y="105"/>
      <point x="239" y="7"/>
      <point x="483" y="7" type="curve"/>
      <point x="719" y="7"/>
      <point x="913" y="111"/>
      <point x="913" y="327" type="curve"/>
      <point x="913" y="543"/>
      <point x="716" y="645"/>
      <point x="478" y="645" type="curve"/>
      <point x="238" y="645"/>
      <point x="35" y="545"/>
      <point x="35" y="325" type="curve"/>
      <point x="160" y="325"/>
      <point x="35" y="325"/>
    </contour>
    <contour>
      <point x="662" y="462" type="curve"/>
      <point x="619" y="491"/>
      <point x="554" y="514"/>
      <point x="484" y="514" type="curve"/>
      <point x="340" y="514"/>
      <point x="231" y="454"/>
      <point x="231" y="323" type="curve"/>
      <point x="231" y="197"/>
      <point x="330" y="138"/>
      <point x="464" y="138" type="curve"/>
      <point x="544" y="138"/>
      <point x="599" y="149"/>
      <point x="661" y="184" type="curve"/>
      <point x="609" y="260"/>
      <point x="661" y="184"/>
      <point x="609" y="260" type="curve"/>
      <point x="555" y="236"/>
      <point x="516" y="229"/>
      <point x="470" y="229" type="curve"/>
      <point x="402" y="229"/>
      <point x="355" y="263"/>
      <point x="355" y="328" type="curve"/>
      <point x="355" y="393"/>
      <point x="407" y="422"/>
      <point x="479" y="422" type="curve"/>
      <point x="509" y="422"/>
      <point x="555" y="416"/>
      <point x="605" y="393" type="curve"/>
      <point x="663" y="462"/>
      <point x="604" y="393"/>
    </contour>
  </outline>
</glyph>
<glyph name="ordfeminine" format="1">
  <advance width="479"/>
  <unicode hex="00AA"/>
  <outline>
    <contour>
      <point x="430" y="426" type="curve"/>
      <point x="430" y="509"/>
      <point x="430" y="586"/>
      <point x="430" y="669" type="curve"/>
      <point x="430" y="765"/>
      <point x="346" y="786"/>
      <point x="242" y="786" type="curve"/>
      <point x="164" y="786"/>
      <point x="105" y="766"/>
      <point x="57" y="735" type="curve"/>
      <point x="96" y="670"/>
      <point x="63" y="731"/>
      <point x="103" y="666" type="curve"/>
      <point x="130" y="688"/>
      <point x="171" y="708"/>
      <point x="227" y="708" type="curve"/>
      <point x="279" y="708"/>
      <point x="326" y="700"/>
      <point x="326" y="651" type="curve"/>
      <point x="326" y="575"/>
      <point x="326" y="501"/>
      <point x="326" y="426" type="curve"/>
      <point x="430" y="426"/>
      <point x="326" y="426"/>
    </contour>
    <contour>
      <point x="375" y="659" type="curve"/>
      <point x="310" y="653"/>
      <point x="271" y="651"/>
      <point x="205" y="645" type="curve"/>
      <point x="108" y="636"/>
      <point x="32" y="622"/>
      <point x="32" y="536" type="curve"/>
      <point x="32" y="452"/>
      <point x="98" y="422"/>
      <point x="192" y="422" type="curve"/>
      <point x="285" y="422"/>
      <point x="329" y="461"/>
      <point x="401" y="528" type="curve"/>
      <point x="352" y="567"/>
      <point x="400" y="528"/>
      <point x="351" y="567" type="curve"/>
      <point x="305" y="526"/>
      <point x="266" y="497"/>
      <point x="208" y="497" type="curve"/>
      <point x="166" y="497"/>
      <point x="135" y="505"/>
      <point x="135" y="536" type="curve"/>
      <point x="135" y="568"/>
      <point x="168" y="573"/>
      <point x="202" y="576" type="curve"/>
      <point x="271" y="582"/>
      <point x="310" y="587"/>
      <point x="380" y="594" type="curve"/>
      <point x="375" y="659"/>
      <point x="380" y="594"/>
    </contour>
  </outline>
</glyph>
<glyph name="guillemotleft" format="1">
  <advance width="645"/>
  <unicode hex="00AB"/>
  <outline>
    <contour>
      <point x="296" y="481" type="curve"/>
      <point x="226" y="448"/>
      <point x="104" y="385"/>
      <point x="35" y="351" type="curve"/>
      <point x="35" y="225"/>
      <point x="35" y="349"/>
      <point x="35" y="223" type="curve"/>
      <point x="104" y="257"/>
      <point x="226" y="320"/>
      <point x="296" y="355" type="curve"/>
      <point x="296" y="480"/>
      <point x="296" y="356"/>
    </contour>
    <contour>
      <point x="296" y="223" type="curve"/>
      <point x="226" y="256"/>
      <point x="104" y="317"/>
      <point x="35" y="351" type="curve"/>
      <point x="35" y="225"/>
      <point x="35" y="349"/>
      <point x="35" y="223" type="curve"/>
      <point x="104" y="190"/>
      <point x="226" y="130"/>
      <point x="296" y="96" type="curve"/>
      <point x="296" y="222"/>
      <point x="296" y="97"/>
    </contour>
    <contour>
      <point x="590" y="481" type="curve"/>
      <point x="521" y="448"/>
      <point x="399" y="385"/>
      <point x="329" y="351" type="curve"/>
      <point x="329" y="225"/>
      <point x="329" y="349"/>
      <point x="329" y="223" type="curve"/>
      <point x="399" y="257"/>
      <point x="521" y="320"/>
      <point x="590" y="355" type="curve"/>
      <point x="590" y="480"/>
      <point x="590" y="356"/>
    </contour>
    <contour>
      <point x="590" y="223" type="curve"/>
      <point x="521" y="256"/>
      <point x="399" y="317"/>
      <point x="329" y="351" type="curve"/>
      <point x="329" y="225"/>
      <point x="329" y="349"/>
      <point x="329" y="223" type="curve"/>
      <point x="399" y="190"/>
      <point x="521" y="130"/>
      <point x="590" y="96" type="curve"/>
      <point x="590" y="222"/>
      <point x="590" y="97"/>
    </contour>
  </outline>
</glyph>
<glyph name="logicalnot" format="1">
  <advance width="728"/>
  <unicode hex="00AC"/>
  <outline>
    <contour>
      <point x="53" y="251" type="curve"/>
      <point x="672" y="251" type="line"/>
      <point x="672" y="376"/>
      <point x="672" y="251"/>
      <point x="672" y="376" type="curve"/>
      <point x="53" y="376" type="line"/>
      <point x="53" y="251"/>
      <point x="53" y="376"/>
    </contour>
    <contour>
      <point x="672" y="139" type="curve"/>
      <point x="672" y="376" type="line"/>
      <point x="516" y="376"/>
      <point x="681" y="376"/>
      <point x="525" y="376" type="curve"/>
      <point x="525" y="139" type="line"/>
      <point x="681" y="139"/>
      <point x="516" y="139"/>
    </contour>
  </outline>
</glyph>
<glyph name="registered" format="1">
  <advance width="940"/>
  <unicode hex="00AE"/>
  <outline>
    <contour>
      <point x="153" y="325" type="curve"/>
      <point x="153" y="495"/>
      <point x="292" y="563"/>
      <point x="475" y="563" type="curve"/>
      <point x="654" y="563"/>
      <point x="788" y="490"/>
      <point x="788" y="322" type="curve"/>
      <point x="788" y="158"/>
      <point x="658" y="88"/>
      <point x="484" y="88" type="curve"/>
      <point x="297" y="88"/>
      <point x="153" y="152"/>
      <point x="153" y="325" type="curve"/>
      <point x="111" y="325"/>
      <point x="81" y="325"/>
      <point x="39" y="325" type="curve"/>
      <point x="39" y="95"/>
      <point x="231" y="6"/>
      <point x="479" y="6" type="curve"/>
      <point x="721" y="6"/>
      <point x="902" y="102"/>
      <point x="902" y="327" type="curve"/>
      <point x="902" y="552"/>
      <point x="718" y="645"/>
      <point x="475" y="645" type="curve"/>
      <point x="228" y="645"/>
      <point x="39" y="553"/>
      <point x="39" y="325" type="curve"/>
      <point x="81" y="325"/>
      <point x="111" y="325"/>
    </contour>
    <contour>
      <point x="406" y="316" type="curve"/>
      <point x="448" y="266"/>
      <point x="496" y="192"/>
      <point x="538" y="140" type="curve"/>
      <point x="607" y="140"/>
      <point x="585" y="139"/>
      <point x="670" y="139" type="curve"/>
      <point x="628" y="195"/>
      <point x="583" y="259"/>
      <point x="542" y="312" type="curve"/>
      <point x="402" y="312"/>
      <point x="545" y="316"/>
    </contour>
    <contour>
      <point x="433" y="140" type="curve"/>
      <point x="433" y="260"/>
      <point x="433" y="390"/>
      <point x="433" y="509" type="curve"/>
      <point x="362" y="509"/>
      <point x="380" y="510"/>
      <point x="309" y="510" type="curve"/>
      <point x="309" y="390"/>
      <point x="309" y="260"/>
      <point x="309" y="140" type="curve"/>
      <point x="387" y="140"/>
      <point x="361" y="140"/>
    </contour>
    <contour>
      <point x="374" y="268" type="curve"/>
      <point x="398" y="268"/>
      <point x="422" y="268"/>
      <point x="445" y="268" type="curve"/>
      <point x="557" y="268"/>
      <point x="643" y="290"/>
      <point x="643" y="392" type="curve"/>
      <point x="643" y="478"/>
      <point x="567" y="510"/>
      <point x="472" y="510" type="curve"/>
      <point x="458" y="510"/>
      <point x="435" y="510"/>
      <point x="423" y="510" type="curve"/>
      <point x="309" y="422"/>
      <point x="434" y="510"/>
      <point x="309" y="418" type="curve"/>
      <point x="356" y="418"/>
      <point x="402" y="418"/>
      <point x="448" y="418" type="curve"/>
      <point x="486" y="418"/>
      <point x="520" y="419"/>
      <point x="520" y="387" type="curve"/>
      <point x="520" y="359"/>
      <point x="493" y="359"/>
      <point x="463" y="359" type="curve"/>
      <point x="433" y="359"/>
      <point x="403" y="359"/>
      <point x="374" y="359" type="curve"/>
      <point x="374" y="268"/>
      <point x="374" y="359"/>
    </contour>
  </outline>
</glyph>
<glyph name="macron" format="1">
  <advance width="398"/>
  <unicode hex="00AF"/>
  <outline>
    <contour>
      <point x="304" y="659" type="curve"/>
      <point x="211" y="659"/>
      <point x="117" y="659"/>
      <point x="24" y="659" type="curve"/>
      <point x="24" y="545"/>
      <point x="24" y="659"/>
      <point x="24" y="545" type="curve"/>
      <point x="117" y="545"/>
      <point x="211" y="545"/>
      <point x="304" y="545" type="curve"/>
      <point x="304" y="659"/>
      <point x="304" y="545"/>
    </contour>
    <contour>
      <point x="165" y="545" type="move" name="_top"/>
    </contour>
  </outline>
</glyph>
<glyph name="degree" format="1">
  <advance width="557"/>
  <unicode hex="00B0"/>
  <outline>
    <contour>
      <point x="528" y="497" type="curve"/>
      <point x="528" y="635"/>
      <point x="426" y="709"/>
      <point x="281" y="709" type="curve"/>
      <point x="135" y="709"/>
      <point x="30" y="637"/>
      <point x="30" y="499" type="curve"/>
      <point x="160" y="499"/>
      <point x="37" y="499"/>
      <point x="167" y="499" type="curve"/>
      <point x="167" y="560"/>
      <point x="210" y="598"/>
      <point x="278" y="598" type="curve"/>
      <point x="343" y="598"/>
      <point x="390" y="563"/>
      <point x="390" y="497" type="curve"/>
      <point x="390" y="431"/>
      <point x="347" y="390"/>
      <point x="280" y="390" type="curve"/>
      <point x="212" y="390"/>
      <point x="167" y="432"/>
      <point x="167" y="499" type="curve"/>
      <point x="37" y="499"/>
      <point x="160" y="499"/>
      <point x="30" y="499" type="curve"/>
      <point x="30" y="358"/>
      <point x="130" y="280"/>
      <point x="276" y="280" type="curve"/>
      <point x="424" y="280"/>
      <point x="528" y="356"/>
    </contour>
  </outline>
</glyph>
<glyph name="plusminus" format="1">
  <advance width="687"/>
  <unicode hex="00B1"/>
  <outline>
    <contour>
      <point x="45" y="22" type="line"/>
      <point x="642" y="22" type="line"/>
      <point x="642" y="147" type="line"/>
      <point x="45" y="147" type="line"/>
    </contour>
    <contour>
      <point x="45" y="251" type="curve"/>
      <point x="642" y="251" type="line"/>
      <point x="642" y="376"/>
      <point x="642" y="251"/>
      <point x="642" y="376" type="curve"/>
      <point x="45" y="376" type="line"/>
      <point x="45" y="251"/>
      <point x="45" y="376"/>
    </contour>
    <contour>
      <point x="421" y="22" type="curve"/>
      <point x="421" y="587" type="line"/>
      <point x="265" y="587"/>
      <point x="430" y="587"/>
      <point x="275" y="587" type="curve"/>
      <point x="275" y="22" type="line"/>
      <point x="430" y="22"/>
      <point x="265" y="22"/>
    </contour>
  </outline>
</glyph>
<glyph name="twosuperior" format="1">
  <advance width="552"/>
  <unicode hex="00B2"/>
  <outline>
    <contour>
      <point x="35" y="264" type="curve"/>
      <point x="237" y="264"/>
      <point x="376" y="264"/>
      <point x="513" y="264" type="curve"/>
      <point x="513" y="325"/>
      <point x="513" y="328"/>
      <point x="513" y="376" type="curve"/>
      <point x="355" y="376"/>
      <point x="193" y="376"/>
      <point x="35" y="376" type="curve"/>
      <point x="35" y="264"/>
      <point x="35" y="376"/>
    </contour>
    <contour>
      <point x="142" y="556" type="curve"/>
      <point x="178" y="590"/>
      <point x="208" y="604"/>
      <point x="249" y="604" type="curve"/>
      <point x="291" y="604"/>
      <point x="327" y="594"/>
      <point x="327" y="565" type="curve"/>
      <point x="327" y="532"/>
      <point x="296" y="518"/>
      <point x="268" y="499" type="curve"/>
      <point x="190" y="457"/>
      <point x="112" y="417"/>
      <point x="35" y="376" type="curve"/>
      <point x="35" y="267"/>
      <point x="39" y="376"/>
      <point x="39" y="267" type="curve"/>
      <point x="167" y="330"/>
      <point x="263" y="368"/>
      <point x="345" y="414" type="curve"/>
      <point x="418" y="459"/>
      <point x="481" y="491"/>
      <point x="481" y="569" type="curve"/>
      <point x="481" y="677"/>
      <point x="386" y="717"/>
      <point x="267" y="717" type="curve"/>
      <point x="169" y="717"/>
      <point x="92" y="690"/>
      <point x="40" y="623" type="curve"/>
      <point x="142" y="556"/>
      <point x="40" y="623"/>
    </contour>
    <contour>
      <point x="251" y="716" type="move" name="_top"/>
    </contour>
    <contour>
      <point x="281" y="265" type="move" name="_bottom"/>
    </contour>
  </outline>
</glyph>
<glyph name="threesuperior" format="1">
  <advance width="488"/>
  <unicode hex="00B3"/>
  <outline>
    <contour>
      <point x="95" y="570" type="curve"/>
      <point x="133" y="599"/>
      <point x="176" y="606"/>
      <point x="204" y="606" type="curve"/>
      <point x="248" y="606"/>
      <point x="282" y="602"/>
      <point x="282" y="573" type="curve"/>
      <point x="282" y="538"/>
      <point x="213" y="537"/>
      <point x="153" y="536" type="curve"/>
      <point x="153" y="444"/>
      <point x="153" y="536"/>
      <point x="153" y="444" type="curve"/>
      <point x="301" y="445"/>
      <point x="436" y="457"/>
      <point x="436" y="580" type="curve"/>
      <point x="436" y="686"/>
      <point x="340" y="714"/>
      <point x="220" y="714" type="curve"/>
      <point x="149" y="714"/>
      <point x="83" y="692"/>
      <point x="31" y="651" type="curve"/>
      <point x="95" y="570"/>
      <point x="31" y="651"/>
    </contour>
    <contour>
      <point x="29" y="297" type="curve"/>
      <point x="83" y="273"/>
      <point x="135" y="257"/>
      <point x="194" y="257" type="curve"/>
      <point x="339" y="253"/>
      <point x="459" y="280"/>
      <point x="455" y="404" type="curve"/>
      <point x="455" y="537"/>
      <point x="307" y="524"/>
      <point x="153" y="526" type="curve"/>
      <point x="153" y="443"/>
      <point x="153" y="526"/>
      <point x="153" y="443" type="curve"/>
      <point x="227" y="442"/>
      <point x="301" y="443"/>
      <point x="301" y="404" type="curve"/>
      <point x="301" y="367"/>
      <point x="257" y="360"/>
      <point x="209" y="361" type="curve"/>
      <point x="173" y="361"/>
      <point x="139" y="368"/>
      <point x="88" y="384" type="curve"/>
      <point x="29" y="297"/>
      <point x="88" y="384"/>
    </contour>
    <contour>
      <point x="236" y="716" type="move" name="_top"/>
    </contour>
    <contour>
      <point x="221" y="256" type="move" name="_bottom"/>
    </contour>
  </outline>
</glyph>
<glyph name="acute" format="1">
  <advance width="292"/>
  <unicode hex="00B4"/>
  <outline>
    <contour>
      <point x="102" y="587" type="line"/>
      <point x="289" y="753" type="line"/>
      <point x="86" y="753" type="line"/>
      <point x="-52" y="587" type="line"/>
    </contour>
    <contour>
      <point x="39" y="588" type="move" name="_top"/>
    </contour>
  </outline>
</glyph>
<glyph name="paragraph" format="1">
  <advance width="950"/>
  <unicode hex="00B6"/>
  <outline>
    <contour>
      <point x="555" y="608" type="curve"/>
      <point x="743" y="608"/>
      <point x="555" y="608"/>
      <point x="743" y="608" type="curve"/>
      <point x="743" y="722"/>
      <point x="743" y="608"/>
      <point x="743" y="722" type="curve"/>
      <point x="680" y="722"/>
      <point x="617" y="722"/>
      <point x="555" y="722" type="curve"/>
      <point x="555" y="608"/>
      <point x="555" y="722"/>
    </contour>
    <contour>
      <point x="527" y="391" type="curve"/>
      <point x="466" y="369"/>
      <point x="419" y="358"/>
      <point x="353" y="358" type="curve"/>
      <point x="259" y="358"/>
      <point x="181" y="389"/>
      <point x="181" y="473" type="curve"/>
      <point x="181" y="578"/>
      <point x="284" y="608"/>
      <point x="403" y="608" type="curve"/>
      <point x="452" y="608"/>
      <point x="502" y="608"/>
      <point x="551" y="608" type="curve"/>
      <point x="551" y="722"/>
      <point x="551" y="608"/>
      <point x="551" y="722" type="curve"/>
      <point x="494" y="722"/>
      <point x="439" y="722"/>
      <point x="382" y="722" type="curve"/>
      <point x="186" y="722"/>
      <point x="25" y="654"/>
      <point x="25" y="478" type="curve"/>
      <point x="25" y="310"/>
      <point x="179" y="247"/>
      <point x="367" y="244" type="curve"/>
      <point x="443" y="244"/>
      <point x="506" y="263"/>
      <point x="577" y="289" type="curve"/>
      <point x="527" y="391"/>
      <point x="577" y="289"/>
    </contour>
    <contour>
      <point x="633" y="0" type="curve"/>
      <point x="633" y="241"/>
      <point x="633" y="481"/>
      <point x="633" y="722" type="curve"/>
      <point x="478" y="722"/>
      <point x="633" y="722"/>
      <point x="478" y="722" type="curve"/>
      <point x="478" y="481"/>
      <point x="478" y="241"/>
      <point x="478" y="0" type="curve"/>
      <point x="633" y="0"/>
      <point x="478" y="0"/>
    </contour>
    <contour>
      <point x="891" y="0" type="curve"/>
      <point x="891" y="241"/>
      <point x="891" y="481"/>
      <point x="891" y="722" type="curve"/>
      <point x="735" y="722"/>
      <point x="891" y="722"/>
      <point x="735" y="722" type="curve"/>
      <point x="735" y="481"/>
      <point x="735" y="241"/>
      <point x="735" y="0" type="curve"/>
      <point x="891" y="0"/>
      <point x="735" y="0"/>
    </contour>
  </outline>
</glyph>
<glyph name="periodcentered" format="1">
  <advance width="256"/>
  <unicode hex="00B7"/>
  <outline>
    <contour>
      <point x="219" y="440" type="curve"/>
      <point x="219" y="491"/>
      <point x="179" y="514"/>
      <point x="126" y="514" type="curve"/>
      <point x="73" y="514"/>
      <point x="37" y="488"/>
      <point x="37" y="440" type="curve"/>
      <point x="218" y="440"/>
      <point x="37" y="440"/>
      <point x="219" y="440" type="curve"/>
      <point x="219" y="388"/>
      <point x="179" y="367"/>
      <point x="125" y="367" type="curve"/>
      <point x="72" y="367"/>
      <point x="37" y="391"/>
      <point x="37" y="440" type="curve"/>
      <point x="218" y="440"/>
      <point x="37" y="440"/>
    </contour>
  </outline>
</glyph>
<glyph name="cedilla" format="1">
  <advance width="371"/>
  <unicode hex="00B8"/>
  <outline>
    <contour>
      <point x="164" y="178" type="curve"/>
      <point x="148" y="157"/>
      <point x="70" y="53"/>
      <point x="53" y="31" type="curve"/>
      <point x="159" y="-61"/>
      <point x="53" y="31"/>
      <point x="159" y="-61" type="curve"/>
      <point x="180" y="-34"/>
      <point x="265" y="73"/>
      <point x="285" y="99" type="curve"/>
      <point x="164" y="178"/>
      <point x="285" y="99"/>
    </contour>
    <contour>
      <point x="159" y="-61" type="curve"/>
      <point x="164" y="-57"/>
      <point x="168" y="-55"/>
      <point x="173" y="-55" type="curve"/>
      <point x="182" y="-55"/>
      <point x="189" y="-57"/>
      <point x="189" y="-65" type="curve"/>
      <point x="189" y="-78"/>
      <point x="176" y="-81"/>
      <point x="161" y="-81" type="curve"/>
      <point x="135" y="-81"/>
      <point x="112" y="-73"/>
      <point x="76" y="-59" type="curve"/>
      <point x="32" y="-147"/>
      <point x="76" y="-59"/>
      <point x="32" y="-147" type="curve"/>
      <point x="75" y="-164"/>
      <point x="108" y="-175"/>
      <point x="154" y="-175" type="curve"/>
      <point x="253" y="-175"/>
      <point x="332" y="-148"/>
      <point x="332" y="-61" type="curve"/>
      <point x="332" y="19"/>
      <point x="267" y="55"/>
      <point x="182" y="55" type="curve"/>
      <point x="133" y="55"/>
      <point x="99" y="47"/>
      <point x="53" y="31" type="curve"/>
      <point x="159" y="-61"/>
      <point x="53" y="31"/>
    </contour>
    <contour>
      <point x="258" y="99" type="move" name="_bottom"/>
    </contour>
  </outline>
</glyph>
<glyph name="onesuperior" format="1">
  <advance width="351"/>
  <unicode hex="00B9"/>
  <outline>
    <contour>
      <point x="73" y="517" type="line"/>
      <point x="297" y="706" type="line"/>
      <point x="143" y="707" type="line"/>
      <point x="7" y="598" type="line"/>
    </contour>
    <contour>
      <point x="297" y="265" type="curve"/>
      <point x="297" y="707" type="line"/>
      <point x="143" y="707" type="line"/>
      <point x="143" y="265" type="line"/>
      <point x="260" y="265"/>
      <point x="200" y="265"/>
    </contour>
    <contour>
      <point x="209" y="706" type="move" name="_top"/>
    </contour>
    <contour>
      <point x="224" y="265" type="move" name="_bottom"/>
    </contour>
  </outline>
</glyph>
<glyph name="ordmasculine" format="1">
  <advance width="519"/>
  <unicode hex="00BA"/>
  <outline>
    <contour>
      <point x="136" y="605" type="curve"/>
      <point x="136" y="672"/>
      <point x="182" y="711"/>
      <point x="255" y="711" type="curve"/>
      <point x="333" y="711"/>
      <point x="383" y="673"/>
      <point x="383" y="605" type="curve"/>
      <point x="383" y="533"/>
      <point x="333" y="499"/>
      <point x="263" y="499" type="curve"/>
      <point x="187" y="499"/>
      <point x="136" y="533"/>
      <point x="136" y="605" type="curve"/>
      <point x="38" y="605"/>
      <point x="127" y="605"/>
      <point x="30" y="605" type="curve"/>
      <point x="30" y="478"/>
      <point x="125" y="421"/>
      <point x="258" y="421" type="curve"/>
      <point x="392" y="421"/>
      <point x="490" y="477"/>
      <point x="490" y="605" type="curve"/>
      <point x="490" y="726"/>
      <point x="396" y="789"/>
      <point x="260" y="789" type="curve"/>
      <point x="123" y="789"/>
      <point x="30" y="726"/>
      <point x="30" y="605" type="curve"/>
      <point x="127" y="605"/>
      <point x="38" y="605"/>
    </contour>
  </outline>
</glyph>
<glyph name="guillemotright" format="1">
  <advance width="641"/>
  <unicode hex="00BB"/>
  <outline>
    <contour>
      <point x="347" y="481" type="curve"/>
      <point x="416" y="448"/>
      <point x="538" y="385"/>
      <point x="608" y="351" type="curve"/>
      <point x="608" y="225"/>
      <point x="608" y="349"/>
      <point x="608" y="223" type="curve"/>
      <point x="538" y="257"/>
      <point x="416" y="320"/>
      <point x="347" y="355" type="curve"/>
      <point x="347" y="480"/>
      <point x="347" y="356"/>
    </contour>
    <contour>
      <point x="347" y="223" type="curve"/>
      <point x="416" y="256"/>
      <point x="538" y="317"/>
      <point x="608" y="351" type="curve"/>
      <point x="608" y="225"/>
      <point x="608" y="349"/>
      <point x="608" y="223" type="curve"/>
      <point x="538" y="190"/>
      <point x="416" y="130"/>
      <point x="347" y="96" type="curve"/>
      <point x="347" y="222"/>
      <point x="347" y="97"/>
    </contour>
    <contour>
      <point x="52" y="481" type="curve"/>
      <point x="122" y="448"/>
      <point x="244" y="385"/>
      <point x="314" y="351" type="curve"/>
      <point x="314" y="225"/>
      <point x="314" y="349"/>
      <point x="314" y="223" type="curve"/>
      <point x="244" y="257"/>
      <point x="122" y="320"/>
      <point x="52" y="355" type="curve"/>
      <point x="52" y="480"/>
      <point x="52" y="356"/>
    </contour>
    <contour>
      <point x="52" y="223" type="curve"/>
      <point x="122" y="256"/>
      <point x="244" y="317"/>
      <point x="314" y="351" type="curve"/>
      <point x="314" y="225"/>
      <point x="314" y="349"/>
      <point x="314" y="223" type="curve"/>
      <point x="244" y="190"/>
      <point x="122" y="130"/>
      <point x="52" y="96" type="curve"/>
      <point x="52" y="222"/>
      <point x="52" y="97"/>
    </contour>
  </outline>
</glyph>
<glyph name="onequarter" format="1">
  <advance width="1133"/>
  <unicode hex="00BC"/>
  <outline>
    <contour>
      <point x="374" y="-33" type="line"/>
      <point x="905" y="704" type="line"/>
      <point x="763" y="704" type="line"/>
      <point x="232" y="-33" type="line"/>
    </contour>
    <contour>
      <point x="88" y="517" type="line"/>
      <point x="311" y="706" type="line"/>
      <point x="158" y="706" type="line"/>
      <point x="21" y="598" type="line"/>
    </contour>
    <contour>
      <point x="311" y="264" type="curve"/>
      <point x="311" y="706" type="line"/>
      <point x="158" y="706" type="line"/>
      <point x="158" y="264" type="line"/>
      <point x="275" y="264"/>
      <point x="215" y="264"/>
    </contour>
    <contour>
      <point x="1102" y="208" type="line"/>
      <point x="639" y="208" type="line"/>
      <point x="639" y="101" type="line"/>
      <point x="1102" y="101" type="line"/>
    </contour>
    <contour>
      <point x="671" y="115" type="line"/>
      <point x="981" y="409" type="line"/>
      <point x="861" y="425" type="line"/>
      <point x="639" y="208" type="line"/>
    </contour>
    <contour>
      <point x="1015" y="-37" type="line"/>
      <point x="1015" y="425" type="line"/>
      <point x="861" y="425" type="line"/>
      <point x="861" y="-37" type="line"/>
    </contour>
  </outline>
</glyph>
<glyph name="onehalf" format="1">
  <advance width="1197"/>
  <unicode hex="00BD"/>
  <outline>
    <contour>
      <point x="378" y="-33" type="line"/>
      <point x="909" y="704" type="line"/>
      <point x="767" y="704" type="line"/>
      <point x="236" y="-33" type="line"/>
    </contour>
    <contour>
      <point x="88" y="517" type="line"/>
      <point x="311" y="706" type="line"/>
      <point x="158" y="706" type="line"/>
      <point x="21" y="598" type="line"/>
    </contour>
    <contour>
      <point x="311" y="264" type="curve"/>
      <point x="311" y="706" type="line"/>
      <point x="158" y="706" type="line"/>
      <point x="158" y="264" type="line"/>
      <point x="275" y="264"/>
      <point x="215" y="264"/>
    </contour>
    <contour>
      <point x="685" y="-38" type="curve"/>
      <point x="887" y="-38"/>
      <point x="1026" y="-38"/>
      <point x="1163" y="-38" type="curve"/>
      <point x="1163" y="23"/>
      <point x="1163" y="26"/>
      <point x="1163" y="74" type="curve"/>
      <point x="1005" y="74"/>
      <point x="843" y="74"/>
      <point x="685" y="74" type="curve"/>
      <point x="685" y="-38"/>
      <point x="685" y="74"/>
    </contour>
    <contour>
      <point x="792" y="254" type="curve"/>
      <point x="828" y="288"/>
      <point x="859" y="302"/>
      <point x="900" y="302" type="curve"/>
      <point x="942" y="302"/>
      <point x="978" y="292"/>
      <point x="978" y="263" type="curve"/>
      <point x="978" y="230"/>
      <point x="947" y="216"/>
      <point x="918" y="197" type="curve"/>
      <point x="841" y="155"/>
      <point x="763" y="115"/>
      <point x="685" y="74" type="curve"/>
      <point x="686" y="-35"/>
      <point x="690" y="74"/>
      <point x="690" y="-35" type="curve"/>
      <point x="818" y="28"/>
      <point x="914" y="66"/>
      <point x="996" y="111" type="curve"/>
      <point x="1069" y="157"/>
      <point x="1132" y="189"/>
      <point x="1132" y="267" type="curve"/>
      <point x="1132" y="375"/>
      <point x="1037" y="414"/>
      <point x="918" y="414" type="curve"/>
      <point x="820" y="414"/>
      <point x="743" y="388"/>
      <point x="691" y="321" type="curve"/>
      <point x="792" y="254"/>
      <point x="691" y="321"/>
    </contour>
  </outline>
</glyph>
<glyph name="threequarters" format="1">
  <advance width="1127"/>
  <unicode hex="00BE"/>
  <outline>
    <contour>
      <point x="391" y="-33" type="line"/>
      <point x="922" y="704" type="line"/>
      <point x="780" y="704" type="line"/>
      <point x="249" y="-33" type="line"/>
    </contour>
    <contour>
      <point x="96" y="559" type="curve"/>
      <point x="134" y="588"/>
      <point x="176" y="596"/>
      <point x="205" y="596" type="curve"/>
      <point x="248" y="596"/>
      <point x="283" y="591"/>
      <point x="283" y="562" type="curve"/>
      <point x="283" y="528"/>
      <point x="213" y="526"/>
      <point x="154" y="525" type="curve"/>
      <point x="154" y="433"/>
      <point x="154" y="525"/>
      <point x="154" y="433" type="curve"/>
      <point x="302" y="434"/>
      <point x="436" y="446"/>
      <point x="436" y="569" type="curve"/>
      <point x="436" y="675"/>
      <point x="340" y="703"/>
      <point x="221" y="703" type="curve"/>
      <point x="150" y="703"/>
      <point x="84" y="681"/>
      <point x="31" y="640" type="curve"/>
      <point x="96" y="559"/>
      <point x="31" y="640"/>
    </contour>
    <contour>
      <point x="30" y="286" type="curve"/>
      <point x="84" y="262"/>
      <point x="136" y="246"/>
      <point x="194" y="246" type="curve"/>
      <point x="340" y="242"/>
      <point x="459" y="269"/>
      <point x="456" y="393" type="curve"/>
      <point x="456" y="526"/>
      <point x="308" y="513"/>
      <point x="154" y="515" type="curve"/>
      <point x="154" y="432"/>
      <point x="154" y="515"/>
      <point x="154" y="432" type="curve"/>
      <point x="228" y="431"/>
      <point x="302" y="432"/>
      <point x="302" y="393" type="curve"/>
      <point x="302" y="356"/>
      <point x="258" y="349"/>
      <point x="209" y="350" type="curve"/>
      <point x="174" y="350"/>
      <point x="139" y="357"/>
      <point x="88" y="373" type="curve"/>
      <point x="30" y="286"/>
      <point x="88" y="373"/>
    </contour>
    <contour>
      <point x="1102" y="208" type="line"/>
      <point x="639" y="208" type="line"/>
      <point x="639" y="101" type="line"/>
      <point x="1102" y="101" type="line"/>
    </contour>
    <contour>
      <point x="671" y="115" type="line"/>
      <point x="981" y="409" type="line"/>
      <point x="861" y="425" type="line"/>
      <point x="639" y="208" type="line"/>
    </contour>
    <contour>
      <point x="1015" y="-37" type="line"/>
      <point x="1015" y="425" type="line"/>
      <point x="861" y="425" type="line"/>
      <point x="861" y="-37" type="line"/>
    </contour>
  </outline>
</glyph>
<glyph name="questiondown" format="1">
  <advance width="628"/>
  <unicode hex="00BF"/>
  <outline>
    <contour>
      <point x="417" y="321" type="curve"/>
      <point x="417" y="358"/>
      <point x="417" y="446"/>
      <point x="417" y="483" type="curve"/>
      <point x="262" y="483"/>
      <point x="417" y="483"/>
      <point x="262" y="483" type="curve"/>
      <point x="262" y="446"/>
      <point x="262" y="358"/>
      <point x="262" y="321" type="curve"/>
      <point x="417" y="321"/>
      <point x="262" y="321"/>
    </contour>
    <contour>
      <point x="513" y="141" type="line"/>
      <point x="472" y="102"/>
      <point x="407" y="67"/>
      <point x="333" y="67" type="curve"/>
      <point x="245" y="67"/>
      <point x="175" y="102"/>
      <point x="175" y="185" type="curve"/>
      <point x="175" y="278"/>
      <point x="273" y="321"/>
      <point x="399" y="321" type="curve"/>
      <point x="399" y="363"/>
      <point x="399" y="393"/>
      <point x="399" y="435" type="curve"/>
      <point x="188" y="435"/>
      <point x="26" y="353"/>
      <point x="26" y="185" type="curve"/>
      <point x="26" y="27"/>
      <point x="156" y="-52"/>
      <point x="325" y="-52" type="curve"/>
      <point x="433" y="-52"/>
      <point x="517" y="-18"/>
      <point x="592" y="53" type="curve"/>
    </contour>
    <contour>
      <point x="246" y="682" type="curve"/>
      <point x="246" y="631"/>
      <point x="286" y="607"/>
      <point x="338" y="607" type="curve"/>
      <point x="391" y="607"/>
      <point x="428" y="634"/>
      <point x="428" y="682" type="curve"/>
      <point x="246" y="682"/>
      <point x="428" y="682"/>
      <point x="246" y="682" type="curve"/>
      <point x="246" y="733"/>
      <point x="285" y="755"/>
      <point x="339" y="755" type="curve"/>
      <point x="392" y="755"/>
      <point x="428" y="730"/>
      <point x="428" y="682" type="curve"/>
      <point x="246" y="682"/>
      <point x="428" y="682"/>
    </contour>
  </outline>
</glyph>
<glyph name="Agrave" format="1">
  <advance width="880"/>
  <unicode hex="00C0"/>
  <outline>
    <contour>
      <point x="643" y="314" type="curve"/>
      <point x="513" y="314"/>
      <point x="383" y="314"/>
      <point x="253" y="314" type="curve"/>
      <point x="189" y="194"/>
      <point x="253" y="314"/>
      <point x="189" y="194" type="curve"/>
      <point x="356" y="194"/>
      <point x="525" y="194"/>
      <point x="693" y="194" type="curve"/>
      <point x="643" y="314"/>
      <point x="693" y="194"/>
    </contour>
    <contour>
      <point x="872" y="0" type="curve"/>
      <point x="759" y="242"/>
      <point x="639" y="480"/>
      <point x="526" y="722" type="curve"/>
      <point x="384" y="722"/>
      <point x="526" y="722"/>
      <point x="384" y="722" type="curve"/>
      <point x="495" y="483"/>
      <point x="598" y="239"/>
      <point x="708" y="0" type="curve"/>
      <point x="872" y="0"/>
      <point x="708" y="0"/>
    </contour>
    <contour>
      <point x="164" y="0" type="curve"/>
      <point x="288" y="239"/>
      <point x="401" y="483"/>
      <point x="524" y="722" type="curve"/>
      <point x="383" y="722"/>
      <point x="524" y="722"/>
      <point x="383" y="722" type="curve"/>
      <point x="256" y="480"/>
      <point x="121" y="242"/>
      <point x="-6" y="0" type="curve"/>
      <point x="164" y="0"/>
      <point x="-6" y="0"/>
    </contour>
    <contour>
      <point x="543" y="780" type="line"/>
      <point x="401" y="946" type="line"/>
      <point x="199" y="946" type="line"/>
      <point x="386" y="780" type="line"/>
    </contour>
  </outline>
</glyph>
<glyph name="Acircumflex" format="1">
  <advance width="880"/>
  <unicode hex="00C2"/>
  <outline>
    <contour>
      <point x="643" y="314" type="curve"/>
      <point x="513" y="314"/>
      <point x="383" y="314"/>
      <point x="253" y="314" type="curve"/>
      <point x="189" y="194"/>
      <point x="253" y="314"/>
      <point x="189" y="194" type="curve"/>
      <point x="356" y="194"/>
      <point x="525" y="194"/>
      <point x="693" y="194" type="curve"/>
      <point x="643" y="314"/>
      <point x="693" y="194"/>
    </contour>
    <contour>
      <point x="872" y="0" type="curve"/>
      <point x="759" y="242"/>
      <point x="639" y="480"/>
      <point x="526" y="722" type="curve"/>
      <point x="384" y="722"/>
      <point x="526" y="722"/>
      <point x="384" y="722" type="curve"/>
      <point x="495" y="483"/>
      <point x="598" y="239"/>
      <point x="708" y="0" type="curve"/>
      <point x="872" y="0"/>
      <point x="708" y="0"/>
    </contour>
    <contour>
      <point x="164" y="0" type="curve"/>
      <point x="288" y="239"/>
      <point x="401" y="483"/>
      <point x="524" y="722" type="curve"/>
      <point x="383" y="722"/>
      <point x="524" y="722"/>
      <point x="383" y="722" type="curve"/>
      <point x="256" y="480"/>
      <point x="121" y="242"/>
      <point x="-6" y="0" type="curve"/>
      <point x="164" y="0"/>
      <point x="-6" y="0"/>
    </contour>
    <contour>
      <point x="342" y="782" type="line"/>
      <point x="529" y="948" type="line"/>
      <point x="327" y="948" type="line"/>
      <point x="188" y="782" type="line"/>
    </contour>
    <contour>
      <point x="720" y="782" type="line"/>
      <point x="578" y="948" type="line"/>
      <point x="376" y="948" type="line"/>
      <point x="563" y="782" type="line"/>
    </contour>
  </outline>
</glyph>
<glyph name="Atilde" format="1">
  <advance width="880"/>
  <unicode hex="00C3"/>
  <outline>
    <contour>
      <point x="643" y="314" type="curve"/>
      <point x="513" y="314"/>
      <point x="383" y="314"/>
      <point x="253" y="314" type="curve"/>
      <point x="189" y="194"/>
      <point x="253" y="314"/>
      <point x="189" y="194" type="curve"/>
      <point x="356" y="194"/>
      <point x="525" y="194"/>
      <point x="693" y="194" type="curve"/>
      <point x="643" y="314"/>
      <point x="693" y="194"/>
    </contour>
    <contour>
      <point x="872" y="0" type="curve"/>
      <point x="759" y="242"/>
      <point x="639" y="480"/>
      <point x="526" y="722" type="curve"/>
      <point x="384" y="722"/>
      <point x="526" y="722"/>
      <point x="384" y="722" type="curve"/>
      <point x="495" y="483"/>
      <point x="598" y="239"/>
      <point x="708" y="0" type="curve"/>
      <point x="872" y="0"/>
      <point x="708" y="0"/>
    </contour>
    <contour>
      <point x="164" y="0" type="curve"/>
      <point x="288" y="239"/>
      <point x="401" y="483"/>
      <point x="524" y="722" type="curve"/>
      <point x="383" y="722"/>
      <point x="524" y="722"/>
      <point x="383" y="722" type="curve"/>
      <point x="256" y="480"/>
      <point x="121" y="242"/>
      <point x="-6" y="0" type="curve"/>
      <point x="164" y="0"/>
      <point x="-6" y="0"/>
    </contour>
    <contour>
      <point x="621" y="960" type="curve"/>
      <point x="610" y="924"/>
      <point x="589" y="890"/>
      <point x="559" y="890" type="curve"/>
      <point x="524" y="890"/>
      <point x="504" y="900"/>
      <point x="476" y="922" type="curve"/>
      <point x="432" y="955"/>
      <point x="398" y="969"/>
      <point x="343" y="969" type="curve"/>
      <point x="255" y="969"/>
      <point x="201" y="920"/>
      <point x="164" y="830" type="curve"/>
      <point x="280" y="774"/>
      <point x="166" y="829"/>
      <point x="281" y="774" type="curve"/>
      <point x="299" y="819"/>
      <point x="320" y="845"/>
      <point x="349" y="845" type="curve"/>
      <point x="383" y="845"/>
      <point x="401" y="832"/>
      <point x="427" y="813" type="curve"/>
      <point x="476" y="778"/>
      <point x="508" y="767"/>
      <point x="565" y="767" type="curve"/>
      <point x="657" y="767"/>
      <point x="711" y="819"/>
      <point x="743" y="907" type="curve"/>
      <point x="622" y="959"/>
      <point x="742" y="906"/>
    </contour>
  </outline>
</glyph>
<glyph name="Adieresis" format="1">
  <advance width="880"/>
  <unicode hex="00C4"/>
  <outline>
    <contour>
      <point x="643" y="314" type="curve"/>
      <point x="513" y="314"/>
      <point x="383" y="314"/>
      <point x="253" y="314" type="curve"/>
      <point x="189" y="194"/>
      <point x="253" y="314"/>
      <point x="189" y="194" type="curve"/>
      <point x="356" y="194"/>
      <point x="525" y="194"/>
      <point x="693" y="194" type="curve"/>
      <point x="643" y="314"/>
      <point x="693" y="194"/>
    </contour>
    <contour>
      <point x="872" y="0" type="curve"/>
      <point x="759" y="242"/>
      <point x="639" y="480"/>
      <point x="526" y="722" type="curve"/>
      <point x="384" y="722"/>
      <point x="526" y="722"/>
      <point x="384" y="722" type="curve"/>
      <point x="495" y="483"/>
      <point x="598" y="239"/>
      <point x="708" y="0" type="curve"/>
      <point x="872" y="0"/>
      <point x="708" y="0"/>
    </contour>
    <contour>
      <point x="164" y="0" type="curve"/>
      <point x="288" y="239"/>
      <point x="401" y="483"/>
      <point x="524" y="722" type="curve"/>
      <point x="383" y="722"/>
      <point x="524" y="722"/>
      <point x="383" y="722" type="curve"/>
      <point x="256" y="480"/>
      <point x="121" y="242"/>
      <point x="-6" y="0" type="curve"/>
      <point x="164" y="0"/>
      <point x="-6" y="0"/>
    </contour>
    <contour>
      <point x="427" y="851" type="curve"/>
      <point x="427" y="902"/>
      <point x="387" y="926"/>
      <point x="334" y="926" type="curve"/>
      <point x="281" y="926"/>
      <point x="245" y="899"/>
      <point x="245" y="851" type="curve"/>
      <point x="426" y="851"/>
      <point x="245" y="851"/>
      <point x="427" y="851" type="curve"/>
      <point x="427" y="799"/>
      <point x="387" y="778"/>
      <point x="333" y="778" type="curve"/>
      <point x="280" y="778"/>
      <point x="245" y="802"/>
      <point x="245" y="851" type="curve"/>
      <point x="426" y="851"/>
      <point x="245" y="851"/>
    </contour>
    <contour>
      <point x="662" y="851" type="curve"/>
      <point x="662" y="902"/>
      <point x="622" y="926"/>
      <point x="570" y="926" type="curve"/>
      <point x="516" y="926"/>
      <point x="480" y="899"/>
      <point x="480" y="851" type="curve"/>
      <point x="661" y="851"/>
      <point x="480" y="851"/>
      <point x="662" y="851" type="curve"/>
      <point x="662" y="799"/>
      <point x="623" y="778"/>
      <point x="569" y="778" type="curve"/>
      <point x="515" y="778"/>
      <point x="480" y="802"/>
      <point x="480" y="851" type="curve"/>
      <point x="661" y="851"/>
      <point x="480" y="851"/>
    </contour>
  </outline>
</glyph>
<glyph name="Aring" format="1">
  <advance width="880"/>
  <unicode hex="00C5"/>
  <outline>
    <contour>
      <point x="643" y="314" type="curve"/>
      <point x="513" y="314"/>
      <point x="383" y="314"/>
      <point x="253" y="314" type="curve"/>
      <point x="189" y="194"/>
      <point x="253" y="314"/>
      <point x="189" y="194" type="curve"/>
      <point x="356" y="194"/>
      <point x="525" y="194"/>
      <point x="693" y="194" type="curve"/>
      <point x="643" y="314"/>
      <point x="693" y="194"/>
    </contour>
    <contour>
      <point x="872" y="0" type="curve"/>
      <point x="759" y="242"/>
      <point x="639" y="480"/>
      <point x="526" y="722" type="curve"/>
      <point x="384" y="722"/>
      <point x="526" y="722"/>
      <point x="384" y="722" type="curve"/>
      <point x="495" y="483"/>
      <point x="598" y="239"/>
      <point x="708" y="0" type="curve"/>
      <point x="872" y="0"/>
      <point x="708" y="0"/>
    </contour>
    <contour>
      <point x="164" y="0" type="curve"/>
      <point x="288" y="239"/>
      <point x="401" y="483"/>
      <point x="524" y="722" type="curve"/>
      <point x="383" y="722"/>
      <point x="524" y="722"/>
      <point x="383" y="722" type="curve"/>
      <point x="256" y="480"/>
      <point x="121" y="242"/>
      <point x="-6" y="0" type="curve"/>
      <point x="164" y="0"/>
      <point x="-6" y="0"/>
    </contour>
    <contour>
      <point x="254" y="926" type="curve"/>
      <point x="254" y="822"/>
      <point x="341" y="777"/>
      <point x="455" y="777" type="curve"/>
      <point x="571" y="777"/>
      <point x="660" y="821"/>
      <point x="660" y="926" type="curve"/>
      <point x="660" y="1032"/>
      <point x="570" y="1075"/>
      <point x="453" y="1075" type="curve"/>
      <point x="339" y="1075"/>
      <point x="254" y="1030"/>
      <point x="254" y="926" type="curve"/>
      <point x="384" y="926"/>
      <point x="253" y="926"/>
      <point x="383" y="926" type="curve"/>
      <point x="383" y="966"/>
      <point x="414" y="980"/>
      <point x="453" y="980" type="curve"/>
      <point x="495" y="980"/>
      <point x="530" y="971"/>
      <point x="530" y="926" type="curve"/>
      <point x="530" y="885"/>
      <point x="496" y="873"/>
      <point x="455" y="873" type="curve"/>
      <point x="416" y="873"/>
      <point x="383" y="886"/>
      <point x="383" y="926" type="curve"/>
      <point x="253" y="926"/>
      <point x="384" y="926"/>
    </contour>
  </outline>
</glyph>
<glyph name="AE" format="1">
  <advance width="1173"/>
  <unicode hex="00C6"/>
  <outline>
    <contour>
      <point x="560" y="294" type="curve"/>
      <point x="430" y="294"/>
      <point x="374" y="294"/>
      <point x="244" y="294" type="curve"/>
      <point x="180" y="174"/>
      <point x="244" y="294"/>
      <point x="180" y="174" type="curve"/>
      <point x="348" y="174"/>
      <point x="442" y="174"/>
      <point x="610" y="174" type="curve"/>
      <point x="560" y="294"/>
      <point x="610" y="174"/>
    </contour>
    <contour>
      <point x="155" y="0" type="curve"/>
      <point x="678" y="722" type="line"/>
      <point x="536" y="722"/>
      <point x="678" y="722"/>
      <point x="536" y="722" type="curve"/>
      <point x="-15" y="0" type="line"/>
      <point x="155" y="0"/>
      <point x="-15" y="0"/>
    </contour>
    <contour>
      <point x="621" y="315" type="curve"/>
      <point x="757" y="315"/>
      <point x="893" y="315"/>
      <point x="1029" y="315" type="curve"/>
      <point x="1029" y="430"/>
      <point x="1029" y="315"/>
      <point x="1029" y="430" type="curve"/>
      <point x="893" y="430"/>
      <point x="757" y="430"/>
      <point x="621" y="430" type="curve"/>
      <point x="621" y="315"/>
      <point x="621" y="430"/>
    </contour>
    <contour>
      <point x="602" y="608" type="curve"/>
      <point x="770" y="608"/>
      <point x="939" y="608"/>
      <point x="1108" y="608" type="curve"/>
      <point x="1108" y="722"/>
      <point x="1108" y="608"/>
      <point x="1108" y="722" type="curve"/>
      <point x="939" y="722"/>
      <point x="770" y="722"/>
      <point x="602" y="722" type="curve"/>
      <point x="602" y="608"/>
      <point x="602" y="722"/>
    </contour>
    <contour>
      <point x="694" y="0" type="curve"/>
      <point x="694" y="722" type="line"/>
      <point x="537" y="722"/>
      <point x="694" y="722"/>
      <point x="537" y="722" type="curve"/>
      <point x="537" y="481"/>
      <point x="537" y="241"/>
      <point x="537" y="0" type="curve"/>
      <point x="694" y="0"/>
      <point x="537" y="0"/>
    </contour>
    <contour>
      <point x="602" y="0" type="curve"/>
      <point x="785" y="0"/>
      <point x="967" y="0"/>
      <point x="1150" y="0" type="curve"/>
      <point x="1150" y="114"/>
      <point x="1150" y="0"/>
      <point x="1150" y="114" type="curve"/>
      <point x="967" y="114"/>
      <point x="785" y="114"/>
      <point x="602" y="114" type="curve"/>
      <point x="602" y="0"/>
      <point x="602" y="114"/>
    </contour>
  </outline>
</glyph>
<glyph name="Ccedilla" format="1">
  <advance width="825"/>
  <unicode hex="00C7"/>
  <outline>
    <contour>
      <point x="817" y="654" type="curve"/>
      <point x="720" y="696"/>
      <point x="618" y="727"/>
      <point x="504" y="727" type="curve"/>
      <point x="229" y="727"/>
      <point x="37" y="604"/>
      <point x="37" y="344" type="curve"/>
      <point x="37" y="104"/>
      <point x="216" y="-5"/>
      <point x="472" y="-5" type="curve"/>
      <point x="621" y="-5"/>
      <point x="713" y="23"/>
      <point x="818" y="88" type="curve"/>
      <point x="758" y="188"/>
      <point x="817" y="88"/>
      <point x="757" y="188" type="curve"/>
      <point x="656" y="133"/>
      <point x="583" y="116"/>
      <point x="478" y="116" type="curve"/>
      <point x="309" y="116"/>
      <point x="193" y="191"/>
      <point x="193" y="350" type="curve"/>
      <point x="193" y="522"/>
      <point x="316" y="608"/>
      <point x="496" y="608" type="curve"/>
      <point x="582" y="608"/>
      <point x="660" y="595"/>
      <point x="755" y="555" type="curve"/>
      <point x="817" y="654"/>
      <point x="755" y="555"/>
    </contour>
    <contour>
      <point x="416" y="85" type="curve"/>
      <point x="400" y="64"/>
      <point x="322" y="-40"/>
      <point x="305" y="-62" type="curve"/>
      <point x="411" y="-153"/>
      <point x="305" y="-62"/>
      <point x="411" y="-153" type="curve"/>
      <point x="432" y="-127"/>
      <point x="517" y="-20"/>
      <point x="537" y="6" type="curve"/>
      <point x="416" y="85"/>
      <point x="537" y="6"/>
    </contour>
    <contour>
      <point x="411" y="-153" type="curve"/>
      <point x="416" y="-150"/>
      <point x="420" y="-148"/>
      <point x="425" y="-148" type="curve"/>
      <point x="434" y="-148"/>
      <point x="441" y="-150"/>
      <point x="441" y="-158" type="curve"/>
      <point x="441" y="-171"/>
      <point x="428" y="-174"/>
      <point x="413" y="-174" type="curve"/>
      <point x="387" y="-174"/>
      <point x="364" y="-166"/>
      <point x="328" y="-152" type="curve"/>
      <point x="284" y="-240"/>
      <point x="328" y="-152"/>
      <point x="284" y="-240" type="curve"/>
      <point x="327" y="-257"/>
      <point x="360" y="-268"/>
      <point x="406" y="-268" type="curve"/>
      <point x="505" y="-268"/>
      <point x="584" y="-241"/>
      <point x="584" y="-154" type="curve"/>
      <point x="584" y="-74"/>
      <point x="519" y="-38"/>
      <point x="434" y="-38" type="curve"/>
      <point x="385" y="-38"/>
      <point x="351" y="-46"/>
      <point x="305" y="-62" type="curve"/>
      <point x="411" y="-153"/>
      <point x="305" y="-62"/>
    </contour>
  </outline>
</glyph>
<glyph name="Egrave" format="1">
  <advance width="703"/>
  <unicode hex="00C8"/>
  <outline>
    <contour>
      <point x="151" y="315" type="curve"/>
      <point x="287" y="315"/>
      <point x="424" y="315"/>
      <point x="560" y="315" type="curve"/>
      <point x="560" y="430"/>
      <point x="560" y="315"/>
      <point x="560" y="430" type="curve"/>
      <point x="424" y="430"/>
      <point x="287" y="430"/>
      <point x="151" y="430" type="curve"/>
      <point x="151" y="315"/>
      <point x="151" y="430"/>
    </contour>
    <contour>
      <point x="132" y="608" type="curve"/>
      <point x="301" y="608"/>
      <point x="470" y="608"/>
      <point x="638" y="608" type="curve"/>
      <point x="638" y="722"/>
      <point x="638" y="608"/>
      <point x="638" y="722" type="curve"/>
      <point x="470" y="722"/>
      <point x="301" y="722"/>
      <point x="132" y="722" type="curve"/>
      <point x="132" y="608"/>
      <point x="132" y="722"/>
    </contour>
    <contour>
      <point x="224" y="0" type="curve"/>
      <point x="224" y="722" type="line"/>
      <point x="68" y="722"/>
      <point x="224" y="722"/>
      <point x="68" y="722" type="curve"/>
      <point x="68" y="481"/>
      <point x="68" y="241"/>
      <point x="68" y="0" type="curve"/>
      <point x="224" y="0"/>
      <point x="68" y="0"/>
    </contour>
    <contour>
      <point x="132" y="0" type="curve"/>
      <point x="315" y="0"/>
      <point x="497" y="0"/>
      <point x="680" y="0" type="curve"/>
      <point x="680" y="114"/>
      <point x="680" y="0"/>
      <point x="680" y="114" type="curve"/>
      <point x="497" y="114"/>
      <point x="315" y="114"/>
      <point x="132" y="114" type="curve"/>
      <point x="132" y="0"/>
      <point x="132" y="114"/>
    </contour>
    <contour>
      <point x="411" y="780" type="line"/>
      <point x="268" y="946" type="line"/>
      <point x="66" y="946" type="line"/>
      <point x="253" y="780" type="line"/>
    </contour>
  </outline>
</glyph>
<glyph name="Eacute" format="1">
  <advance width="701"/>
  <unicode hex="00C9"/>
  <outline>
    <contour>
      <point x="149" y="315" type="curve"/>
      <point x="285" y="315"/>
      <point x="421" y="315"/>
      <point x="557" y="315" type="curve"/>
      <point x="557" y="430"/>
      <point x="557" y="315"/>
      <point x="557" y="430" type="curve"/>
      <point x="421" y="430"/>
      <point x="285" y="430"/>
      <point x="149" y="430" type="curve"/>
      <point x="149" y="315"/>
      <point x="149" y="430"/>
    </contour>
    <contour>
      <point x="130" y="608" type="curve"/>
      <point x="298" y="608"/>
      <point x="467" y="608"/>
      <point x="636" y="608" type="curve"/>
      <point x="636" y="722"/>
      <point x="636" y="608"/>
      <point x="636" y="722" type="curve"/>
      <point x="467" y="722"/>
      <point x="298" y="722"/>
      <point x="130" y="722" type="curve"/>
      <point x="130" y="608"/>
      <point x="130" y="722"/>
    </contour>
    <contour>
      <point x="222" y="0" type="curve"/>
      <point x="222" y="722" type="line"/>
      <point x="65" y="722"/>
      <point x="222" y="722"/>
      <point x="65" y="722" type="curve"/>
      <point x="65" y="481"/>
      <point x="65" y="241"/>
      <point x="65" y="0" type="curve"/>
      <point x="222" y="0"/>
      <point x="65" y="0"/>
    </contour>
    <contour>
      <point x="130" y="0" type="curve"/>
      <point x="313" y="0"/>
      <point x="495" y="0"/>
      <point x="678" y="0" type="curve"/>
      <point x="678" y="114"/>
      <point x="678" y="0"/>
      <point x="678" y="114" type="curve"/>
      <point x="495" y="114"/>
      <point x="313" y="114"/>
      <point x="130" y="114" type="curve"/>
      <point x="130" y="0"/>
      <point x="130" y="114"/>
    </contour>
    <contour>
      <point x="381" y="780" type="line"/>
      <point x="568" y="946" type="line"/>
      <point x="366" y="946" type="line"/>
      <point x="227" y="780" type="line"/>
    </contour>
  </outline>
</glyph>
<glyph name="Ecircumflex" format="1">
  <advance width="662"/>
  <unicode hex="00CA"/>
  <outline>
    <contour>
      <point x="124" y="315" type="curve"/>
      <point x="260" y="315"/>
      <point x="396" y="315"/>
      <point x="532" y="315" type="curve"/>
      <point x="532" y="430"/>
      <point x="532" y="315"/>
      <point x="532" y="430" type="curve"/>
      <point x="396" y="430"/>
      <point x="260" y="430"/>
      <point x="124" y="430" type="curve"/>
      <point x="124" y="315"/>
      <point x="124" y="430"/>
    </contour>
    <contour>
      <point x="105" y="608" type="curve"/>
      <point x="273" y="608"/>
      <point x="442" y="608"/>
      <point x="611" y="608" type="curve"/>
      <point x="611" y="722"/>
      <point x="611" y="608"/>
      <point x="611" y="722" type="curve"/>
      <point x="442" y="722"/>
      <point x="273" y="722"/>
      <point x="105" y="722" type="curve"/>
      <point x="105" y="608"/>
      <point x="105" y="722"/>
    </contour>
    <contour>
      <point x="197" y="0" type="curve"/>
      <point x="197" y="722" type="line"/>
      <point x="40" y="722"/>
      <point x="197" y="722"/>
      <point x="40" y="722" type="curve"/>
      <point x="40" y="481"/>
      <point x="40" y="241"/>
      <point x="40" y="0" type="curve"/>
      <point x="197" y="0"/>
      <point x="40" y="0"/>
    </contour>
    <contour>
      <point x="105" y="0" type="curve"/>
      <point x="288" y="0"/>
      <point x="470" y="0"/>
      <point x="653" y="0" type="curve"/>
      <point x="653" y="114"/>
      <point x="653" y="0"/>
      <point x="653" y="114" type="curve"/>
      <point x="470" y="114"/>
      <point x="288" y="114"/>
      <point x="105" y="114" type="curve"/>
      <point x="105" y="0"/>
      <point x="105" y="114"/>
    </contour>
    <contour>
      <point x="182" y="782" type="line"/>
      <point x="369" y="948" type="line"/>
      <point x="167" y="948" type="line"/>
      <point x="28" y="782" type="line"/>
    </contour>
    <contour>
      <point x="560" y="782" type="line"/>
      <point x="418" y="948" type="line"/>
      <point x="215" y="948" type="line"/>
      <point x="402" y="782" type="line"/>
    </contour>
  </outline>
</glyph>
<glyph name="Edieresis" format="1">
  <advance width="699"/>
  <unicode hex="00CB"/>
  <outline>
    <contour>
      <point x="147" y="315" type="curve"/>
      <point x="283" y="315"/>
      <point x="419" y="315"/>
      <point x="555" y="315" type="curve"/>
      <point x="555" y="430"/>
      <point x="555" y="315"/>
      <point x="555" y="430" type="curve"/>
      <point x="419" y="430"/>
      <point x="283" y="430"/>
      <point x="147" y="430" type="curve"/>
      <point x="147" y="315"/>
      <point x="147" y="430"/>
    </contour>
    <contour>
      <point x="127" y="608" type="curve"/>
      <point x="296" y="608"/>
      <point x="465" y="608"/>
      <point x="633" y="608" type="curve"/>
      <point x="633" y="722"/>
      <point x="633" y="608"/>
      <point x="633" y="722" type="curve"/>
      <point x="465" y="722"/>
      <point x="296" y="722"/>
      <point x="127" y="722" type="curve"/>
      <point x="127" y="608"/>
      <point x="127" y="722"/>
    </contour>
    <contour>
      <point x="220" y="0" type="curve"/>
      <point x="220" y="722" type="line"/>
      <point x="63" y="722"/>
      <point x="220" y="722"/>
      <point x="63" y="722" type="curve"/>
      <point x="63" y="481"/>
      <point x="63" y="241"/>
      <point x="63" y="0" type="curve"/>
      <point x="220" y="0"/>
      <point x="63" y="0"/>
    </contour>
    <contour>
      <point x="127" y="0" type="curve"/>
      <point x="310" y="0"/>
      <point x="493" y="0"/>
      <point x="676" y="0" type="curve"/>
      <point x="676" y="114"/>
      <point x="676" y="0"/>
      <point x="676" y="114" type="curve"/>
      <point x="493" y="114"/>
      <point x="310" y="114"/>
      <point x="127" y="114" type="curve"/>
      <point x="127" y="0"/>
      <point x="127" y="114"/>
    </contour>
    <contour>
      <point x="289" y="851" type="curve"/>
      <point x="289" y="902"/>
      <point x="250" y="926"/>
      <point x="197" y="926" type="curve"/>
      <point x="144" y="926"/>
      <point x="107" y="899"/>
      <point x="107" y="851" type="curve"/>
      <point x="289" y="851"/>
      <point x="108" y="851"/>
      <point x="289" y="851" type="curve"/>
      <point x="289" y="799"/>
      <point x="250" y="778"/>
      <point x="196" y="778" type="curve"/>
      <point x="143" y="778"/>
      <point x="107" y="802"/>
      <point x="107" y="851" type="curve"/>
      <point x="289" y="851"/>
      <point x="108" y="851"/>
    </contour>
    <contour>
      <point x="525" y="851" type="curve"/>
      <point x="525" y="902"/>
      <point x="485" y="926"/>
      <point x="432" y="926" type="curve"/>
      <point x="379" y="926"/>
      <point x="343" y="899"/>
      <point x="343" y="851" type="curve"/>
      <point x="524" y="851"/>
      <point x="343" y="851"/>
      <point x="525" y="851" type="curve"/>
      <point x="525" y="799"/>
      <point x="485" y="778"/>
      <point x="431" y="778" type="curve"/>
      <point x="378" y="778"/>
      <point x="343" y="802"/>
      <point x="343" y="851" type="curve"/>
      <point x="524" y="851"/>
      <point x="343" y="851"/>
    </contour>
  </outline>
</glyph>
<glyph name="Igrave" format="1">
  <advance width="315"/>
  <unicode hex="00CC"/>
  <outline>
    <contour>
      <point x="238" y="0" type="curve"/>
      <point x="238" y="241"/>
      <point x="238" y="481"/>
      <point x="238" y="722" type="curve"/>
      <point x="82" y="722"/>
      <point x="238" y="722"/>
      <point x="82" y="722" type="curve"/>
      <point x="82" y="481"/>
      <point x="82" y="241"/>
      <point x="82" y="0" type="curve"/>
      <point x="238" y="0"/>
      <point x="82" y="0"/>
    </contour>
    <contour>
      <point x="250" y="780" type="line"/>
      <point x="107" y="946" type="line"/>
      <point x="-95" y="946" type="line"/>
      <point x="92" y="780" type="line"/>
    </contour>
  </outline>
</glyph>
<glyph name="Iacute" format="1">
  <advance width="322"/>
  <unicode hex="00CD"/>
  <outline>
    <contour>
      <point x="235" y="0" type="curve"/>
      <point x="235" y="241"/>
      <point x="235" y="481"/>
      <point x="235" y="722" type="curve"/>
      <point x="79" y="722"/>
      <point x="235" y="722"/>
      <point x="79" y="722" type="curve"/>
      <point x="79" y="481"/>
      <point x="79" y="241"/>
      <point x="79" y="0" type="curve"/>
      <point x="235" y="0"/>
      <point x="79" y="0"/>
    </contour>
    <contour>
      <point x="220" y="780" type="line"/>
      <point x="407" y="946" type="line"/>
      <point x="204" y="946" type="line"/>
      <point x="66" y="780" type="line"/>
    </contour>
  </outline>
</glyph>
<glyph name="Icircumflex" format="1">
  <advance width="351"/>
  <unicode hex="00CE"/>
  <outline>
    <contour>
      <point x="257" y="0" type="curve"/>
      <point x="257" y="241"/>
      <point x="257" y="481"/>
      <point x="257" y="722" type="curve"/>
      <point x="101" y="722"/>
      <point x="257" y="722"/>
      <point x="101" y="722" type="curve"/>
      <point x="101" y="481"/>
      <point x="101" y="241"/>
      <point x="101" y="0" type="curve"/>
      <point x="257" y="0"/>
      <point x="101" y="0"/>
    </contour>
    <contour>
      <point x="68" y="782" type="line"/>
      <point x="255" y="948" type="line"/>
      <point x="52" y="948" type="line"/>
      <point x="-86" y="782" type="line"/>
    </contour>
    <contour>
      <point x="446" y="782" type="line"/>
      <point x="303" y="948" type="line"/>
      <point x="101" y="948" type="line"/>
      <point x="288" y="782" type="line"/>
    </contour>
  </outline>
</glyph>
<glyph name="Idieresis" format="1">
  <advance width="341"/>
  <unicode hex="00CF"/>
  <outline>
    <contour>
      <point x="253" y="0" type="curve"/>
      <point x="253" y="241"/>
      <point x="253" y="481"/>
      <point x="253" y="722" type="curve"/>
      <point x="96" y="722"/>
      <point x="253" y="722"/>
      <point x="96" y="722" type="curve"/>
      <point x="96" y="481"/>
      <point x="96" y="241"/>
      <point x="96" y="0" type="curve"/>
      <point x="253" y="0"/>
      <point x="96" y="0"/>
    </contour>
    <contour>
      <point x="148" y="851" type="curve"/>
      <point x="148" y="902"/>
      <point x="108" y="926"/>
      <point x="55" y="926" type="curve"/>
      <point x="2" y="926"/>
      <point x="-34" y="899"/>
      <point x="-34" y="851" type="curve"/>
      <point x="147" y="851"/>
      <point x="-34" y="851"/>
      <point x="148" y="851" type="curve"/>
      <point x="148" y="799"/>
      <point x="108" y="778"/>
      <point x="54" y="778" type="curve"/>
      <point x="1" y="778"/>
      <point x="-34" y="802"/>
      <point x="-34" y="851" type="curve"/>
      <point x="147" y="851"/>
      <point x="-34" y="851"/>
    </contour>
    <contour>
      <point x="383" y="851" type="curve"/>
      <point x="383" y="902"/>
      <point x="343" y="926"/>
      <point x="290" y="926" type="curve"/>
      <point x="237" y="926"/>
      <point x="201" y="899"/>
      <point x="201" y="851" type="curve"/>
      <point x="382" y="851"/>
      <point x="201" y="851"/>
      <point x="383" y="851" type="curve"/>
      <point x="383" y="799"/>
      <point x="344" y="778"/>
      <point x="290" y="778" type="curve"/>
      <point x="236" y="778"/>
      <point x="201" y="802"/>
      <point x="201" y="851" type="curve"/>
      <point x="382" y="851"/>
      <point x="201" y="851"/>
    </contour>
  </outline>
</glyph>
<glyph name="Eth" format="1">
  <advance width="921"/>
  <unicode hex="00D0"/>
  <outline>
    <contour>
      <point x="99" y="722" type="curve"/>
      <point x="99" y="481"/>
      <point x="99" y="241"/>
      <point x="99" y="0" type="curve"/>
      <point x="255" y="0"/>
      <point x="99" y="0"/>
      <point x="255" y="0" type="curve"/>
      <point x="255" y="241"/>
      <point x="255" y="481"/>
      <point x="255" y="722" type="curve"/>
      <point x="99" y="722"/>
      <point x="255" y="722"/>
    </contour>
    <contour>
      <point x="180" y="0" type="curve"/>
      <point x="260" y="0"/>
      <point x="342" y="0"/>
      <point x="423" y="0" type="curve"/>
      <point x="703" y="0"/>
      <point x="884" y="96"/>
      <point x="884" y="354" type="curve"/>
      <point x="884" y="619"/>
      <point x="701" y="722"/>
      <point x="416" y="722" type="curve"/>
      <point x="337" y="722"/>
      <point x="259" y="722"/>
      <point x="180" y="722" type="curve"/>
      <point x="180" y="608"/>
      <point x="180" y="722"/>
      <point x="180" y="608" type="curve"/>
      <point x="256" y="608"/>
      <point x="332" y="608"/>
      <point x="408" y="608" type="curve"/>
      <point x="605" y="608"/>
      <point x="730" y="533"/>
      <point x="730" y="349" type="curve"/>
      <point x="730" y="182"/>
      <point x="615" y="114"/>
      <point x="435" y="114" type="curve"/>
      <point x="350" y="114"/>
      <point x="265" y="114"/>
      <point x="180" y="114" type="curve"/>
      <point x="180" y="0"/>
      <point x="180" y="114"/>
    </contour>
    <contour>
      <point x="27" y="303" type="curve"/>
      <point x="173" y="303"/>
      <point x="319" y="303"/>
      <point x="464" y="303" type="curve"/>
      <point x="464" y="429"/>
      <point x="464" y="303"/>
      <point x="464" y="429" type="curve"/>
      <point x="319" y="429"/>
      <point x="173" y="429"/>
      <point x="27" y="429" type="curve"/>
      <point x="27" y="303"/>
      <point x="27" y="429"/>
    </contour>
  </outline>
</glyph>
<glyph name="Ntilde" format="1">
  <advance width="980"/>
  <unicode hex="00D1"/>
  <outline>
    <contour>
      <point x="911" y="0" type="curve"/>
      <point x="691" y="239"/>
      <point x="475" y="483"/>
      <point x="254" y="722" type="curve"/>
      <point x="65" y="722"/>
      <point x="254" y="722"/>
      <point x="65" y="722" type="curve"/>
      <point x="285" y="483"/>
      <point x="502" y="239"/>
      <point x="723" y="0" type="curve"/>
      <point x="911" y="0"/>
      <point x="723" y="0"/>
    </contour>
    <contour>
      <point x="760" y="722" type="curve"/>
      <point x="760" y="481"/>
      <point x="760" y="241"/>
      <point x="760" y="0" type="curve"/>
      <point x="916" y="0"/>
      <point x="760" y="0"/>
      <point x="916" y="0" type="curve"/>
      <point x="916" y="241"/>
      <point x="916" y="481"/>
      <point x="916" y="722" type="curve"/>
      <point x="760" y="722"/>
      <point x="916" y="722"/>
    </contour>
    <contour>
      <point x="221" y="0" type="curve"/>
      <point x="221" y="241"/>
      <point x="221" y="481"/>
      <point x="221" y="722" type="curve"/>
      <point x="65" y="722"/>
      <point x="221" y="722"/>
      <point x="65" y="722" type="curve"/>
      <point x="65" y="481"/>
      <point x="65" y="241"/>
      <point x="65" y="0" type="curve"/>
      <point x="221" y="0"/>
      <point x="65" y="0"/>
    </contour>
    <contour>
      <point x="655" y="960" type="curve"/>
      <point x="643" y="924"/>
      <point x="623" y="890"/>
      <point x="593" y="890" type="curve"/>
      <point x="558" y="890"/>
      <point x="538" y="900"/>
      <point x="510" y="922" type="curve"/>
      <point x="466" y="955"/>
      <point x="431" y="969"/>
      <point x="377" y="969" type="curve"/>
      <point x="289" y="969"/>
      <point x="235" y="920"/>
      <point x="198" y="830" type="curve"/>
      <point x="314" y="774"/>
      <point x="200" y="829"/>
      <point x="315" y="774" type="curve"/>
      <point x="333" y="819"/>
      <point x="353" y="845"/>
      <point x="383" y="845" type="curve"/>
      <point x="417" y="845"/>
      <point x="435" y="832"/>
      <point x="461" y="813" type="curve"/>
      <point x="509" y="778"/>
      <point x="542" y="767"/>
      <point x="598" y="767" type="curve"/>
      <point x="691" y="767"/>
      <point x="744" y="819"/>
      <point x="777" y="907" type="curve"/>
      <point x="656" y="959"/>
      <point x="776" y="906"/>
    </contour>
  </outline>
</glyph>
<glyph name="Ocircumflex" format="1">
  <advance width="932"/>
  <unicode hex="00D4"/>
  <outline>
    <contour>
      <point x="193" y="360" type="curve" name="FullCurve"/>
      <point x="193" y="517"/>
      <point x="295" y="606"/>
      <point x="459" y="606" type="curve" name="FullCurve"/>
      <point x="627" y="606"/>
      <point x="739" y="522"/>
      <point x="739" y="363" type="curve" name="FullCurve"/>
      <point x="739" y="206"/>
      <point x="635" y="117"/>
      <point x="470" y="117" type="curve" name="FullCurve"/>
      <point x="301" y="117"/>
      <point x="193" y="201"/>
      <point x="193" y="360" type="curve" name="FullCurve"/>
      <point x="36" y="360"/>
      <point x="193" y="360"/>
      <point x="36" y="360" type="curve" name="FullCurve"/>
      <point x="36" y="121"/>
      <point x="210" y="-5"/>
      <point x="463" y="-5" type="curve" name="FullCurve"/>
      <point x="719" y="-5"/>
      <point x="895" y="122"/>
      <point x="895" y="363" type="curve" name="FullCurve"/>
      <point x="895" y="600"/>
      <point x="723" y="727"/>
      <point x="471" y="727" type="curve" name="FullCurve"/>
      <point x="214" y="727"/>
      <point x="36" y="601"/>
      <point x="36" y="360" type="curve" name="FullCurve"/>
      <point x="193" y="360"/>
      <point x="36" y="360"/>
    </contour>
    <contour>
      <point x="360" y="782" type="line"/>
      <point x="547" y="948" type="line"/>
      <point x="345" y="948" type="line"/>
      <point x="206" y="782" type="line"/>
    </contour>
    <contour>
      <point x="738" y="782" type="line"/>
      <point x="596" y="948" type="line"/>
      <point x="393" y="948" type="line"/>
      <point x="580" y="782" type="line"/>
    </contour>
  </outline>
</glyph>
